G04 This is an RS-274x file exported by *
G04 gerbv version 2.6A *
G04 More information is available about gerbv at *
G04 http://gerbv.geda-project.org/ *
G04 --End of header info--*
%MOIN*%
%FSLAX34Y34*%
%IPPOS*%
G04 --Define apertures--*
%AMMACRO10*
1,1,0.005000,0.000000,0.012000*
20,1,0.005000,0.000000,0.012000,0.012000,-0.012000,0.000000*
1,1,0.005000,0.012000,-0.012000*
20,1,0.005000,0.012000,-0.012000,-0.012000,-0.012000,0.000000*
1,1,0.005000,-0.012000,-0.012000*
20,1,0.005000,-0.012000,-0.012000,0.000000,0.012000,0.000000*
1,1,0.005000,0.000000,0.012000*
%
%ADD10MACRO10*%
%AMMACRO11*
1,1,0.005000,0.025000,0.000000*
20,1,0.005000,0.025000,0.000000,0.024620,-0.004341,0.000000*
1,1,0.005000,0.024620,-0.004341*
20,1,0.005000,0.024620,-0.004341,0.023492,-0.008551,0.000000*
1,1,0.005000,0.023492,-0.008551*
20,1,0.005000,0.023492,-0.008551,0.021651,-0.012500,0.000000*
1,1,0.005000,0.021651,-0.012500*
20,1,0.005000,0.021651,-0.012500,0.019151,-0.016070,0.000000*
1,1,0.005000,0.019151,-0.016070*
20,1,0.005000,0.019151,-0.016070,0.016070,-0.019151,0.000000*
1,1,0.005000,0.016070,-0.019151*
20,1,0.005000,0.016070,-0.019151,0.012500,-0.021651,0.000000*
1,1,0.005000,0.012500,-0.021651*
20,1,0.005000,0.012500,-0.021651,0.008551,-0.023492,0.000000*
1,1,0.005000,0.008551,-0.023492*
20,1,0.005000,0.008551,-0.023492,0.004341,-0.024620,0.000000*
1,1,0.005000,0.004341,-0.024620*
20,1,0.005000,0.004341,-0.024620,0.000000,-0.025000,0.000000*
1,1,0.005000,0.000000,-0.025000*
20,1,0.005000,0.000000,-0.025000,-0.004341,-0.024620,0.000000*
1,1,0.005000,-0.004341,-0.024620*
20,1,0.005000,-0.004341,-0.024620,-0.008551,-0.023492,0.000000*
1,1,0.005000,-0.008551,-0.023492*
20,1,0.005000,-0.008551,-0.023492,-0.012500,-0.021651,0.000000*
1,1,0.005000,-0.012500,-0.021651*
20,1,0.005000,-0.012500,-0.021651,-0.016070,-0.019151,0.000000*
1,1,0.005000,-0.016070,-0.019151*
20,1,0.005000,-0.016070,-0.019151,-0.019151,-0.016070,0.000000*
1,1,0.005000,-0.019151,-0.016070*
20,1,0.005000,-0.019151,-0.016070,-0.021651,-0.012500,0.000000*
1,1,0.005000,-0.021651,-0.012500*
20,1,0.005000,-0.021651,-0.012500,-0.023492,-0.008551,0.000000*
1,1,0.005000,-0.023492,-0.008551*
20,1,0.005000,-0.023492,-0.008551,-0.024620,-0.004341,0.000000*
1,1,0.005000,-0.024620,-0.004341*
20,1,0.005000,-0.024620,-0.004341,-0.025000,0.000000,0.000000*
1,1,0.005000,-0.025000,0.000000*
20,1,0.005000,-0.025000,0.000000,-0.024620,0.004341,0.000000*
1,1,0.005000,-0.024620,0.004341*
20,1,0.005000,-0.024620,0.004341,-0.023492,0.008551,0.000000*
1,1,0.005000,-0.023492,0.008551*
20,1,0.005000,-0.023492,0.008551,-0.021651,0.012500,0.000000*
1,1,0.005000,-0.021651,0.012500*
20,1,0.005000,-0.021651,0.012500,-0.019151,0.016070,0.000000*
1,1,0.005000,-0.019151,0.016070*
20,1,0.005000,-0.019151,0.016070,-0.016070,0.019151,0.000000*
1,1,0.005000,-0.016070,0.019151*
20,1,0.005000,-0.016070,0.019151,-0.012500,0.021651,0.000000*
1,1,0.005000,-0.012500,0.021651*
20,1,0.005000,-0.012500,0.021651,-0.008551,0.023492,0.000000*
1,1,0.005000,-0.008551,0.023492*
20,1,0.005000,-0.008551,0.023492,-0.004341,0.024620,0.000000*
1,1,0.005000,-0.004341,0.024620*
20,1,0.005000,-0.004341,0.024620,0.000000,0.025000,0.000000*
1,1,0.005000,0.000000,0.025000*
20,1,0.005000,0.000000,0.025000,0.004341,0.024620,0.000000*
1,1,0.005000,0.004341,0.024620*
20,1,0.005000,0.004341,0.024620,0.008551,0.023492,0.000000*
1,1,0.005000,0.008551,0.023492*
20,1,0.005000,0.008551,0.023492,0.012500,0.021651,0.000000*
1,1,0.005000,0.012500,0.021651*
20,1,0.005000,0.012500,0.021651,0.016070,0.019151,0.000000*
1,1,0.005000,0.016070,0.019151*
20,1,0.005000,0.016070,0.019151,0.019151,0.016070,0.000000*
1,1,0.005000,0.019151,0.016070*
20,1,0.005000,0.019151,0.016070,0.021651,0.012500,0.000000*
1,1,0.005000,0.021651,0.012500*
20,1,0.005000,0.021651,0.012500,0.023492,0.008551,0.000000*
1,1,0.005000,0.023492,0.008551*
20,1,0.005000,0.023492,0.008551,0.024620,0.004341,0.000000*
1,1,0.005000,0.024620,0.004341*
20,1,0.005000,0.024620,0.004341,0.025000,0.000000,0.000000*
1,1,0.005000,0.025000,0.000000*
1,1,0.005000,0.012500,0.000000*
20,1,0.005000,0.012500,0.000000,-0.012500,0.000000,0.000000*
1,1,0.005000,-0.012500,0.000000*
1,1,0.005000,0.000000,0.012500*
20,1,0.005000,0.000000,0.012500,0.000000,-0.012500,0.000000*
1,1,0.005000,0.000000,-0.012500*
%
%ADD11MACRO11*%
%ADD12C,0.0030*%
%ADD13C,0.0050*%
%AMMACRO14*
1,1,0.005000,0.025000,0.000000*
20,1,0.005000,0.025000,0.000000,-0.025000,0.000000,0.000000*
1,1,0.005000,-0.025000,0.000000*
1,1,0.005000,0.000000,0.025000*
20,1,0.005000,0.000000,0.025000,0.000000,-0.025000,0.000000*
1,1,0.005000,0.000000,-0.025000*
%
%ADD14MACRO14*%
G04 --Start main section--*
G36*
G01X0019300Y0009985D02*
G01X0019300Y0009752D01*
G01X0019550Y0009752D01*
G01X0019550Y-009737D01*
G01X0019300Y-009737D01*
G01X0019300Y-009971D01*
G01X0020800Y-009971D01*
G01X0020800Y-009737D01*
G01X0020550Y-009737D01*
G01X0020550Y0009752D01*
G01X0020800Y0009752D01*
G01X0020800Y0009985D01*
G01X0019300Y0009985D01*
G37*
G36*
G01X0017300Y-009971D02*
G01X0017300Y-009737D01*
G01X0023300Y-009737D01*
G01X0023300Y-009971D01*
G01X0017300Y-009971D01*
G37*
G36*
G01X0017300Y0009752D02*
G01X0017300Y0009985D01*
G01X0023300Y0009985D01*
G01X0023300Y0009752D01*
G01X0017300Y0009752D01*
G37*
G54D10*
G01X0004400Y0009970D03*
G01X0004400Y0009970D03*
G01X0005150Y0012250D03*
G01X0005150Y0012250D03*
G01X0007100Y0004300D03*
G01X0007100Y0004300D03*
G01X0006700Y0009970D03*
G01X0006700Y0009970D03*
G01X0006860Y0010600D03*
G01X0006860Y0010600D03*
G01X0006800Y0008600D03*
G01X0006800Y0008600D03*
G01X0006450Y0012250D03*
G01X0006450Y0012250D03*
G01X0006860Y0012700D03*
G01X0006860Y0012700D03*
G01X0010100Y0004100D03*
G01X0010100Y0004100D03*
G01X0010100Y0006706D03*
G01X0010100Y0006706D03*
G01X0010300Y0007900D03*
G01X0010300Y0007900D03*
G01X0008600Y0008300D03*
G01X0008600Y0008300D03*
G01X0008600Y0010200D03*
G01X0008600Y0010200D03*
G01X0008600Y0008800D03*
G01X0008600Y0008800D03*
G01X0013500Y0010400D03*
G01X0013500Y0010400D03*
G54D11*
G01X0004400Y0009970D03*
G01X0005150Y0012250D03*
G01X0007100Y0004300D03*
G01X0006700Y0009970D03*
G01X0006860Y0010600D03*
G01X0006800Y0008600D03*
G01X0006450Y0012250D03*
G01X0006860Y0012700D03*
G01X0010100Y0004100D03*
G01X0010100Y0006706D03*
G01X0010300Y0007900D03*
G01X0008600Y0008300D03*
G01X0008600Y0010200D03*
G01X0008600Y0008800D03*
G01X0013500Y0010400D03*
G01X0021695Y0014550D03*
G54D12*
G01X0017491Y-011002D02*
G01X0017491Y-010752D01*
G01X0017491Y-010752D02*
G01X0017545Y-010752D01*
G01X0017545Y-010752D02*
G01X0017566Y-010764D01*
G01X0017566Y-010764D02*
G01X0017582Y-010781D01*
G01X0017582Y-010781D02*
G01X0017595Y-010806D01*
G01X0017595Y-010806D02*
G01X0017606Y-010835D01*
G01X0017606Y-010835D02*
G01X0017609Y-010877D01*
G01X0017609Y-010877D02*
G01X0017606Y-010918D01*
G01X0017606Y-010918D02*
G01X0017595Y-010947D01*
G01X0017595Y-010947D02*
G01X0017582Y-010972D01*
G01X0017582Y-010972D02*
G01X0017566Y-010989D01*
G01X0017566Y-010989D02*
G01X0017545Y-011002D01*
G01X0017545Y-011002D02*
G01X0017491Y-011002D01*
G01X0017823Y-011002D02*
G01X0017717Y-011002D01*
G01X0017717Y-011002D02*
G01X0017717Y-010752D01*
G01X0017717Y-010752D02*
G01X0017823Y-010752D01*
G01X0017781Y-010872D02*
G01X0017717Y-010872D01*
G01X0017934Y-010968D02*
G01X0017955Y-010989D01*
G01X0017955Y-010989D02*
G01X0017979Y-011002D01*
G01X0017979Y-011002D02*
G01X0018001Y-011002D01*
G01X0018001Y-011002D02*
G01X0018022Y-010989D01*
G01X0018022Y-010989D02*
G01X0018038Y-010968D01*
G01X0018038Y-010968D02*
G01X0018046Y-010939D01*
G01X0018046Y-010939D02*
G01X0018041Y-010910D01*
G01X0018041Y-010910D02*
G01X0018027Y-010885D01*
G01X0018027Y-010885D02*
G01X0018003Y-010868D01*
G01X0018003Y-010868D02*
G01X0017971Y-010860D01*
G01X0017971Y-010860D02*
G01X0017953Y-010843D01*
G01X0017953Y-010843D02*
G01X0017945Y-010814D01*
G01X0017945Y-010814D02*
G01X0017950Y-010785D01*
G01X0017950Y-010785D02*
G01X0017963Y-010764D01*
G01X0017963Y-010764D02*
G01X0017982Y-010752D01*
G01X0017982Y-010752D02*
G01X0018001Y-010752D01*
G01X0018001Y-010752D02*
G01X0018019Y-010760D01*
G01X0018019Y-010760D02*
G01X0018035Y-010781D01*
G01X0018178Y-010752D02*
G01X0018242Y-010752D01*
G01X0018210Y-010752D02*
G01X0018210Y-011002D01*
G01X0018178Y-011002D02*
G01X0018242Y-011002D01*
G01X0018446Y-010877D02*
G01X0018499Y-010877D01*
G01X0018499Y-010877D02*
G01X0018499Y-010952D01*
G01X0018499Y-010952D02*
G01X0018483Y-010977D01*
G01X0018483Y-010977D02*
G01X0018465Y-010993D01*
G01X0018465Y-010993D02*
G01X0018438Y-011002D01*
G01X0018438Y-011002D02*
G01X0018411Y-010993D01*
G01X0018411Y-010993D02*
G01X0018393Y-010977D01*
G01X0018393Y-010977D02*
G01X0018377Y-010952D01*
G01X0018377Y-010952D02*
G01X0018366Y-010922D01*
G01X0018366Y-010922D02*
G01X0018361Y-010889D01*
G01X0018361Y-010889D02*
G01X0018361Y-010860D01*
G01X0018361Y-010860D02*
G01X0018366Y-010835D01*
G01X0018366Y-010835D02*
G01X0018377Y-010806D01*
G01X0018377Y-010806D02*
G01X0018393Y-010781D01*
G01X0018393Y-010781D02*
G01X0018409Y-010764D01*
G01X0018409Y-010764D02*
G01X0018430Y-010752D01*
G01X0018430Y-010752D02*
G01X0018449Y-010752D01*
G01X0018449Y-010752D02*
G01X0018470Y-010760D01*
G01X0018470Y-010760D02*
G01X0018486Y-010777D01*
G01X0018589Y-011002D02*
G01X0018589Y-010752D01*
G01X0018589Y-010752D02*
G01X0018711Y-011002D01*
G01X0018711Y-011002D02*
G01X0018711Y-010752D01*
G01X0019149Y-010772D02*
G01X0019133Y-010760D01*
G01X0019133Y-010760D02*
G01X0019114Y-010752D01*
G01X0019114Y-010752D02*
G01X0019093Y-010752D01*
G01X0019093Y-010752D02*
G01X0019069Y-010764D01*
G01X0019069Y-010764D02*
G01X0019050Y-010785D01*
G01X0019050Y-010785D02*
G01X0019037Y-010810D01*
G01X0019037Y-010810D02*
G01X0019026Y-010852D01*
G01X0019026Y-010852D02*
G01X0019023Y-010889D01*
G01X0019023Y-010889D02*
G01X0019029Y-010927D01*
G01X0019029Y-010927D02*
G01X0019037Y-010952D01*
G01X0019037Y-010952D02*
G01X0019053Y-010977D01*
G01X0019053Y-010977D02*
G01X0019071Y-010993D01*
G01X0019071Y-010993D02*
G01X0019090Y-011002D01*
G01X0019090Y-011002D02*
G01X0019109Y-011002D01*
G01X0019109Y-011002D02*
G01X0019127Y-010993D01*
G01X0019127Y-010993D02*
G01X0019143Y-010981D01*
G01X0019143Y-010981D02*
G01X0019157Y-010964D01*
G01X0019257Y-011002D02*
G01X0019257Y-010752D01*
G01X0019257Y-010752D02*
G01X0019323Y-010752D01*
G01X0019323Y-010752D02*
G01X0019345Y-010764D01*
G01X0019345Y-010764D02*
G01X0019358Y-010781D01*
G01X0019358Y-010781D02*
G01X0019363Y-010814D01*
G01X0019363Y-010814D02*
G01X0019358Y-010848D01*
G01X0019358Y-010848D02*
G01X0019342Y-010868D01*
G01X0019342Y-010868D02*
G01X0019323Y-010881D01*
G01X0019323Y-010881D02*
G01X0019257Y-010881D01*
G01X0019323Y-010881D02*
G01X0019363Y-011002D01*
G01X0019530Y-011002D02*
G01X0019509Y-010997D01*
G01X0019509Y-010997D02*
G01X0019490Y-010981D01*
G01X0019490Y-010981D02*
G01X0019474Y-010956D01*
G01X0019474Y-010956D02*
G01X0019463Y-010927D01*
G01X0019463Y-010927D02*
G01X0019458Y-010893D01*
G01X0019458Y-010893D02*
G01X0019458Y-010860D01*
G01X0019458Y-010860D02*
G01X0019463Y-010827D01*
G01X0019463Y-010827D02*
G01X0019474Y-010797D01*
G01X0019474Y-010797D02*
G01X0019490Y-010772D01*
G01X0019490Y-010772D02*
G01X0019509Y-010756D01*
G01X0019509Y-010756D02*
G01X0019530Y-010752D01*
G01X0019530Y-010752D02*
G01X0019551Y-010756D01*
G01X0019551Y-010756D02*
G01X0019570Y-010772D01*
G01X0019570Y-010772D02*
G01X0019586Y-010797D01*
G01X0019586Y-010797D02*
G01X0019597Y-010827D01*
G01X0019597Y-010827D02*
G01X0019602Y-010860D01*
G01X0019602Y-010860D02*
G01X0019602Y-010893D01*
G01X0019602Y-010893D02*
G01X0019597Y-010927D01*
G01X0019597Y-010927D02*
G01X0019586Y-010956D01*
G01X0019586Y-010956D02*
G01X0019570Y-010981D01*
G01X0019570Y-010981D02*
G01X0019551Y-010997D01*
G01X0019551Y-010997D02*
G01X0019530Y-011002D01*
G01X0019694Y-010968D02*
G01X0019715Y-010989D01*
G01X0019715Y-010989D02*
G01X0019739Y-011002D01*
G01X0019739Y-011002D02*
G01X0019761Y-011002D01*
G01X0019761Y-011002D02*
G01X0019782Y-010989D01*
G01X0019782Y-010989D02*
G01X0019798Y-010968D01*
G01X0019798Y-010968D02*
G01X0019806Y-010939D01*
G01X0019806Y-010939D02*
G01X0019801Y-010910D01*
G01X0019801Y-010910D02*
G01X0019787Y-010885D01*
G01X0019787Y-010885D02*
G01X0019763Y-010868D01*
G01X0019763Y-010868D02*
G01X0019731Y-010860D01*
G01X0019731Y-010860D02*
G01X0019713Y-010843D01*
G01X0019713Y-010843D02*
G01X0019705Y-010814D01*
G01X0019705Y-010814D02*
G01X0019710Y-010785D01*
G01X0019710Y-010785D02*
G01X0019723Y-010764D01*
G01X0019723Y-010764D02*
G01X0019742Y-010752D01*
G01X0019742Y-010752D02*
G01X0019761Y-010752D01*
G01X0019761Y-010752D02*
G01X0019779Y-010760D01*
G01X0019779Y-010760D02*
G01X0019795Y-010781D01*
G01X0019914Y-010968D02*
G01X0019935Y-010989D01*
G01X0019935Y-010989D02*
G01X0019959Y-011002D01*
G01X0019959Y-011002D02*
G01X0019981Y-011002D01*
G01X0019981Y-011002D02*
G01X0020002Y-010989D01*
G01X0020002Y-010989D02*
G01X0020018Y-010968D01*
G01X0020018Y-010968D02*
G01X0020026Y-010939D01*
G01X0020026Y-010939D02*
G01X0020021Y-010910D01*
G01X0020021Y-010910D02*
G01X0020007Y-010885D01*
G01X0020007Y-010885D02*
G01X0019983Y-010868D01*
G01X0019983Y-010868D02*
G01X0019951Y-010860D01*
G01X0019951Y-010860D02*
G01X0019933Y-010843D01*
G01X0019933Y-010843D02*
G01X0019925Y-010814D01*
G01X0019925Y-010814D02*
G01X0019930Y-010785D01*
G01X0019930Y-010785D02*
G01X0019943Y-010764D01*
G01X0019943Y-010764D02*
G01X0019962Y-010752D01*
G01X0019962Y-010752D02*
G01X0019981Y-010752D01*
G01X0019981Y-010752D02*
G01X0019999Y-010760D01*
G01X0019999Y-010760D02*
G01X0020015Y-010781D01*
G01X0020354Y-010968D02*
G01X0020375Y-010989D01*
G01X0020375Y-010989D02*
G01X0020399Y-011002D01*
G01X0020399Y-011002D02*
G01X0020421Y-011002D01*
G01X0020421Y-011002D02*
G01X0020442Y-010989D01*
G01X0020442Y-010989D02*
G01X0020458Y-010968D01*
G01X0020458Y-010968D02*
G01X0020466Y-010939D01*
G01X0020466Y-010939D02*
G01X0020461Y-010910D01*
G01X0020461Y-010910D02*
G01X0020447Y-010885D01*
G01X0020447Y-010885D02*
G01X0020423Y-010868D01*
G01X0020423Y-010868D02*
G01X0020391Y-010860D01*
G01X0020391Y-010860D02*
G01X0020373Y-010843D01*
G01X0020373Y-010843D02*
G01X0020365Y-010814D01*
G01X0020365Y-010814D02*
G01X0020370Y-010785D01*
G01X0020370Y-010785D02*
G01X0020383Y-010764D01*
G01X0020383Y-010764D02*
G01X0020402Y-010752D01*
G01X0020402Y-010752D02*
G01X0020421Y-010752D01*
G01X0020421Y-010752D02*
G01X0020439Y-010760D01*
G01X0020439Y-010760D02*
G01X0020455Y-010781D01*
G01X0020683Y-011002D02*
G01X0020577Y-011002D01*
G01X0020577Y-011002D02*
G01X0020577Y-010752D01*
G01X0020577Y-010752D02*
G01X0020683Y-010752D01*
G01X0020641Y-010872D02*
G01X0020577Y-010872D01*
G01X0020909Y-010772D02*
G01X0020893Y-010760D01*
G01X0020893Y-010760D02*
G01X0020874Y-010752D01*
G01X0020874Y-010752D02*
G01X0020853Y-010752D01*
G01X0020853Y-010752D02*
G01X0020829Y-010764D01*
G01X0020829Y-010764D02*
G01X0020810Y-010785D01*
G01X0020810Y-010785D02*
G01X0020797Y-010810D01*
G01X0020797Y-010810D02*
G01X0020786Y-010852D01*
G01X0020786Y-010852D02*
G01X0020783Y-010889D01*
G01X0020783Y-010889D02*
G01X0020789Y-010927D01*
G01X0020789Y-010927D02*
G01X0020797Y-010952D01*
G01X0020797Y-010952D02*
G01X0020813Y-010977D01*
G01X0020813Y-010977D02*
G01X0020831Y-010993D01*
G01X0020831Y-010993D02*
G01X0020850Y-011002D01*
G01X0020850Y-011002D02*
G01X0020869Y-011002D01*
G01X0020869Y-011002D02*
G01X0020887Y-010993D01*
G01X0020887Y-010993D02*
G01X0020903Y-010981D01*
G01X0020903Y-010981D02*
G01X0020917Y-010964D01*
G01X0021070Y-010752D02*
G01X0021070Y-011002D01*
G01X0021009Y-010752D02*
G01X0021131Y-010752D01*
G01X0021258Y-010752D02*
G01X0021322Y-010752D01*
G01X0021290Y-010752D02*
G01X0021290Y-011002D01*
G01X0021258Y-011002D02*
G01X0021322Y-011002D01*
G01X0021510Y-011002D02*
G01X0021489Y-010997D01*
G01X0021489Y-010997D02*
G01X0021470Y-010981D01*
G01X0021470Y-010981D02*
G01X0021454Y-010956D01*
G01X0021454Y-010956D02*
G01X0021443Y-010927D01*
G01X0021443Y-010927D02*
G01X0021438Y-010893D01*
G01X0021438Y-010893D02*
G01X0021438Y-010860D01*
G01X0021438Y-010860D02*
G01X0021443Y-010827D01*
G01X0021443Y-010827D02*
G01X0021454Y-010797D01*
G01X0021454Y-010797D02*
G01X0021470Y-010772D01*
G01X0021470Y-010772D02*
G01X0021489Y-010756D01*
G01X0021489Y-010756D02*
G01X0021510Y-010752D01*
G01X0021510Y-010752D02*
G01X0021531Y-010756D01*
G01X0021531Y-010756D02*
G01X0021550Y-010772D01*
G01X0021550Y-010772D02*
G01X0021566Y-010797D01*
G01X0021566Y-010797D02*
G01X0021577Y-010827D01*
G01X0021577Y-010827D02*
G01X0021582Y-010860D01*
G01X0021582Y-010860D02*
G01X0021582Y-010893D01*
G01X0021582Y-010893D02*
G01X0021577Y-010927D01*
G01X0021577Y-010927D02*
G01X0021566Y-010956D01*
G01X0021566Y-010956D02*
G01X0021550Y-010981D01*
G01X0021550Y-010981D02*
G01X0021531Y-010997D01*
G01X0021531Y-010997D02*
G01X0021510Y-011002D01*
G01X0021669Y-011002D02*
G01X0021669Y-010752D01*
G01X0021669Y-010752D02*
G01X0021791Y-011002D01*
G01X0021791Y-011002D02*
G01X0021791Y-010752D01*
G01X0022229Y-010772D02*
G01X0022213Y-010760D01*
G01X0022213Y-010760D02*
G01X0022194Y-010752D01*
G01X0022194Y-010752D02*
G01X0022173Y-010752D01*
G01X0022173Y-010752D02*
G01X0022149Y-010764D01*
G01X0022149Y-010764D02*
G01X0022130Y-010785D01*
G01X0022130Y-010785D02*
G01X0022117Y-010810D01*
G01X0022117Y-010810D02*
G01X0022106Y-010852D01*
G01X0022106Y-010852D02*
G01X0022103Y-010889D01*
G01X0022103Y-010889D02*
G01X0022109Y-010927D01*
G01X0022109Y-010927D02*
G01X0022117Y-010952D01*
G01X0022117Y-010952D02*
G01X0022133Y-010977D01*
G01X0022133Y-010977D02*
G01X0022151Y-010993D01*
G01X0022151Y-010993D02*
G01X0022170Y-011002D01*
G01X0022170Y-011002D02*
G01X0022189Y-011002D01*
G01X0022189Y-011002D02*
G01X0022207Y-010993D01*
G01X0022207Y-010993D02*
G01X0022223Y-010981D01*
G01X0022223Y-010981D02*
G01X0022237Y-010964D01*
G01X0022334Y-011002D02*
G01X0022334Y-010752D01*
G01X0022446Y-010752D02*
G01X0022446Y-011002D01*
G01X0022446Y-010877D02*
G01X0022334Y-010877D01*
G01X0022543Y-011002D02*
G01X0022610Y-010752D01*
G01X0022610Y-010752D02*
G01X0022677Y-011002D01*
G01X0022653Y-010914D02*
G01X0022567Y-010914D01*
G01X0022777Y-011002D02*
G01X0022777Y-010752D01*
G01X0022777Y-010752D02*
G01X0022843Y-010752D01*
G01X0022843Y-010752D02*
G01X0022865Y-010764D01*
G01X0022865Y-010764D02*
G01X0022878Y-010781D01*
G01X0022878Y-010781D02*
G01X0022883Y-010814D01*
G01X0022883Y-010814D02*
G01X0022878Y-010848D01*
G01X0022878Y-010848D02*
G01X0022862Y-010868D01*
G01X0022862Y-010868D02*
G01X0022843Y-010881D01*
G01X0022843Y-010881D02*
G01X0022777Y-010881D01*
G01X0022843Y-010881D02*
G01X0022883Y-011002D01*
G01X0023050Y-010752D02*
G01X0023050Y-011002D01*
G01X0022989Y-010752D02*
G01X0023111Y-010752D01*
G01X0017360Y-011085D02*
G01X0017520Y-011085D01*
G01X0017580Y-011085D02*
G01X0017740Y-011085D01*
G01X0017800Y-011085D02*
G01X0017960Y-011085D01*
G01X0018020Y-011085D02*
G01X0018180Y-011085D01*
G01X0018240Y-011085D02*
G01X0018400Y-011085D01*
G01X0018460Y-011085D02*
G01X0018620Y-011085D01*
G01X0018680Y-011085D02*
G01X0018840Y-011085D01*
G01X0018900Y-011085D02*
G01X0019060Y-011085D01*
G01X0019120Y-011085D02*
G01X0019280Y-011085D01*
G01X0019340Y-011085D02*
G01X0019500Y-011085D01*
G01X0019560Y-011085D02*
G01X0019720Y-011085D01*
G01X0019780Y-011085D02*
G01X0019940Y-011085D01*
G01X0020000Y-011085D02*
G01X0020160Y-011085D01*
G01X0020220Y-011085D02*
G01X0020380Y-011085D01*
G01X0020440Y-011085D02*
G01X0020600Y-011085D01*
G01X0020660Y-011085D02*
G01X0020820Y-011085D01*
G01X0020880Y-011085D02*
G01X0021040Y-011085D01*
G01X0021100Y-011085D02*
G01X0021260Y-011085D01*
G01X0021320Y-011085D02*
G01X0021480Y-011085D01*
G01X0021540Y-011085D02*
G01X0021700Y-011085D01*
G01X0021760Y-011085D02*
G01X0021920Y-011085D01*
G01X0021980Y-011085D02*
G01X0022140Y-011085D01*
G01X0022200Y-011085D02*
G01X0022360Y-011085D01*
G01X0022420Y-011085D02*
G01X0022580Y-011085D01*
G01X0022640Y-011085D02*
G01X0022800Y-011085D01*
G01X0022860Y-011085D02*
G01X0023020Y-011085D01*
G01X0023080Y-011085D02*
G01X0023240Y-011085D01*
G01X0017550Y-011252D02*
G01X0017550Y-011502D01*
G01X0017489Y-011252D02*
G01X0017611Y-011252D01*
G01X0017770Y-011502D02*
G01X0017749Y-011497D01*
G01X0017749Y-011497D02*
G01X0017730Y-011481D01*
G01X0017730Y-011481D02*
G01X0017714Y-011456D01*
G01X0017714Y-011456D02*
G01X0017703Y-011427D01*
G01X0017703Y-011427D02*
G01X0017698Y-011393D01*
G01X0017698Y-011393D02*
G01X0017698Y-011360D01*
G01X0017698Y-011360D02*
G01X0017703Y-011327D01*
G01X0017703Y-011327D02*
G01X0017714Y-011297D01*
G01X0017714Y-011297D02*
G01X0017730Y-011272D01*
G01X0017730Y-011272D02*
G01X0017749Y-011256D01*
G01X0017749Y-011256D02*
G01X0017770Y-011252D01*
G01X0017770Y-011252D02*
G01X0017791Y-011256D01*
G01X0017791Y-011256D02*
G01X0017810Y-011272D01*
G01X0017810Y-011272D02*
G01X0017826Y-011297D01*
G01X0017826Y-011297D02*
G01X0017837Y-011327D01*
G01X0017837Y-011327D02*
G01X0017842Y-011360D01*
G01X0017842Y-011360D02*
G01X0017842Y-011393D01*
G01X0017842Y-011393D02*
G01X0017837Y-011427D01*
G01X0017837Y-011427D02*
G01X0017826Y-011456D01*
G01X0017826Y-011456D02*
G01X0017810Y-011481D01*
G01X0017810Y-011481D02*
G01X0017791Y-011497D01*
G01X0017791Y-011497D02*
G01X0017770Y-011502D01*
G01X0017990Y-011252D02*
G01X0017990Y-011502D01*
G01X0017929Y-011252D02*
G01X0018051Y-011252D01*
G01X0018143Y-011502D02*
G01X0018210Y-011252D01*
G01X0018210Y-011252D02*
G01X0018277Y-011502D01*
G01X0018253Y-011414D02*
G01X0018167Y-011414D01*
G01X0018377Y-011252D02*
G01X0018377Y-011502D01*
G01X0018377Y-011502D02*
G01X0018483Y-011502D01*
G01X0018870Y-011252D02*
G01X0018870Y-011502D01*
G01X0018809Y-011252D02*
G01X0018931Y-011252D01*
G01X0019034Y-011502D02*
G01X0019034Y-011252D01*
G01X0019146Y-011252D02*
G01X0019146Y-011502D01*
G01X0019146Y-011377D02*
G01X0019034Y-011377D01*
G01X0019278Y-011252D02*
G01X0019342Y-011252D01*
G01X0019310Y-011252D02*
G01X0019310Y-011502D01*
G01X0019278Y-011502D02*
G01X0019342Y-011502D01*
G01X0019589Y-011272D02*
G01X0019573Y-011260D01*
G01X0019573Y-011260D02*
G01X0019554Y-011252D01*
G01X0019554Y-011252D02*
G01X0019533Y-011252D01*
G01X0019533Y-011252D02*
G01X0019509Y-011264D01*
G01X0019509Y-011264D02*
G01X0019490Y-011285D01*
G01X0019490Y-011285D02*
G01X0019477Y-011310D01*
G01X0019477Y-011310D02*
G01X0019466Y-011352D01*
G01X0019466Y-011352D02*
G01X0019463Y-011389D01*
G01X0019463Y-011389D02*
G01X0019469Y-011427D01*
G01X0019469Y-011427D02*
G01X0019477Y-011452D01*
G01X0019477Y-011452D02*
G01X0019493Y-011477D01*
G01X0019493Y-011477D02*
G01X0019511Y-011493D01*
G01X0019511Y-011493D02*
G01X0019530Y-011502D01*
G01X0019530Y-011502D02*
G01X0019549Y-011502D01*
G01X0019549Y-011502D02*
G01X0019567Y-011493D01*
G01X0019567Y-011493D02*
G01X0019583Y-011481D01*
G01X0019583Y-011481D02*
G01X0019597Y-011464D01*
G01X0019691Y-011502D02*
G01X0019691Y-011252D01*
G01X0019793Y-011252D02*
G01X0019691Y-011406D01*
G01X0019809Y-011502D02*
G01X0019737Y-011335D01*
G01X0019909Y-011502D02*
G01X0019909Y-011252D01*
G01X0019909Y-011252D02*
G01X0020031Y-011502D01*
G01X0020031Y-011502D02*
G01X0020031Y-011252D01*
G01X0020243Y-011502D02*
G01X0020137Y-011502D01*
G01X0020137Y-011502D02*
G01X0020137Y-011252D01*
G01X0020137Y-011252D02*
G01X0020243Y-011252D01*
G01X0020201Y-011373D02*
G01X0020137Y-011373D01*
G01X0020354Y-011468D02*
G01X0020375Y-011489D01*
G01X0020375Y-011489D02*
G01X0020399Y-011502D01*
G01X0020399Y-011502D02*
G01X0020421Y-011502D01*
G01X0020421Y-011502D02*
G01X0020442Y-011489D01*
G01X0020442Y-011489D02*
G01X0020458Y-011468D01*
G01X0020458Y-011468D02*
G01X0020466Y-011439D01*
G01X0020466Y-011439D02*
G01X0020461Y-011410D01*
G01X0020461Y-011410D02*
G01X0020447Y-011385D01*
G01X0020447Y-011385D02*
G01X0020423Y-011368D01*
G01X0020423Y-011368D02*
G01X0020391Y-011360D01*
G01X0020391Y-011360D02*
G01X0020373Y-011343D01*
G01X0020373Y-011343D02*
G01X0020365Y-011314D01*
G01X0020365Y-011314D02*
G01X0020370Y-011285D01*
G01X0020370Y-011285D02*
G01X0020383Y-011264D01*
G01X0020383Y-011264D02*
G01X0020402Y-011252D01*
G01X0020402Y-011252D02*
G01X0020421Y-011252D01*
G01X0020421Y-011252D02*
G01X0020439Y-011260D01*
G01X0020439Y-011260D02*
G01X0020455Y-011281D01*
G01X0020574Y-011468D02*
G01X0020595Y-011489D01*
G01X0020595Y-011489D02*
G01X0020619Y-011502D01*
G01X0020619Y-011502D02*
G01X0020641Y-011502D01*
G01X0020641Y-011502D02*
G01X0020662Y-011489D01*
G01X0020662Y-011489D02*
G01X0020678Y-011468D01*
G01X0020678Y-011468D02*
G01X0020686Y-011439D01*
G01X0020686Y-011439D02*
G01X0020681Y-011410D01*
G01X0020681Y-011410D02*
G01X0020667Y-011385D01*
G01X0020667Y-011385D02*
G01X0020643Y-011368D01*
G01X0020643Y-011368D02*
G01X0020611Y-011360D01*
G01X0020611Y-011360D02*
G01X0020593Y-011343D01*
G01X0020593Y-011343D02*
G01X0020585Y-011314D01*
G01X0020585Y-011314D02*
G01X0020590Y-011285D01*
G01X0020590Y-011285D02*
G01X0020603Y-011264D01*
G01X0020603Y-011264D02*
G01X0020622Y-011252D01*
G01X0020622Y-011252D02*
G01X0020641Y-011252D01*
G01X0020641Y-011252D02*
G01X0020659Y-011260D01*
G01X0020659Y-011260D02*
G01X0020675Y-011281D01*
G01X0021019Y-011397D02*
G01X0021038Y-011368D01*
G01X0021038Y-011368D02*
G01X0021054Y-011352D01*
G01X0021054Y-011352D02*
G01X0021075Y-011343D01*
G01X0021075Y-011343D02*
G01X0021094Y-011352D01*
G01X0021094Y-011352D02*
G01X0021107Y-011368D01*
G01X0021107Y-011368D02*
G01X0021118Y-011393D01*
G01X0021118Y-011393D02*
G01X0021121Y-011422D01*
G01X0021121Y-011422D02*
G01X0021118Y-011447D01*
G01X0021118Y-011447D02*
G01X0021107Y-011473D01*
G01X0021107Y-011473D02*
G01X0021091Y-011493D01*
G01X0021091Y-011493D02*
G01X0021073Y-011502D01*
G01X0021073Y-011502D02*
G01X0021051Y-011493D01*
G01X0021051Y-011493D02*
G01X0021033Y-011468D01*
G01X0021033Y-011468D02*
G01X0021022Y-011431D01*
G01X0021022Y-011431D02*
G01X0021019Y-011389D01*
G01X0021019Y-011389D02*
G01X0021025Y-011335D01*
G01X0021025Y-011335D02*
G01X0021033Y-011306D01*
G01X0021033Y-011306D02*
G01X0021046Y-011277D01*
G01X0021046Y-011277D02*
G01X0021065Y-011256D01*
G01X0021065Y-011256D02*
G01X0021083Y-011252D01*
G01X0021083Y-011252D02*
G01X0021102Y-011260D01*
G01X0021102Y-011260D02*
G01X0021115Y-011281D01*
G01X0021290Y-011252D02*
G01X0021269Y-011260D01*
G01X0021269Y-011260D02*
G01X0021253Y-011281D01*
G01X0021253Y-011281D02*
G01X0021242Y-011306D01*
G01X0021242Y-011306D02*
G01X0021234Y-011339D01*
G01X0021234Y-011339D02*
G01X0021231Y-011377D01*
G01X0021231Y-011377D02*
G01X0021234Y-011414D01*
G01X0021234Y-011414D02*
G01X0021242Y-011447D01*
G01X0021242Y-011447D02*
G01X0021253Y-011473D01*
G01X0021253Y-011473D02*
G01X0021269Y-011493D01*
G01X0021269Y-011493D02*
G01X0021290Y-011502D01*
G01X0021290Y-011502D02*
G01X0021311Y-011493D01*
G01X0021311Y-011493D02*
G01X0021327Y-011473D01*
G01X0021327Y-011473D02*
G01X0021338Y-011447D01*
G01X0021338Y-011447D02*
G01X0021346Y-011414D01*
G01X0021346Y-011414D02*
G01X0021349Y-011377D01*
G01X0021349Y-011377D02*
G01X0021346Y-011339D01*
G01X0021346Y-011339D02*
G01X0021338Y-011306D01*
G01X0021338Y-011306D02*
G01X0021327Y-011281D01*
G01X0021327Y-011281D02*
G01X0021311Y-011260D01*
G01X0021311Y-011260D02*
G01X0021290Y-011252D01*
G01X0021510Y-011510D02*
G01X0021505Y-011506D01*
G01X0021505Y-011506D02*
G01X0021505Y-011497D01*
G01X0021505Y-011497D02*
G01X0021510Y-011493D01*
G01X0021510Y-011493D02*
G01X0021515Y-011497D01*
G01X0021515Y-011497D02*
G01X0021515Y-011506D01*
G01X0021515Y-011506D02*
G01X0021510Y-011510D01*
G01X0021762Y-011502D02*
G01X0021762Y-011252D01*
G01X0021762Y-011252D02*
G01X0021663Y-011431D01*
G01X0021663Y-011431D02*
G01X0021797Y-011431D01*
G01X0021945Y-011502D02*
G01X0021950Y-011447D01*
G01X0021950Y-011447D02*
G01X0021958Y-011402D01*
G01X0021958Y-011402D02*
G01X0021969Y-011360D01*
G01X0021969Y-011360D02*
G01X0021982Y-011314D01*
G01X0021982Y-011314D02*
G01X0022003Y-011252D01*
G01X0022003Y-011252D02*
G01X0021897Y-011252D01*
G01X0022111Y-011452D02*
G01X0022127Y-011481D01*
G01X0022127Y-011481D02*
G01X0022149Y-011497D01*
G01X0022149Y-011497D02*
G01X0022173Y-011502D01*
G01X0022173Y-011502D02*
G01X0022194Y-011497D01*
G01X0022194Y-011497D02*
G01X0022215Y-011477D01*
G01X0022215Y-011477D02*
G01X0022229Y-011452D01*
G01X0022229Y-011452D02*
G01X0022231Y-011427D01*
G01X0022231Y-011427D02*
G01X0022226Y-011397D01*
G01X0022226Y-011397D02*
G01X0022207Y-011377D01*
G01X0022207Y-011377D02*
G01X0022189Y-011368D01*
G01X0022189Y-011368D02*
G01X0022165Y-011368D01*
G01X0022189Y-011368D02*
G01X0022205Y-011356D01*
G01X0022205Y-011356D02*
G01X0022218Y-011335D01*
G01X0022218Y-011335D02*
G01X0022223Y-011310D01*
G01X0022223Y-011310D02*
G01X0022218Y-011285D01*
G01X0022218Y-011285D02*
G01X0022205Y-011264D01*
G01X0022205Y-011264D02*
G01X0022181Y-011252D01*
G01X0022181Y-011252D02*
G01X0022157Y-011256D01*
G01X0022157Y-011256D02*
G01X0022133Y-011272D01*
G01X0022541Y-011502D02*
G01X0022541Y-011252D01*
G01X0022541Y-011252D02*
G01X0022610Y-011460D01*
G01X0022610Y-011460D02*
G01X0022679Y-011252D01*
G01X0022679Y-011252D02*
G01X0022679Y-011502D01*
G01X0022798Y-011252D02*
G01X0022862Y-011252D01*
G01X0022830Y-011252D02*
G01X0022830Y-011502D01*
G01X0022798Y-011502D02*
G01X0022862Y-011502D01*
G01X0022997Y-011252D02*
G01X0022997Y-011502D01*
G01X0022997Y-011502D02*
G01X0023103Y-011502D01*
G01X0020050Y0010315D02*
G01X0019800Y0010315D01*
G01X0019800Y0010315D02*
G01X0019850Y0010283D01*
G01X0020050Y0010283D02*
G01X0020050Y0010347D01*
G01X0019967Y0010501D02*
G01X0019967Y0010570D01*
G01X0019842Y0010705D02*
G01X0019817Y0010721D01*
G01X0019817Y0010721D02*
G01X0019804Y0010739D01*
G01X0019804Y0010739D02*
G01X0019800Y0010761D01*
G01X0019800Y0010761D02*
G01X0019808Y0010787D01*
G01X0019808Y0010787D02*
G01X0019829Y0010806D01*
G01X0019829Y0010806D02*
G01X0019854Y0010811D01*
G01X0019854Y0010811D02*
G01X0019879Y0010809D01*
G01X0019879Y0010809D02*
G01X0019900Y0010798D01*
G01X0019900Y0010798D02*
G01X0019942Y0010745D01*
G01X0019942Y0010745D02*
G01X0019971Y0010721D01*
G01X0019971Y0010721D02*
G01X0020013Y0010705D01*
G01X0020013Y0010705D02*
G01X0020050Y0010699D01*
G01X0020050Y0010699D02*
G01X0020050Y0010811D01*
G01X0023547Y-009820D02*
G01X0023547Y-010070D01*
G01X0023547Y-010070D02*
G01X0023653Y-010070D01*
G01X0023769Y-009862D02*
G01X0023785Y-009837D01*
G01X0023785Y-009837D02*
G01X0023804Y-009824D01*
G01X0023804Y-009824D02*
G01X0023825Y-009820D01*
G01X0023825Y-009820D02*
G01X0023852Y-009828D01*
G01X0023852Y-009828D02*
G01X0023871Y-009849D01*
G01X0023871Y-009849D02*
G01X0023876Y-009874D01*
G01X0023876Y-009874D02*
G01X0023873Y-009899D01*
G01X0023873Y-009899D02*
G01X0023863Y-009920D01*
G01X0023863Y-009920D02*
G01X0023809Y-009962D01*
G01X0023809Y-009962D02*
G01X0023785Y-009991D01*
G01X0023785Y-009991D02*
G01X0023769Y-010032D01*
G01X0023769Y-010032D02*
G01X0023764Y-010070D01*
G01X0023764Y-010070D02*
G01X0023876Y-010070D01*
G01X0024040Y-010078D02*
G01X0024035Y-010074D01*
G01X0024035Y-010074D02*
G01X0024035Y-010066D01*
G01X0024035Y-010066D02*
G01X0024040Y-010062D01*
G01X0024040Y-010062D02*
G01X0024045Y-010066D01*
G01X0024045Y-010066D02*
G01X0024045Y-010074D01*
G01X0024045Y-010074D02*
G01X0024040Y-010078D01*
G01X0024040Y-009966D02*
G01X0024035Y-009962D01*
G01X0024035Y-009962D02*
G01X0024035Y-009953D01*
G01X0024035Y-009953D02*
G01X0024040Y-009949D01*
G01X0024040Y-009949D02*
G01X0024045Y-009953D01*
G01X0024045Y-009953D02*
G01X0024045Y-009962D01*
G01X0024045Y-009962D02*
G01X0024040Y-009966D01*
G01X0024501Y-009937D02*
G01X0024512Y-009924D01*
G01X0024512Y-009924D02*
G01X0024520Y-009903D01*
G01X0024520Y-009903D02*
G01X0024525Y-009874D01*
G01X0024525Y-009874D02*
G01X0024520Y-009849D01*
G01X0024520Y-009849D02*
G01X0024509Y-009832D01*
G01X0024509Y-009832D02*
G01X0024491Y-009820D01*
G01X0024491Y-009820D02*
G01X0024419Y-009820D01*
G01X0024419Y-009820D02*
G01X0024419Y-010070D01*
G01X0024419Y-010070D02*
G01X0024507Y-010070D01*
G01X0024507Y-010070D02*
G01X0024525Y-010053D01*
G01X0024525Y-010053D02*
G01X0024536Y-010028D01*
G01X0024536Y-010028D02*
G01X0024541Y-009999D01*
G01X0024541Y-009999D02*
G01X0024536Y-009970D01*
G01X0024536Y-009970D02*
G01X0024520Y-009945D01*
G01X0024520Y-009945D02*
G01X0024501Y-009937D01*
G01X0024501Y-009937D02*
G01X0024419Y-009937D01*
G01X0024700Y-010070D02*
G01X0024679Y-010066D01*
G01X0024679Y-010066D02*
G01X0024660Y-010049D01*
G01X0024660Y-010049D02*
G01X0024644Y-010024D01*
G01X0024644Y-010024D02*
G01X0024633Y-009995D01*
G01X0024633Y-009995D02*
G01X0024628Y-009962D01*
G01X0024628Y-009962D02*
G01X0024628Y-009928D01*
G01X0024628Y-009928D02*
G01X0024633Y-009895D01*
G01X0024633Y-009895D02*
G01X0024644Y-009866D01*
G01X0024644Y-009866D02*
G01X0024660Y-009841D01*
G01X0024660Y-009841D02*
G01X0024679Y-009824D01*
G01X0024679Y-009824D02*
G01X0024700Y-009820D01*
G01X0024700Y-009820D02*
G01X0024721Y-009824D01*
G01X0024721Y-009824D02*
G01X0024740Y-009841D01*
G01X0024740Y-009841D02*
G01X0024756Y-009866D01*
G01X0024756Y-009866D02*
G01X0024767Y-009895D01*
G01X0024767Y-009895D02*
G01X0024772Y-009928D01*
G01X0024772Y-009928D02*
G01X0024772Y-009962D01*
G01X0024772Y-009962D02*
G01X0024767Y-009995D01*
G01X0024767Y-009995D02*
G01X0024756Y-010024D01*
G01X0024756Y-010024D02*
G01X0024740Y-010049D01*
G01X0024740Y-010049D02*
G01X0024721Y-010066D01*
G01X0024721Y-010066D02*
G01X0024700Y-010070D01*
G01X0024920Y-009820D02*
G01X0024920Y-010070D01*
G01X0024859Y-009820D02*
G01X0024981Y-009820D01*
G01X0025140Y-009820D02*
G01X0025140Y-010070D01*
G01X0025079Y-009820D02*
G01X0025201Y-009820D01*
G01X0025360Y-010070D02*
G01X0025339Y-010066D01*
G01X0025339Y-010066D02*
G01X0025320Y-010049D01*
G01X0025320Y-010049D02*
G01X0025304Y-010024D01*
G01X0025304Y-010024D02*
G01X0025293Y-009995D01*
G01X0025293Y-009995D02*
G01X0025288Y-009962D01*
G01X0025288Y-009962D02*
G01X0025288Y-009928D01*
G01X0025288Y-009928D02*
G01X0025293Y-009895D01*
G01X0025293Y-009895D02*
G01X0025304Y-009866D01*
G01X0025304Y-009866D02*
G01X0025320Y-009841D01*
G01X0025320Y-009841D02*
G01X0025339Y-009824D01*
G01X0025339Y-009824D02*
G01X0025360Y-009820D01*
G01X0025360Y-009820D02*
G01X0025381Y-009824D01*
G01X0025381Y-009824D02*
G01X0025400Y-009841D01*
G01X0025400Y-009841D02*
G01X0025416Y-009866D01*
G01X0025416Y-009866D02*
G01X0025427Y-009895D01*
G01X0025427Y-009895D02*
G01X0025432Y-009928D01*
G01X0025432Y-009928D02*
G01X0025432Y-009962D01*
G01X0025432Y-009962D02*
G01X0025427Y-009995D01*
G01X0025427Y-009995D02*
G01X0025416Y-010024D01*
G01X0025416Y-010024D02*
G01X0025400Y-010049D01*
G01X0025400Y-010049D02*
G01X0025381Y-010066D01*
G01X0025381Y-010066D02*
G01X0025360Y-010070D01*
G01X0025511Y-010070D02*
G01X0025511Y-009820D01*
G01X0025511Y-009820D02*
G01X0025580Y-010028D01*
G01X0025580Y-010028D02*
G01X0025649Y-009820D01*
G01X0025649Y-009820D02*
G01X0025649Y-010070D01*
G01X0026079Y-009841D02*
G01X0026063Y-009828D01*
G01X0026063Y-009828D02*
G01X0026044Y-009820D01*
G01X0026044Y-009820D02*
G01X0026023Y-009820D01*
G01X0026023Y-009820D02*
G01X0025999Y-009832D01*
G01X0025999Y-009832D02*
G01X0025980Y-009853D01*
G01X0025980Y-009853D02*
G01X0025967Y-009878D01*
G01X0025967Y-009878D02*
G01X0025956Y-009920D01*
G01X0025956Y-009920D02*
G01X0025953Y-009957D01*
G01X0025953Y-009957D02*
G01X0025959Y-009995D01*
G01X0025959Y-009995D02*
G01X0025967Y-010020D01*
G01X0025967Y-010020D02*
G01X0025983Y-010045D01*
G01X0025983Y-010045D02*
G01X0026001Y-010062D01*
G01X0026001Y-010062D02*
G01X0026020Y-010070D01*
G01X0026020Y-010070D02*
G01X0026039Y-010070D01*
G01X0026039Y-010070D02*
G01X0026057Y-010062D01*
G01X0026057Y-010062D02*
G01X0026073Y-010049D01*
G01X0026073Y-010049D02*
G01X0026087Y-010032D01*
G01X0026240Y-010070D02*
G01X0026219Y-010066D01*
G01X0026219Y-010066D02*
G01X0026200Y-010049D01*
G01X0026200Y-010049D02*
G01X0026184Y-010024D01*
G01X0026184Y-010024D02*
G01X0026173Y-009995D01*
G01X0026173Y-009995D02*
G01X0026168Y-009962D01*
G01X0026168Y-009962D02*
G01X0026168Y-009928D01*
G01X0026168Y-009928D02*
G01X0026173Y-009895D01*
G01X0026173Y-009895D02*
G01X0026184Y-009866D01*
G01X0026184Y-009866D02*
G01X0026200Y-009841D01*
G01X0026200Y-009841D02*
G01X0026219Y-009824D01*
G01X0026219Y-009824D02*
G01X0026240Y-009820D01*
G01X0026240Y-009820D02*
G01X0026261Y-009824D01*
G01X0026261Y-009824D02*
G01X0026280Y-009841D01*
G01X0026280Y-009841D02*
G01X0026296Y-009866D01*
G01X0026296Y-009866D02*
G01X0026307Y-009895D01*
G01X0026307Y-009895D02*
G01X0026312Y-009928D01*
G01X0026312Y-009928D02*
G01X0026312Y-009962D01*
G01X0026312Y-009962D02*
G01X0026307Y-009995D01*
G01X0026307Y-009995D02*
G01X0026296Y-010024D01*
G01X0026296Y-010024D02*
G01X0026280Y-010049D01*
G01X0026280Y-010049D02*
G01X0026261Y-010066D01*
G01X0026261Y-010066D02*
G01X0026240Y-010070D01*
G01X0026399Y-010070D02*
G01X0026399Y-009820D01*
G01X0026399Y-009820D02*
G01X0026521Y-010070D01*
G01X0026521Y-010070D02*
G01X0026521Y-009820D01*
G01X0026621Y-010070D02*
G01X0026621Y-009820D01*
G01X0026621Y-009820D02*
G01X0026675Y-009820D01*
G01X0026675Y-009820D02*
G01X0026696Y-009832D01*
G01X0026696Y-009832D02*
G01X0026712Y-009849D01*
G01X0026712Y-009849D02*
G01X0026725Y-009874D01*
G01X0026725Y-009874D02*
G01X0026736Y-009903D01*
G01X0026736Y-009903D02*
G01X0026739Y-009945D01*
G01X0026739Y-009945D02*
G01X0026736Y-009987D01*
G01X0026736Y-009987D02*
G01X0026725Y-010016D01*
G01X0026725Y-010016D02*
G01X0026712Y-010041D01*
G01X0026712Y-010041D02*
G01X0026696Y-010057D01*
G01X0026696Y-010057D02*
G01X0026675Y-010070D01*
G01X0026675Y-010070D02*
G01X0026621Y-010070D01*
G01X0026841Y-009820D02*
G01X0026841Y-009999D01*
G01X0026841Y-009999D02*
G01X0026852Y-010037D01*
G01X0026852Y-010037D02*
G01X0026873Y-010062D01*
G01X0026873Y-010062D02*
G01X0026900Y-010070D01*
G01X0026900Y-010070D02*
G01X0026927Y-010062D01*
G01X0026927Y-010062D02*
G01X0026948Y-010037D01*
G01X0026948Y-010037D02*
G01X0026959Y-009999D01*
G01X0026959Y-009999D02*
G01X0026959Y-009820D01*
G01X0027179Y-009841D02*
G01X0027163Y-009828D01*
G01X0027163Y-009828D02*
G01X0027144Y-009820D01*
G01X0027144Y-009820D02*
G01X0027123Y-009820D01*
G01X0027123Y-009820D02*
G01X0027099Y-009832D01*
G01X0027099Y-009832D02*
G01X0027080Y-009853D01*
G01X0027080Y-009853D02*
G01X0027067Y-009878D01*
G01X0027067Y-009878D02*
G01X0027056Y-009920D01*
G01X0027056Y-009920D02*
G01X0027053Y-009957D01*
G01X0027053Y-009957D02*
G01X0027059Y-009995D01*
G01X0027059Y-009995D02*
G01X0027067Y-010020D01*
G01X0027067Y-010020D02*
G01X0027083Y-010045D01*
G01X0027083Y-010045D02*
G01X0027101Y-010062D01*
G01X0027101Y-010062D02*
G01X0027120Y-010070D01*
G01X0027120Y-010070D02*
G01X0027139Y-010070D01*
G01X0027139Y-010070D02*
G01X0027157Y-010062D01*
G01X0027157Y-010062D02*
G01X0027173Y-010049D01*
G01X0027173Y-010049D02*
G01X0027187Y-010032D01*
G01X0027340Y-009820D02*
G01X0027340Y-010070D01*
G01X0027279Y-009820D02*
G01X0027401Y-009820D01*
G01X0027560Y-010070D02*
G01X0027539Y-010066D01*
G01X0027539Y-010066D02*
G01X0027520Y-010049D01*
G01X0027520Y-010049D02*
G01X0027504Y-010024D01*
G01X0027504Y-010024D02*
G01X0027493Y-009995D01*
G01X0027493Y-009995D02*
G01X0027488Y-009962D01*
G01X0027488Y-009962D02*
G01X0027488Y-009928D01*
G01X0027488Y-009928D02*
G01X0027493Y-009895D01*
G01X0027493Y-009895D02*
G01X0027504Y-009866D01*
G01X0027504Y-009866D02*
G01X0027520Y-009841D01*
G01X0027520Y-009841D02*
G01X0027539Y-009824D01*
G01X0027539Y-009824D02*
G01X0027560Y-009820D01*
G01X0027560Y-009820D02*
G01X0027581Y-009824D01*
G01X0027581Y-009824D02*
G01X0027600Y-009841D01*
G01X0027600Y-009841D02*
G01X0027616Y-009866D01*
G01X0027616Y-009866D02*
G01X0027627Y-009895D01*
G01X0027627Y-009895D02*
G01X0027632Y-009928D01*
G01X0027632Y-009928D02*
G01X0027632Y-009962D01*
G01X0027632Y-009962D02*
G01X0027627Y-009995D01*
G01X0027627Y-009995D02*
G01X0027616Y-010024D01*
G01X0027616Y-010024D02*
G01X0027600Y-010049D01*
G01X0027600Y-010049D02*
G01X0027581Y-010066D01*
G01X0027581Y-010066D02*
G01X0027560Y-010070D01*
G01X0027727Y-010070D02*
G01X0027727Y-009820D01*
G01X0027727Y-009820D02*
G01X0027793Y-009820D01*
G01X0027793Y-009820D02*
G01X0027815Y-009832D01*
G01X0027815Y-009832D02*
G01X0027828Y-009849D01*
G01X0027828Y-009849D02*
G01X0027833Y-009882D01*
G01X0027833Y-009882D02*
G01X0027828Y-009916D01*
G01X0027828Y-009916D02*
G01X0027812Y-009937D01*
G01X0027812Y-009937D02*
G01X0027793Y-009949D01*
G01X0027793Y-009949D02*
G01X0027727Y-009949D01*
G01X0027793Y-009949D02*
G01X0027833Y-010070D01*
G01X0028185Y-009987D02*
G01X0028255Y-009987D01*
G01X0028719Y-009841D02*
G01X0028703Y-009828D01*
G01X0028703Y-009828D02*
G01X0028684Y-009820D01*
G01X0028684Y-009820D02*
G01X0028663Y-009820D01*
G01X0028663Y-009820D02*
G01X0028639Y-009832D01*
G01X0028639Y-009832D02*
G01X0028620Y-009853D01*
G01X0028620Y-009853D02*
G01X0028607Y-009878D01*
G01X0028607Y-009878D02*
G01X0028596Y-009920D01*
G01X0028596Y-009920D02*
G01X0028593Y-009957D01*
G01X0028593Y-009957D02*
G01X0028599Y-009995D01*
G01X0028599Y-009995D02*
G01X0028607Y-010020D01*
G01X0028607Y-010020D02*
G01X0028623Y-010045D01*
G01X0028623Y-010045D02*
G01X0028641Y-010062D01*
G01X0028641Y-010062D02*
G01X0028660Y-010070D01*
G01X0028660Y-010070D02*
G01X0028679Y-010070D01*
G01X0028679Y-010070D02*
G01X0028697Y-010062D01*
G01X0028697Y-010062D02*
G01X0028713Y-010049D01*
G01X0028713Y-010049D02*
G01X0028727Y-010032D01*
G01X0028880Y-010070D02*
G01X0028859Y-010066D01*
G01X0028859Y-010066D02*
G01X0028840Y-010049D01*
G01X0028840Y-010049D02*
G01X0028824Y-010024D01*
G01X0028824Y-010024D02*
G01X0028813Y-009995D01*
G01X0028813Y-009995D02*
G01X0028808Y-009962D01*
G01X0028808Y-009962D02*
G01X0028808Y-009928D01*
G01X0028808Y-009928D02*
G01X0028813Y-009895D01*
G01X0028813Y-009895D02*
G01X0028824Y-009866D01*
G01X0028824Y-009866D02*
G01X0028840Y-009841D01*
G01X0028840Y-009841D02*
G01X0028859Y-009824D01*
G01X0028859Y-009824D02*
G01X0028880Y-009820D01*
G01X0028880Y-009820D02*
G01X0028901Y-009824D01*
G01X0028901Y-009824D02*
G01X0028920Y-009841D01*
G01X0028920Y-009841D02*
G01X0028936Y-009866D01*
G01X0028936Y-009866D02*
G01X0028947Y-009895D01*
G01X0028947Y-009895D02*
G01X0028952Y-009928D01*
G01X0028952Y-009928D02*
G01X0028952Y-009962D01*
G01X0028952Y-009962D02*
G01X0028947Y-009995D01*
G01X0028947Y-009995D02*
G01X0028936Y-010024D01*
G01X0028936Y-010024D02*
G01X0028920Y-010049D01*
G01X0028920Y-010049D02*
G01X0028901Y-010066D01*
G01X0028901Y-010066D02*
G01X0028880Y-010070D01*
G01X0029047Y-010070D02*
G01X0029047Y-009820D01*
G01X0029047Y-009820D02*
G01X0029111Y-009820D01*
G01X0029111Y-009820D02*
G01X0029132Y-009832D01*
G01X0029132Y-009832D02*
G01X0029148Y-009862D01*
G01X0029148Y-009862D02*
G01X0029153Y-009895D01*
G01X0029153Y-009895D02*
G01X0029148Y-009928D01*
G01X0029148Y-009928D02*
G01X0029135Y-009953D01*
G01X0029135Y-009953D02*
G01X0029111Y-009966D01*
G01X0029111Y-009966D02*
G01X0029047Y-009966D01*
G01X0029267Y-010070D02*
G01X0029267Y-009820D01*
G01X0029267Y-009820D02*
G01X0029331Y-009820D01*
G01X0029331Y-009820D02*
G01X0029352Y-009832D01*
G01X0029352Y-009832D02*
G01X0029368Y-009862D01*
G01X0029368Y-009862D02*
G01X0029373Y-009895D01*
G01X0029373Y-009895D02*
G01X0029368Y-009928D01*
G01X0029368Y-009928D02*
G01X0029355Y-009953D01*
G01X0029355Y-009953D02*
G01X0029331Y-009966D01*
G01X0029331Y-009966D02*
G01X0029267Y-009966D01*
G01X0029593Y-010070D02*
G01X0029487Y-010070D01*
G01X0029487Y-010070D02*
G01X0029487Y-009820D01*
G01X0029487Y-009820D02*
G01X0029593Y-009820D01*
G01X0029551Y-009941D02*
G01X0029487Y-009941D01*
G01X0029707Y-010070D02*
G01X0029707Y-009820D01*
G01X0029707Y-009820D02*
G01X0029773Y-009820D01*
G01X0029773Y-009820D02*
G01X0029795Y-009832D01*
G01X0029795Y-009832D02*
G01X0029808Y-009849D01*
G01X0029808Y-009849D02*
G01X0029813Y-009882D01*
G01X0029813Y-009882D02*
G01X0029808Y-009916D01*
G01X0029808Y-009916D02*
G01X0029792Y-009937D01*
G01X0029792Y-009937D02*
G01X0029773Y-009949D01*
G01X0029773Y-009949D02*
G01X0029707Y-009949D01*
G01X0029773Y-009949D02*
G01X0029813Y-010070D01*
G01X0030200Y-009820D02*
G01X0030179Y-009828D01*
G01X0030179Y-009828D02*
G01X0030163Y-009849D01*
G01X0030163Y-009849D02*
G01X0030152Y-009874D01*
G01X0030152Y-009874D02*
G01X0030144Y-009907D01*
G01X0030144Y-009907D02*
G01X0030141Y-009945D01*
G01X0030141Y-009945D02*
G01X0030144Y-009982D01*
G01X0030144Y-009982D02*
G01X0030152Y-010016D01*
G01X0030152Y-010016D02*
G01X0030163Y-010041D01*
G01X0030163Y-010041D02*
G01X0030179Y-010062D01*
G01X0030179Y-010062D02*
G01X0030200Y-010070D01*
G01X0030200Y-010070D02*
G01X0030221Y-010062D01*
G01X0030221Y-010062D02*
G01X0030237Y-010041D01*
G01X0030237Y-010041D02*
G01X0030248Y-010016D01*
G01X0030248Y-010016D02*
G01X0030256Y-009982D01*
G01X0030256Y-009982D02*
G01X0030259Y-009945D01*
G01X0030259Y-009945D02*
G01X0030256Y-009907D01*
G01X0030256Y-009907D02*
G01X0030248Y-009874D01*
G01X0030248Y-009874D02*
G01X0030237Y-009849D01*
G01X0030237Y-009849D02*
G01X0030221Y-009828D01*
G01X0030221Y-009828D02*
G01X0030200Y-009820D01*
G01X0030420Y-010078D02*
G01X0030415Y-010074D01*
G01X0030415Y-010074D02*
G01X0030415Y-010066D01*
G01X0030415Y-010066D02*
G01X0030420Y-010062D01*
G01X0030420Y-010062D02*
G01X0030425Y-010066D01*
G01X0030425Y-010066D02*
G01X0030425Y-010074D01*
G01X0030425Y-010074D02*
G01X0030420Y-010078D01*
G01X0030635Y-010070D02*
G01X0030640Y-010016D01*
G01X0030640Y-010016D02*
G01X0030648Y-009970D01*
G01X0030648Y-009970D02*
G01X0030659Y-009928D01*
G01X0030659Y-009928D02*
G01X0030672Y-009882D01*
G01X0030672Y-009882D02*
G01X0030693Y-009820D01*
G01X0030693Y-009820D02*
G01X0030587Y-009820D01*
G01X0030860Y-009820D02*
G01X0030839Y-009828D01*
G01X0030839Y-009828D02*
G01X0030823Y-009849D01*
G01X0030823Y-009849D02*
G01X0030812Y-009874D01*
G01X0030812Y-009874D02*
G01X0030804Y-009907D01*
G01X0030804Y-009907D02*
G01X0030801Y-009945D01*
G01X0030801Y-009945D02*
G01X0030804Y-009982D01*
G01X0030804Y-009982D02*
G01X0030812Y-010016D01*
G01X0030812Y-010016D02*
G01X0030823Y-010041D01*
G01X0030823Y-010041D02*
G01X0030839Y-010062D01*
G01X0030839Y-010062D02*
G01X0030860Y-010070D01*
G01X0030860Y-010070D02*
G01X0030881Y-010062D01*
G01X0030881Y-010062D02*
G01X0030897Y-010041D01*
G01X0030897Y-010041D02*
G01X0030908Y-010016D01*
G01X0030908Y-010016D02*
G01X0030916Y-009982D01*
G01X0030916Y-009982D02*
G01X0030919Y-009945D01*
G01X0030919Y-009945D02*
G01X0030916Y-009907D01*
G01X0030916Y-009907D02*
G01X0030908Y-009874D01*
G01X0030908Y-009874D02*
G01X0030897Y-009849D01*
G01X0030897Y-009849D02*
G01X0030881Y-009828D01*
G01X0030881Y-009828D02*
G01X0030860Y-009820D01*
G01X0031035Y-010041D02*
G01X0031053Y-010062D01*
G01X0031053Y-010062D02*
G01X0031075Y-010070D01*
G01X0031075Y-010070D02*
G01X0031096Y-010062D01*
G01X0031096Y-010062D02*
G01X0031115Y-010037D01*
G01X0031115Y-010037D02*
G01X0031128Y-009999D01*
G01X0031128Y-009999D02*
G01X0031133Y-009962D01*
G01X0031133Y-009962D02*
G01X0031133Y-009916D01*
G01X0031133Y-009916D02*
G01X0031128Y-009878D01*
G01X0031128Y-009878D02*
G01X0031115Y-009845D01*
G01X0031115Y-009845D02*
G01X0031099Y-009828D01*
G01X0031099Y-009828D02*
G01X0031080Y-009820D01*
G01X0031080Y-009820D02*
G01X0031059Y-009828D01*
G01X0031059Y-009828D02*
G01X0031043Y-009845D01*
G01X0031043Y-009845D02*
G01X0031032Y-009870D01*
G01X0031032Y-009870D02*
G01X0031027Y-009903D01*
G01X0031027Y-009903D02*
G01X0031032Y-009932D01*
G01X0031032Y-009932D02*
G01X0031045Y-009962D01*
G01X0031045Y-009962D02*
G01X0031061Y-009978D01*
G01X0031061Y-009978D02*
G01X0031080Y-009982D01*
G01X0031080Y-009982D02*
G01X0031101Y-009974D01*
G01X0031101Y-009974D02*
G01X0031117Y-009953D01*
G01X0031117Y-009953D02*
G01X0031133Y-009916D01*
G01X0031451Y-010070D02*
G01X0031451Y-009820D01*
G01X0031451Y-009820D02*
G01X0031520Y-010028D01*
G01X0031520Y-010028D02*
G01X0031589Y-009820D01*
G01X0031589Y-009820D02*
G01X0031589Y-010070D01*
G01X0031708Y-009820D02*
G01X0031772Y-009820D01*
G01X0031740Y-009820D02*
G01X0031740Y-010070D01*
G01X0031708Y-010070D02*
G01X0031772Y-010070D01*
G01X0031907Y-009820D02*
G01X0031907Y-010070D01*
G01X0031907Y-010070D02*
G01X0032013Y-010070D01*
G01X0023981Y-010412D02*
G01X0024099Y-010228D01*
G01X0024040Y-010195D02*
G01X0024040Y-010445D01*
G01X0024099Y-010412D02*
G01X0023981Y-010228D01*
G01X0023960Y-010320D02*
G01X0024120Y-010320D01*
G01X0024644Y-010370D02*
G01X0024665Y-010391D01*
G01X0024665Y-010391D02*
G01X0024689Y-010403D01*
G01X0024689Y-010403D02*
G01X0024711Y-010403D01*
G01X0024711Y-010403D02*
G01X0024732Y-010391D01*
G01X0024732Y-010391D02*
G01X0024748Y-010370D01*
G01X0024748Y-010370D02*
G01X0024756Y-010341D01*
G01X0024756Y-010341D02*
G01X0024751Y-010312D01*
G01X0024751Y-010312D02*
G01X0024737Y-010287D01*
G01X0024737Y-010287D02*
G01X0024713Y-010270D01*
G01X0024713Y-010270D02*
G01X0024681Y-010262D01*
G01X0024681Y-010262D02*
G01X0024663Y-010245D01*
G01X0024663Y-010245D02*
G01X0024655Y-010216D01*
G01X0024655Y-010216D02*
G01X0024660Y-010187D01*
G01X0024660Y-010187D02*
G01X0024673Y-010166D01*
G01X0024673Y-010166D02*
G01X0024692Y-010153D01*
G01X0024692Y-010153D02*
G01X0024711Y-010153D01*
G01X0024711Y-010153D02*
G01X0024729Y-010162D01*
G01X0024729Y-010162D02*
G01X0024745Y-010183D01*
G01X0024861Y-010153D02*
G01X0024861Y-010332D01*
G01X0024861Y-010332D02*
G01X0024872Y-010370D01*
G01X0024872Y-010370D02*
G01X0024893Y-010395D01*
G01X0024893Y-010395D02*
G01X0024920Y-010403D01*
G01X0024920Y-010403D02*
G01X0024947Y-010395D01*
G01X0024947Y-010395D02*
G01X0024968Y-010370D01*
G01X0024968Y-010370D02*
G01X0024979Y-010332D01*
G01X0024979Y-010332D02*
G01X0024979Y-010153D01*
G01X0025087Y-010403D02*
G01X0025087Y-010153D01*
G01X0025087Y-010153D02*
G01X0025153Y-010153D01*
G01X0025153Y-010153D02*
G01X0025175Y-010166D01*
G01X0025175Y-010166D02*
G01X0025188Y-010183D01*
G01X0025188Y-010183D02*
G01X0025193Y-010216D01*
G01X0025193Y-010216D02*
G01X0025188Y-010249D01*
G01X0025188Y-010249D02*
G01X0025172Y-010270D01*
G01X0025172Y-010270D02*
G01X0025153Y-010283D01*
G01X0025153Y-010283D02*
G01X0025087Y-010283D01*
G01X0025153Y-010283D02*
G01X0025193Y-010403D01*
G01X0025309Y-010403D02*
G01X0025309Y-010153D01*
G01X0025309Y-010153D02*
G01X0025411Y-010153D01*
G01X0025373Y-010274D02*
G01X0025309Y-010274D01*
G01X0025513Y-010403D02*
G01X0025580Y-010153D01*
G01X0025580Y-010153D02*
G01X0025647Y-010403D01*
G01X0025623Y-010316D02*
G01X0025537Y-010316D01*
G01X0025859Y-010174D02*
G01X0025843Y-010162D01*
G01X0025843Y-010162D02*
G01X0025824Y-010153D01*
G01X0025824Y-010153D02*
G01X0025803Y-010153D01*
G01X0025803Y-010153D02*
G01X0025779Y-010166D01*
G01X0025779Y-010166D02*
G01X0025760Y-010187D01*
G01X0025760Y-010187D02*
G01X0025747Y-010212D01*
G01X0025747Y-010212D02*
G01X0025736Y-010253D01*
G01X0025736Y-010253D02*
G01X0025733Y-010291D01*
G01X0025733Y-010291D02*
G01X0025739Y-010328D01*
G01X0025739Y-010328D02*
G01X0025747Y-010353D01*
G01X0025747Y-010353D02*
G01X0025763Y-010378D01*
G01X0025763Y-010378D02*
G01X0025781Y-010395D01*
G01X0025781Y-010395D02*
G01X0025800Y-010403D01*
G01X0025800Y-010403D02*
G01X0025819Y-010403D01*
G01X0025819Y-010403D02*
G01X0025837Y-010395D01*
G01X0025837Y-010395D02*
G01X0025853Y-010382D01*
G01X0025853Y-010382D02*
G01X0025867Y-010366D01*
G01X0026073Y-010403D02*
G01X0025967Y-010403D01*
G01X0025967Y-010403D02*
G01X0025967Y-010153D01*
G01X0025967Y-010153D02*
G01X0026073Y-010153D01*
G01X0026031Y-010274D02*
G01X0025967Y-010274D01*
G01X0026425Y-010320D02*
G01X0026495Y-010320D01*
G01X0026833Y-010403D02*
G01X0026900Y-010153D01*
G01X0026900Y-010153D02*
G01X0026967Y-010403D01*
G01X0026943Y-010316D02*
G01X0026857Y-010316D01*
G01X0027088Y-010153D02*
G01X0027152Y-010153D01*
G01X0027120Y-010153D02*
G01X0027120Y-010403D01*
G01X0027088Y-010403D02*
G01X0027152Y-010403D01*
G01X0027287Y-010403D02*
G01X0027287Y-010153D01*
G01X0027287Y-010153D02*
G01X0027353Y-010153D01*
G01X0027353Y-010153D02*
G01X0027375Y-010166D01*
G01X0027375Y-010166D02*
G01X0027388Y-010183D01*
G01X0027388Y-010183D02*
G01X0027393Y-010216D01*
G01X0027393Y-010216D02*
G01X0027388Y-010249D01*
G01X0027388Y-010249D02*
G01X0027372Y-010270D01*
G01X0027372Y-010270D02*
G01X0027353Y-010283D01*
G01X0027353Y-010283D02*
G01X0027287Y-010283D01*
G01X0027353Y-010283D02*
G01X0027393Y-010403D01*
G01X0027780Y-010153D02*
G01X0027759Y-010162D01*
G01X0027759Y-010162D02*
G01X0027743Y-010183D01*
G01X0027743Y-010183D02*
G01X0027732Y-010207D01*
G01X0027732Y-010207D02*
G01X0027724Y-010241D01*
G01X0027724Y-010241D02*
G01X0027721Y-010278D01*
G01X0027721Y-010278D02*
G01X0027724Y-010316D01*
G01X0027724Y-010316D02*
G01X0027732Y-010349D01*
G01X0027732Y-010349D02*
G01X0027743Y-010374D01*
G01X0027743Y-010374D02*
G01X0027759Y-010395D01*
G01X0027759Y-010395D02*
G01X0027780Y-010403D01*
G01X0027780Y-010403D02*
G01X0027801Y-010395D01*
G01X0027801Y-010395D02*
G01X0027817Y-010374D01*
G01X0027817Y-010374D02*
G01X0027828Y-010349D01*
G01X0027828Y-010349D02*
G01X0027836Y-010316D01*
G01X0027836Y-010316D02*
G01X0027839Y-010278D01*
G01X0027839Y-010278D02*
G01X0027836Y-010241D01*
G01X0027836Y-010241D02*
G01X0027828Y-010207D01*
G01X0027828Y-010207D02*
G01X0027817Y-010183D01*
G01X0027817Y-010183D02*
G01X0027801Y-010162D01*
G01X0027801Y-010162D02*
G01X0027780Y-010153D01*
G01X0028151Y-010403D02*
G01X0028151Y-010153D01*
G01X0028151Y-010153D02*
G01X0028220Y-010362D01*
G01X0028220Y-010362D02*
G01X0028289Y-010153D01*
G01X0028289Y-010153D02*
G01X0028289Y-010403D01*
G01X0028408Y-010153D02*
G01X0028472Y-010153D01*
G01X0028440Y-010153D02*
G01X0028440Y-010403D01*
G01X0028408Y-010403D02*
G01X0028472Y-010403D01*
G01X0028607Y-010153D02*
G01X0028607Y-010403D01*
G01X0028607Y-010403D02*
G01X0028713Y-010403D01*
G01X0023981Y-000001D02*
G01X0024099Y0000182D01*
G01X0024040Y0000216D02*
G01X0024040Y-000034D01*
G01X0024099Y-000001D02*
G01X0023981Y0000182D01*
G01X0023960Y0000091D02*
G01X0024120Y0000091D01*
G01X0024641Y0000007D02*
G01X0024641Y0000257D01*
G01X0024641Y0000257D02*
G01X0024695Y0000257D01*
G01X0024695Y0000257D02*
G01X0024716Y0000245D01*
G01X0024716Y0000245D02*
G01X0024732Y0000228D01*
G01X0024732Y0000228D02*
G01X0024745Y0000203D01*
G01X0024745Y0000203D02*
G01X0024756Y0000174D01*
G01X0024756Y0000174D02*
G01X0024759Y0000132D01*
G01X0024759Y0000132D02*
G01X0024756Y0000091D01*
G01X0024756Y0000091D02*
G01X0024745Y0000062D01*
G01X0024745Y0000062D02*
G01X0024732Y0000037D01*
G01X0024732Y0000037D02*
G01X0024716Y0000020D01*
G01X0024716Y0000020D02*
G01X0024695Y0000007D01*
G01X0024695Y0000007D02*
G01X0024641Y0000007D01*
G01X0024888Y0000257D02*
G01X0024952Y0000257D01*
G01X0024920Y0000257D02*
G01X0024920Y0000007D01*
G01X0024888Y0000007D02*
G01X0024952Y0000007D01*
G01X0025193Y0000007D02*
G01X0025087Y0000007D01*
G01X0025087Y0000007D02*
G01X0025087Y0000257D01*
G01X0025087Y0000257D02*
G01X0025193Y0000257D01*
G01X0025151Y0000137D02*
G01X0025087Y0000137D01*
G01X0025307Y0000257D02*
G01X0025307Y0000007D01*
G01X0025307Y0000007D02*
G01X0025413Y0000007D01*
G01X0025633Y0000007D02*
G01X0025527Y0000007D01*
G01X0025527Y0000007D02*
G01X0025527Y0000257D01*
G01X0025527Y0000257D02*
G01X0025633Y0000257D01*
G01X0025591Y0000137D02*
G01X0025527Y0000137D01*
G01X0025859Y0000237D02*
G01X0025843Y0000249D01*
G01X0025843Y0000249D02*
G01X0025824Y0000257D01*
G01X0025824Y0000257D02*
G01X0025803Y0000257D01*
G01X0025803Y0000257D02*
G01X0025779Y0000245D01*
G01X0025779Y0000245D02*
G01X0025760Y0000224D01*
G01X0025760Y0000224D02*
G01X0025747Y0000199D01*
G01X0025747Y0000199D02*
G01X0025736Y0000157D01*
G01X0025736Y0000157D02*
G01X0025733Y0000120D01*
G01X0025733Y0000120D02*
G01X0025739Y0000082D01*
G01X0025739Y0000082D02*
G01X0025747Y0000057D01*
G01X0025747Y0000057D02*
G01X0025763Y0000032D01*
G01X0025763Y0000032D02*
G01X0025781Y0000016D01*
G01X0025781Y0000016D02*
G01X0025800Y0000007D01*
G01X0025800Y0000007D02*
G01X0025819Y0000007D01*
G01X0025819Y0000007D02*
G01X0025837Y0000016D01*
G01X0025837Y0000016D02*
G01X0025853Y0000028D01*
G01X0025853Y0000028D02*
G01X0025867Y0000045D01*
G01X0026020Y0000257D02*
G01X0026020Y0000007D01*
G01X0025959Y0000257D02*
G01X0026081Y0000257D01*
G01X0026187Y0000007D02*
G01X0026187Y0000257D01*
G01X0026187Y0000257D02*
G01X0026253Y0000257D01*
G01X0026253Y0000257D02*
G01X0026275Y0000245D01*
G01X0026275Y0000245D02*
G01X0026288Y0000228D01*
G01X0026288Y0000228D02*
G01X0026293Y0000195D01*
G01X0026293Y0000195D02*
G01X0026288Y0000162D01*
G01X0026288Y0000162D02*
G01X0026272Y0000141D01*
G01X0026272Y0000141D02*
G01X0026253Y0000128D01*
G01X0026253Y0000128D02*
G01X0026187Y0000128D01*
G01X0026253Y0000128D02*
G01X0026293Y0000007D01*
G01X0026428Y0000257D02*
G01X0026492Y0000257D01*
G01X0026460Y0000257D02*
G01X0026460Y0000007D01*
G01X0026428Y0000007D02*
G01X0026492Y0000007D01*
G01X0026739Y0000237D02*
G01X0026723Y0000249D01*
G01X0026723Y0000249D02*
G01X0026704Y0000257D01*
G01X0026704Y0000257D02*
G01X0026683Y0000257D01*
G01X0026683Y0000257D02*
G01X0026659Y0000245D01*
G01X0026659Y0000245D02*
G01X0026640Y0000224D01*
G01X0026640Y0000224D02*
G01X0026627Y0000199D01*
G01X0026627Y0000199D02*
G01X0026616Y0000157D01*
G01X0026616Y0000157D02*
G01X0026613Y0000120D01*
G01X0026613Y0000120D02*
G01X0026619Y0000082D01*
G01X0026619Y0000082D02*
G01X0026627Y0000057D01*
G01X0026627Y0000057D02*
G01X0026643Y0000032D01*
G01X0026643Y0000032D02*
G01X0026661Y0000016D01*
G01X0026661Y0000016D02*
G01X0026680Y0000007D01*
G01X0026680Y0000007D02*
G01X0026699Y0000007D01*
G01X0026699Y0000007D02*
G01X0026717Y0000016D01*
G01X0026717Y0000016D02*
G01X0026733Y0000028D01*
G01X0026733Y0000028D02*
G01X0026747Y0000045D01*
G01X0027085Y0000091D02*
G01X0027155Y0000091D01*
G01X0027509Y0000007D02*
G01X0027509Y0000257D01*
G01X0027509Y0000257D02*
G01X0027611Y0000257D01*
G01X0027573Y0000137D02*
G01X0027509Y0000137D01*
G01X0027727Y0000007D02*
G01X0027727Y0000257D01*
G01X0027727Y0000257D02*
G01X0027793Y0000257D01*
G01X0027793Y0000257D02*
G01X0027815Y0000245D01*
G01X0027815Y0000245D02*
G01X0027828Y0000228D01*
G01X0027828Y0000228D02*
G01X0027833Y0000195D01*
G01X0027833Y0000195D02*
G01X0027828Y0000162D01*
G01X0027828Y0000162D02*
G01X0027812Y0000141D01*
G01X0027812Y0000141D02*
G01X0027793Y0000128D01*
G01X0027793Y0000128D02*
G01X0027727Y0000128D01*
G01X0027793Y0000128D02*
G01X0027833Y0000007D01*
G01X0027965Y0000091D02*
G01X0028035Y0000091D01*
G01X0028252Y0000007D02*
G01X0028252Y0000257D01*
G01X0028252Y0000257D02*
G01X0028153Y0000078D01*
G01X0028153Y0000078D02*
G01X0028287Y0000078D01*
G01X0028601Y0000045D02*
G01X0028617Y0000024D01*
G01X0028617Y0000024D02*
G01X0028636Y0000012D01*
G01X0028636Y0000012D02*
G01X0028660Y0000007D01*
G01X0028660Y0000007D02*
G01X0028684Y0000016D01*
G01X0028684Y0000016D02*
G01X0028703Y0000032D01*
G01X0028703Y0000032D02*
G01X0028716Y0000062D01*
G01X0028716Y0000062D02*
G01X0028719Y0000095D01*
G01X0028719Y0000095D02*
G01X0028713Y0000128D01*
G01X0028713Y0000128D02*
G01X0028700Y0000149D01*
G01X0028700Y0000149D02*
G01X0028681Y0000166D01*
G01X0028681Y0000166D02*
G01X0028663Y0000170D01*
G01X0028663Y0000170D02*
G01X0028644Y0000166D01*
G01X0028644Y0000166D02*
G01X0028620Y0000149D01*
G01X0028620Y0000149D02*
G01X0028628Y0000257D01*
G01X0028628Y0000257D02*
G01X0028700Y0000257D01*
G01X0028835Y0000037D02*
G01X0028853Y0000016D01*
G01X0028853Y0000016D02*
G01X0028875Y0000007D01*
G01X0028875Y0000007D02*
G01X0028896Y0000016D01*
G01X0028896Y0000016D02*
G01X0028915Y0000041D01*
G01X0028915Y0000041D02*
G01X0028928Y0000078D01*
G01X0028928Y0000078D02*
G01X0028933Y0000116D01*
G01X0028933Y0000116D02*
G01X0028933Y0000162D01*
G01X0028933Y0000162D02*
G01X0028928Y0000199D01*
G01X0028928Y0000199D02*
G01X0028915Y0000232D01*
G01X0028915Y0000232D02*
G01X0028899Y0000249D01*
G01X0028899Y0000249D02*
G01X0028880Y0000257D01*
G01X0028880Y0000257D02*
G01X0028859Y0000249D01*
G01X0028859Y0000249D02*
G01X0028843Y0000232D01*
G01X0028843Y0000232D02*
G01X0028832Y0000207D01*
G01X0028832Y0000207D02*
G01X0028827Y0000174D01*
G01X0028827Y0000174D02*
G01X0028832Y0000145D01*
G01X0028832Y0000145D02*
G01X0028845Y0000116D01*
G01X0028845Y0000116D02*
G01X0028861Y0000099D01*
G01X0028861Y0000099D02*
G01X0028880Y0000095D01*
G01X0028880Y0000095D02*
G01X0028901Y0000103D01*
G01X0028901Y0000103D02*
G01X0028917Y0000124D01*
G01X0028917Y0000124D02*
G01X0028933Y0000162D01*
G01X0029100Y-000001D02*
G01X0029095Y0000003D01*
G01X0029095Y0000003D02*
G01X0029095Y0000012D01*
G01X0029095Y0000012D02*
G01X0029100Y0000016D01*
G01X0029100Y0000016D02*
G01X0029105Y0000012D01*
G01X0029105Y0000012D02*
G01X0029105Y0000003D01*
G01X0029105Y0000003D02*
G01X0029100Y-000001D01*
G01X0029320Y0000257D02*
G01X0029299Y0000249D01*
G01X0029299Y0000249D02*
G01X0029283Y0000228D01*
G01X0029283Y0000228D02*
G01X0029272Y0000203D01*
G01X0029272Y0000203D02*
G01X0029264Y0000170D01*
G01X0029264Y0000170D02*
G01X0029261Y0000132D01*
G01X0029261Y0000132D02*
G01X0029264Y0000095D01*
G01X0029264Y0000095D02*
G01X0029272Y0000062D01*
G01X0029272Y0000062D02*
G01X0029283Y0000037D01*
G01X0029283Y0000037D02*
G01X0029299Y0000016D01*
G01X0029299Y0000016D02*
G01X0029320Y0000007D01*
G01X0029320Y0000007D02*
G01X0029341Y0000016D01*
G01X0029341Y0000016D02*
G01X0029357Y0000037D01*
G01X0029357Y0000037D02*
G01X0029368Y0000062D01*
G01X0029368Y0000062D02*
G01X0029376Y0000095D01*
G01X0029376Y0000095D02*
G01X0029379Y0000132D01*
G01X0029379Y0000132D02*
G01X0029376Y0000170D01*
G01X0029376Y0000170D02*
G01X0029368Y0000203D01*
G01X0029368Y0000203D02*
G01X0029357Y0000228D01*
G01X0029357Y0000228D02*
G01X0029341Y0000249D01*
G01X0029341Y0000249D02*
G01X0029320Y0000257D01*
G01X0029481Y0000045D02*
G01X0029497Y0000024D01*
G01X0029497Y0000024D02*
G01X0029516Y0000012D01*
G01X0029516Y0000012D02*
G01X0029540Y0000007D01*
G01X0029540Y0000007D02*
G01X0029564Y0000016D01*
G01X0029564Y0000016D02*
G01X0029583Y0000032D01*
G01X0029583Y0000032D02*
G01X0029596Y0000062D01*
G01X0029596Y0000062D02*
G01X0029599Y0000095D01*
G01X0029599Y0000095D02*
G01X0029593Y0000128D01*
G01X0029593Y0000128D02*
G01X0029580Y0000149D01*
G01X0029580Y0000149D02*
G01X0029561Y0000166D01*
G01X0029561Y0000166D02*
G01X0029543Y0000170D01*
G01X0029543Y0000170D02*
G01X0029524Y0000166D01*
G01X0029524Y0000166D02*
G01X0029500Y0000149D01*
G01X0029500Y0000149D02*
G01X0029508Y0000257D01*
G01X0029508Y0000257D02*
G01X0029580Y0000257D01*
G01X0029701Y0000045D02*
G01X0029717Y0000024D01*
G01X0029717Y0000024D02*
G01X0029736Y0000012D01*
G01X0029736Y0000012D02*
G01X0029760Y0000007D01*
G01X0029760Y0000007D02*
G01X0029784Y0000016D01*
G01X0029784Y0000016D02*
G01X0029803Y0000032D01*
G01X0029803Y0000032D02*
G01X0029816Y0000062D01*
G01X0029816Y0000062D02*
G01X0029819Y0000095D01*
G01X0029819Y0000095D02*
G01X0029813Y0000128D01*
G01X0029813Y0000128D02*
G01X0029800Y0000149D01*
G01X0029800Y0000149D02*
G01X0029781Y0000166D01*
G01X0029781Y0000166D02*
G01X0029763Y0000170D01*
G01X0029763Y0000170D02*
G01X0029744Y0000166D01*
G01X0029744Y0000166D02*
G01X0029720Y0000149D01*
G01X0029720Y0000149D02*
G01X0029728Y0000257D01*
G01X0029728Y0000257D02*
G01X0029800Y0000257D01*
G01X0030131Y0000007D02*
G01X0030131Y0000257D01*
G01X0030131Y0000257D02*
G01X0030200Y0000049D01*
G01X0030200Y0000049D02*
G01X0030269Y0000257D01*
G01X0030269Y0000257D02*
G01X0030269Y0000007D01*
G01X0030388Y0000257D02*
G01X0030452Y0000257D01*
G01X0030420Y0000257D02*
G01X0030420Y0000007D01*
G01X0030388Y0000007D02*
G01X0030452Y0000007D01*
G01X0030587Y0000257D02*
G01X0030587Y0000007D01*
G01X0030587Y0000007D02*
G01X0030693Y0000007D01*
G01X0023981Y0010060D02*
G01X0024099Y0010244D01*
G01X0024040Y0010277D02*
G01X0024040Y0010027D01*
G01X0024099Y0010060D02*
G01X0023981Y0010244D01*
G01X0023960Y0010152D02*
G01X0024120Y0010152D01*
G01X0024644Y0010102D02*
G01X0024665Y0010081D01*
G01X0024665Y0010081D02*
G01X0024689Y0010069D01*
G01X0024689Y0010069D02*
G01X0024711Y0010069D01*
G01X0024711Y0010069D02*
G01X0024732Y0010081D01*
G01X0024732Y0010081D02*
G01X0024748Y0010102D01*
G01X0024748Y0010102D02*
G01X0024756Y0010131D01*
G01X0024756Y0010131D02*
G01X0024751Y0010160D01*
G01X0024751Y0010160D02*
G01X0024737Y0010185D01*
G01X0024737Y0010185D02*
G01X0024713Y0010202D01*
G01X0024713Y0010202D02*
G01X0024681Y0010210D01*
G01X0024681Y0010210D02*
G01X0024663Y0010227D01*
G01X0024663Y0010227D02*
G01X0024655Y0010256D01*
G01X0024655Y0010256D02*
G01X0024660Y0010285D01*
G01X0024660Y0010285D02*
G01X0024673Y0010306D01*
G01X0024673Y0010306D02*
G01X0024692Y0010319D01*
G01X0024692Y0010319D02*
G01X0024711Y0010319D01*
G01X0024711Y0010319D02*
G01X0024729Y0010310D01*
G01X0024729Y0010310D02*
G01X0024745Y0010290D01*
G01X0024861Y0010319D02*
G01X0024861Y0010140D01*
G01X0024861Y0010140D02*
G01X0024872Y0010102D01*
G01X0024872Y0010102D02*
G01X0024893Y0010077D01*
G01X0024893Y0010077D02*
G01X0024920Y0010069D01*
G01X0024920Y0010069D02*
G01X0024947Y0010077D01*
G01X0024947Y0010077D02*
G01X0024968Y0010102D01*
G01X0024968Y0010102D02*
G01X0024979Y0010140D01*
G01X0024979Y0010140D02*
G01X0024979Y0010319D01*
G01X0025087Y0010069D02*
G01X0025087Y0010319D01*
G01X0025087Y0010319D02*
G01X0025153Y0010319D01*
G01X0025153Y0010319D02*
G01X0025175Y0010306D01*
G01X0025175Y0010306D02*
G01X0025188Y0010290D01*
G01X0025188Y0010290D02*
G01X0025193Y0010256D01*
G01X0025193Y0010256D02*
G01X0025188Y0010223D01*
G01X0025188Y0010223D02*
G01X0025172Y0010202D01*
G01X0025172Y0010202D02*
G01X0025153Y0010190D01*
G01X0025153Y0010190D02*
G01X0025087Y0010190D01*
G01X0025153Y0010190D02*
G01X0025193Y0010069D01*
G01X0025309Y0010069D02*
G01X0025309Y0010319D01*
G01X0025309Y0010319D02*
G01X0025411Y0010319D01*
G01X0025373Y0010198D02*
G01X0025309Y0010198D01*
G01X0025513Y0010069D02*
G01X0025580Y0010319D01*
G01X0025580Y0010319D02*
G01X0025647Y0010069D01*
G01X0025623Y0010156D02*
G01X0025537Y0010156D01*
G01X0025859Y0010298D02*
G01X0025843Y0010310D01*
G01X0025843Y0010310D02*
G01X0025824Y0010319D01*
G01X0025824Y0010319D02*
G01X0025803Y0010319D01*
G01X0025803Y0010319D02*
G01X0025779Y0010306D01*
G01X0025779Y0010306D02*
G01X0025760Y0010285D01*
G01X0025760Y0010285D02*
G01X0025747Y0010260D01*
G01X0025747Y0010260D02*
G01X0025736Y0010219D01*
G01X0025736Y0010219D02*
G01X0025733Y0010181D01*
G01X0025733Y0010181D02*
G01X0025739Y0010144D01*
G01X0025739Y0010144D02*
G01X0025747Y0010119D01*
G01X0025747Y0010119D02*
G01X0025763Y0010094D01*
G01X0025763Y0010094D02*
G01X0025781Y0010077D01*
G01X0025781Y0010077D02*
G01X0025800Y0010069D01*
G01X0025800Y0010069D02*
G01X0025819Y0010069D01*
G01X0025819Y0010069D02*
G01X0025837Y0010077D01*
G01X0025837Y0010077D02*
G01X0025853Y0010090D01*
G01X0025853Y0010090D02*
G01X0025867Y0010106D01*
G01X0026073Y0010069D02*
G01X0025967Y0010069D01*
G01X0025967Y0010069D02*
G01X0025967Y0010319D01*
G01X0025967Y0010319D02*
G01X0026073Y0010319D01*
G01X0026031Y0010198D02*
G01X0025967Y0010198D01*
G01X0026425Y0010152D02*
G01X0026495Y0010152D01*
G01X0026833Y0010069D02*
G01X0026900Y0010319D01*
G01X0026900Y0010319D02*
G01X0026967Y0010069D01*
G01X0026943Y0010156D02*
G01X0026857Y0010156D01*
G01X0027088Y0010319D02*
G01X0027152Y0010319D01*
G01X0027120Y0010319D02*
G01X0027120Y0010069D01*
G01X0027088Y0010069D02*
G01X0027152Y0010069D01*
G01X0027287Y0010069D02*
G01X0027287Y0010319D01*
G01X0027287Y0010319D02*
G01X0027353Y0010319D01*
G01X0027353Y0010319D02*
G01X0027375Y0010306D01*
G01X0027375Y0010306D02*
G01X0027388Y0010290D01*
G01X0027388Y0010290D02*
G01X0027393Y0010256D01*
G01X0027393Y0010256D02*
G01X0027388Y0010223D01*
G01X0027388Y0010223D02*
G01X0027372Y0010202D01*
G01X0027372Y0010202D02*
G01X0027353Y0010190D01*
G01X0027353Y0010190D02*
G01X0027287Y0010190D01*
G01X0027353Y0010190D02*
G01X0027393Y0010069D01*
G01X0027780Y0010319D02*
G01X0027759Y0010310D01*
G01X0027759Y0010310D02*
G01X0027743Y0010290D01*
G01X0027743Y0010290D02*
G01X0027732Y0010265D01*
G01X0027732Y0010265D02*
G01X0027724Y0010231D01*
G01X0027724Y0010231D02*
G01X0027721Y0010194D01*
G01X0027721Y0010194D02*
G01X0027724Y0010156D01*
G01X0027724Y0010156D02*
G01X0027732Y0010123D01*
G01X0027732Y0010123D02*
G01X0027743Y0010098D01*
G01X0027743Y0010098D02*
G01X0027759Y0010077D01*
G01X0027759Y0010077D02*
G01X0027780Y0010069D01*
G01X0027780Y0010069D02*
G01X0027801Y0010077D01*
G01X0027801Y0010077D02*
G01X0027817Y0010098D01*
G01X0027817Y0010098D02*
G01X0027828Y0010123D01*
G01X0027828Y0010123D02*
G01X0027836Y0010156D01*
G01X0027836Y0010156D02*
G01X0027839Y0010194D01*
G01X0027839Y0010194D02*
G01X0027836Y0010231D01*
G01X0027836Y0010231D02*
G01X0027828Y0010265D01*
G01X0027828Y0010265D02*
G01X0027817Y0010290D01*
G01X0027817Y0010290D02*
G01X0027801Y0010310D01*
G01X0027801Y0010310D02*
G01X0027780Y0010319D01*
G01X0028151Y0010069D02*
G01X0028151Y0010319D01*
G01X0028151Y0010319D02*
G01X0028220Y0010110D01*
G01X0028220Y0010110D02*
G01X0028289Y0010319D01*
G01X0028289Y0010319D02*
G01X0028289Y0010069D01*
G01X0028408Y0010319D02*
G01X0028472Y0010319D01*
G01X0028440Y0010319D02*
G01X0028440Y0010069D01*
G01X0028408Y0010069D02*
G01X0028472Y0010069D01*
G01X0028607Y0010319D02*
G01X0028607Y0010069D01*
G01X0028607Y0010069D02*
G01X0028713Y0010069D01*
G01X0023547Y0009902D02*
G01X0023547Y0009652D01*
G01X0023547Y0009652D02*
G01X0023653Y0009652D01*
G01X0023820Y0009652D02*
G01X0023820Y0009902D01*
G01X0023820Y0009902D02*
G01X0023788Y0009852D01*
G01X0023788Y0009652D02*
G01X0023852Y0009652D01*
G01X0024040Y0009644D02*
G01X0024035Y0009648D01*
G01X0024035Y0009648D02*
G01X0024035Y0009656D01*
G01X0024035Y0009656D02*
G01X0024040Y0009660D01*
G01X0024040Y0009660D02*
G01X0024045Y0009656D01*
G01X0024045Y0009656D02*
G01X0024045Y0009648D01*
G01X0024045Y0009648D02*
G01X0024040Y0009644D01*
G01X0024040Y0009756D02*
G01X0024035Y0009760D01*
G01X0024035Y0009760D02*
G01X0024035Y0009769D01*
G01X0024035Y0009769D02*
G01X0024040Y0009773D01*
G01X0024040Y0009773D02*
G01X0024045Y0009769D01*
G01X0024045Y0009769D02*
G01X0024045Y0009760D01*
G01X0024045Y0009760D02*
G01X0024040Y0009756D01*
G01X0024480Y0009902D02*
G01X0024480Y0009652D01*
G01X0024419Y0009902D02*
G01X0024541Y0009902D01*
G01X0024700Y0009652D02*
G01X0024679Y0009656D01*
G01X0024679Y0009656D02*
G01X0024660Y0009673D01*
G01X0024660Y0009673D02*
G01X0024644Y0009698D01*
G01X0024644Y0009698D02*
G01X0024633Y0009727D01*
G01X0024633Y0009727D02*
G01X0024628Y0009760D01*
G01X0024628Y0009760D02*
G01X0024628Y0009794D01*
G01X0024628Y0009794D02*
G01X0024633Y0009827D01*
G01X0024633Y0009827D02*
G01X0024644Y0009856D01*
G01X0024644Y0009856D02*
G01X0024660Y0009881D01*
G01X0024660Y0009881D02*
G01X0024679Y0009898D01*
G01X0024679Y0009898D02*
G01X0024700Y0009902D01*
G01X0024700Y0009902D02*
G01X0024721Y0009898D01*
G01X0024721Y0009898D02*
G01X0024740Y0009881D01*
G01X0024740Y0009881D02*
G01X0024756Y0009856D01*
G01X0024756Y0009856D02*
G01X0024767Y0009827D01*
G01X0024767Y0009827D02*
G01X0024772Y0009794D01*
G01X0024772Y0009794D02*
G01X0024772Y0009760D01*
G01X0024772Y0009760D02*
G01X0024767Y0009727D01*
G01X0024767Y0009727D02*
G01X0024756Y0009698D01*
G01X0024756Y0009698D02*
G01X0024740Y0009673D01*
G01X0024740Y0009673D02*
G01X0024721Y0009656D01*
G01X0024721Y0009656D02*
G01X0024700Y0009652D01*
G01X0024867Y0009652D02*
G01X0024867Y0009902D01*
G01X0024867Y0009902D02*
G01X0024931Y0009902D01*
G01X0024931Y0009902D02*
G01X0024952Y0009890D01*
G01X0024952Y0009890D02*
G01X0024968Y0009860D01*
G01X0024968Y0009860D02*
G01X0024973Y0009827D01*
G01X0024973Y0009827D02*
G01X0024968Y0009794D01*
G01X0024968Y0009794D02*
G01X0024955Y0009769D01*
G01X0024955Y0009769D02*
G01X0024931Y0009756D01*
G01X0024931Y0009756D02*
G01X0024867Y0009756D01*
G01X0025419Y0009881D02*
G01X0025403Y0009894D01*
G01X0025403Y0009894D02*
G01X0025384Y0009902D01*
G01X0025384Y0009902D02*
G01X0025363Y0009902D01*
G01X0025363Y0009902D02*
G01X0025339Y0009890D01*
G01X0025339Y0009890D02*
G01X0025320Y0009869D01*
G01X0025320Y0009869D02*
G01X0025307Y0009844D01*
G01X0025307Y0009844D02*
G01X0025296Y0009802D01*
G01X0025296Y0009802D02*
G01X0025293Y0009765D01*
G01X0025293Y0009765D02*
G01X0025299Y0009727D01*
G01X0025299Y0009727D02*
G01X0025307Y0009702D01*
G01X0025307Y0009702D02*
G01X0025323Y0009677D01*
G01X0025323Y0009677D02*
G01X0025341Y0009660D01*
G01X0025341Y0009660D02*
G01X0025360Y0009652D01*
G01X0025360Y0009652D02*
G01X0025379Y0009652D01*
G01X0025379Y0009652D02*
G01X0025397Y0009660D01*
G01X0025397Y0009660D02*
G01X0025413Y0009673D01*
G01X0025413Y0009673D02*
G01X0025427Y0009690D01*
G01X0025580Y0009652D02*
G01X0025559Y0009656D01*
G01X0025559Y0009656D02*
G01X0025540Y0009673D01*
G01X0025540Y0009673D02*
G01X0025524Y0009698D01*
G01X0025524Y0009698D02*
G01X0025513Y0009727D01*
G01X0025513Y0009727D02*
G01X0025508Y0009760D01*
G01X0025508Y0009760D02*
G01X0025508Y0009794D01*
G01X0025508Y0009794D02*
G01X0025513Y0009827D01*
G01X0025513Y0009827D02*
G01X0025524Y0009856D01*
G01X0025524Y0009856D02*
G01X0025540Y0009881D01*
G01X0025540Y0009881D02*
G01X0025559Y0009898D01*
G01X0025559Y0009898D02*
G01X0025580Y0009902D01*
G01X0025580Y0009902D02*
G01X0025601Y0009898D01*
G01X0025601Y0009898D02*
G01X0025620Y0009881D01*
G01X0025620Y0009881D02*
G01X0025636Y0009856D01*
G01X0025636Y0009856D02*
G01X0025647Y0009827D01*
G01X0025647Y0009827D02*
G01X0025652Y0009794D01*
G01X0025652Y0009794D02*
G01X0025652Y0009760D01*
G01X0025652Y0009760D02*
G01X0025647Y0009727D01*
G01X0025647Y0009727D02*
G01X0025636Y0009698D01*
G01X0025636Y0009698D02*
G01X0025620Y0009673D01*
G01X0025620Y0009673D02*
G01X0025601Y0009656D01*
G01X0025601Y0009656D02*
G01X0025580Y0009652D01*
G01X0025739Y0009652D02*
G01X0025739Y0009902D01*
G01X0025739Y0009902D02*
G01X0025861Y0009652D01*
G01X0025861Y0009652D02*
G01X0025861Y0009902D01*
G01X0025961Y0009652D02*
G01X0025961Y0009902D01*
G01X0025961Y0009902D02*
G01X0026015Y0009902D01*
G01X0026015Y0009902D02*
G01X0026036Y0009890D01*
G01X0026036Y0009890D02*
G01X0026052Y0009873D01*
G01X0026052Y0009873D02*
G01X0026065Y0009848D01*
G01X0026065Y0009848D02*
G01X0026076Y0009819D01*
G01X0026076Y0009819D02*
G01X0026079Y0009777D01*
G01X0026079Y0009777D02*
G01X0026076Y0009735D01*
G01X0026076Y0009735D02*
G01X0026065Y0009706D01*
G01X0026065Y0009706D02*
G01X0026052Y0009681D01*
G01X0026052Y0009681D02*
G01X0026036Y0009665D01*
G01X0026036Y0009665D02*
G01X0026015Y0009652D01*
G01X0026015Y0009652D02*
G01X0025961Y0009652D01*
G01X0026181Y0009902D02*
G01X0026181Y0009723D01*
G01X0026181Y0009723D02*
G01X0026192Y0009685D01*
G01X0026192Y0009685D02*
G01X0026213Y0009660D01*
G01X0026213Y0009660D02*
G01X0026240Y0009652D01*
G01X0026240Y0009652D02*
G01X0026267Y0009660D01*
G01X0026267Y0009660D02*
G01X0026288Y0009685D01*
G01X0026288Y0009685D02*
G01X0026299Y0009723D01*
G01X0026299Y0009723D02*
G01X0026299Y0009902D01*
G01X0026519Y0009881D02*
G01X0026503Y0009894D01*
G01X0026503Y0009894D02*
G01X0026484Y0009902D01*
G01X0026484Y0009902D02*
G01X0026463Y0009902D01*
G01X0026463Y0009902D02*
G01X0026439Y0009890D01*
G01X0026439Y0009890D02*
G01X0026420Y0009869D01*
G01X0026420Y0009869D02*
G01X0026407Y0009844D01*
G01X0026407Y0009844D02*
G01X0026396Y0009802D01*
G01X0026396Y0009802D02*
G01X0026393Y0009765D01*
G01X0026393Y0009765D02*
G01X0026399Y0009727D01*
G01X0026399Y0009727D02*
G01X0026407Y0009702D01*
G01X0026407Y0009702D02*
G01X0026423Y0009677D01*
G01X0026423Y0009677D02*
G01X0026441Y0009660D01*
G01X0026441Y0009660D02*
G01X0026460Y0009652D01*
G01X0026460Y0009652D02*
G01X0026479Y0009652D01*
G01X0026479Y0009652D02*
G01X0026497Y0009660D01*
G01X0026497Y0009660D02*
G01X0026513Y0009673D01*
G01X0026513Y0009673D02*
G01X0026527Y0009690D01*
G01X0026680Y0009902D02*
G01X0026680Y0009652D01*
G01X0026619Y0009902D02*
G01X0026741Y0009902D01*
G01X0026900Y0009652D02*
G01X0026879Y0009656D01*
G01X0026879Y0009656D02*
G01X0026860Y0009673D01*
G01X0026860Y0009673D02*
G01X0026844Y0009698D01*
G01X0026844Y0009698D02*
G01X0026833Y0009727D01*
G01X0026833Y0009727D02*
G01X0026828Y0009760D01*
G01X0026828Y0009760D02*
G01X0026828Y0009794D01*
G01X0026828Y0009794D02*
G01X0026833Y0009827D01*
G01X0026833Y0009827D02*
G01X0026844Y0009856D01*
G01X0026844Y0009856D02*
G01X0026860Y0009881D01*
G01X0026860Y0009881D02*
G01X0026879Y0009898D01*
G01X0026879Y0009898D02*
G01X0026900Y0009902D01*
G01X0026900Y0009902D02*
G01X0026921Y0009898D01*
G01X0026921Y0009898D02*
G01X0026940Y0009881D01*
G01X0026940Y0009881D02*
G01X0026956Y0009856D01*
G01X0026956Y0009856D02*
G01X0026967Y0009827D01*
G01X0026967Y0009827D02*
G01X0026972Y0009794D01*
G01X0026972Y0009794D02*
G01X0026972Y0009760D01*
G01X0026972Y0009760D02*
G01X0026967Y0009727D01*
G01X0026967Y0009727D02*
G01X0026956Y0009698D01*
G01X0026956Y0009698D02*
G01X0026940Y0009673D01*
G01X0026940Y0009673D02*
G01X0026921Y0009656D01*
G01X0026921Y0009656D02*
G01X0026900Y0009652D01*
G01X0027067Y0009652D02*
G01X0027067Y0009902D01*
G01X0027067Y0009902D02*
G01X0027133Y0009902D01*
G01X0027133Y0009902D02*
G01X0027155Y0009890D01*
G01X0027155Y0009890D02*
G01X0027168Y0009873D01*
G01X0027168Y0009873D02*
G01X0027173Y0009840D01*
G01X0027173Y0009840D02*
G01X0027168Y0009806D01*
G01X0027168Y0009806D02*
G01X0027152Y0009785D01*
G01X0027152Y0009785D02*
G01X0027133Y0009773D01*
G01X0027133Y0009773D02*
G01X0027067Y0009773D01*
G01X0027133Y0009773D02*
G01X0027173Y0009652D01*
G01X0027525Y0009735D02*
G01X0027595Y0009735D01*
G01X0028059Y0009881D02*
G01X0028043Y0009894D01*
G01X0028043Y0009894D02*
G01X0028024Y0009902D01*
G01X0028024Y0009902D02*
G01X0028003Y0009902D01*
G01X0028003Y0009902D02*
G01X0027979Y0009890D01*
G01X0027979Y0009890D02*
G01X0027960Y0009869D01*
G01X0027960Y0009869D02*
G01X0027947Y0009844D01*
G01X0027947Y0009844D02*
G01X0027936Y0009802D01*
G01X0027936Y0009802D02*
G01X0027933Y0009765D01*
G01X0027933Y0009765D02*
G01X0027939Y0009727D01*
G01X0027939Y0009727D02*
G01X0027947Y0009702D01*
G01X0027947Y0009702D02*
G01X0027963Y0009677D01*
G01X0027963Y0009677D02*
G01X0027981Y0009660D01*
G01X0027981Y0009660D02*
G01X0028000Y0009652D01*
G01X0028000Y0009652D02*
G01X0028019Y0009652D01*
G01X0028019Y0009652D02*
G01X0028037Y0009660D01*
G01X0028037Y0009660D02*
G01X0028053Y0009673D01*
G01X0028053Y0009673D02*
G01X0028067Y0009690D01*
G01X0028220Y0009652D02*
G01X0028199Y0009656D01*
G01X0028199Y0009656D02*
G01X0028180Y0009673D01*
G01X0028180Y0009673D02*
G01X0028164Y0009698D01*
G01X0028164Y0009698D02*
G01X0028153Y0009727D01*
G01X0028153Y0009727D02*
G01X0028148Y0009760D01*
G01X0028148Y0009760D02*
G01X0028148Y0009794D01*
G01X0028148Y0009794D02*
G01X0028153Y0009827D01*
G01X0028153Y0009827D02*
G01X0028164Y0009856D01*
G01X0028164Y0009856D02*
G01X0028180Y0009881D01*
G01X0028180Y0009881D02*
G01X0028199Y0009898D01*
G01X0028199Y0009898D02*
G01X0028220Y0009902D01*
G01X0028220Y0009902D02*
G01X0028241Y0009898D01*
G01X0028241Y0009898D02*
G01X0028260Y0009881D01*
G01X0028260Y0009881D02*
G01X0028276Y0009856D01*
G01X0028276Y0009856D02*
G01X0028287Y0009827D01*
G01X0028287Y0009827D02*
G01X0028292Y0009794D01*
G01X0028292Y0009794D02*
G01X0028292Y0009760D01*
G01X0028292Y0009760D02*
G01X0028287Y0009727D01*
G01X0028287Y0009727D02*
G01X0028276Y0009698D01*
G01X0028276Y0009698D02*
G01X0028260Y0009673D01*
G01X0028260Y0009673D02*
G01X0028241Y0009656D01*
G01X0028241Y0009656D02*
G01X0028220Y0009652D01*
G01X0028387Y0009652D02*
G01X0028387Y0009902D01*
G01X0028387Y0009902D02*
G01X0028451Y0009902D01*
G01X0028451Y0009902D02*
G01X0028472Y0009890D01*
G01X0028472Y0009890D02*
G01X0028488Y0009860D01*
G01X0028488Y0009860D02*
G01X0028493Y0009827D01*
G01X0028493Y0009827D02*
G01X0028488Y0009794D01*
G01X0028488Y0009794D02*
G01X0028475Y0009769D01*
G01X0028475Y0009769D02*
G01X0028451Y0009756D01*
G01X0028451Y0009756D02*
G01X0028387Y0009756D01*
G01X0028607Y0009652D02*
G01X0028607Y0009902D01*
G01X0028607Y0009902D02*
G01X0028671Y0009902D01*
G01X0028671Y0009902D02*
G01X0028692Y0009890D01*
G01X0028692Y0009890D02*
G01X0028708Y0009860D01*
G01X0028708Y0009860D02*
G01X0028713Y0009827D01*
G01X0028713Y0009827D02*
G01X0028708Y0009794D01*
G01X0028708Y0009794D02*
G01X0028695Y0009769D01*
G01X0028695Y0009769D02*
G01X0028671Y0009756D01*
G01X0028671Y0009756D02*
G01X0028607Y0009756D01*
G01X0028933Y0009652D02*
G01X0028827Y0009652D01*
G01X0028827Y0009652D02*
G01X0028827Y0009902D01*
G01X0028827Y0009902D02*
G01X0028933Y0009902D01*
G01X0028891Y0009781D02*
G01X0028827Y0009781D01*
G01X0029047Y0009652D02*
G01X0029047Y0009902D01*
G01X0029047Y0009902D02*
G01X0029113Y0009902D01*
G01X0029113Y0009902D02*
G01X0029135Y0009890D01*
G01X0029135Y0009890D02*
G01X0029148Y0009873D01*
G01X0029148Y0009873D02*
G01X0029153Y0009840D01*
G01X0029153Y0009840D02*
G01X0029148Y0009806D01*
G01X0029148Y0009806D02*
G01X0029132Y0009785D01*
G01X0029132Y0009785D02*
G01X0029113Y0009773D01*
G01X0029113Y0009773D02*
G01X0029047Y0009773D01*
G01X0029113Y0009773D02*
G01X0029153Y0009652D01*
G01X0029540Y0009902D02*
G01X0029519Y0009894D01*
G01X0029519Y0009894D02*
G01X0029503Y0009873D01*
G01X0029503Y0009873D02*
G01X0029492Y0009848D01*
G01X0029492Y0009848D02*
G01X0029484Y0009815D01*
G01X0029484Y0009815D02*
G01X0029481Y0009777D01*
G01X0029481Y0009777D02*
G01X0029484Y0009740D01*
G01X0029484Y0009740D02*
G01X0029492Y0009706D01*
G01X0029492Y0009706D02*
G01X0029503Y0009681D01*
G01X0029503Y0009681D02*
G01X0029519Y0009660D01*
G01X0029519Y0009660D02*
G01X0029540Y0009652D01*
G01X0029540Y0009652D02*
G01X0029561Y0009660D01*
G01X0029561Y0009660D02*
G01X0029577Y0009681D01*
G01X0029577Y0009681D02*
G01X0029588Y0009706D01*
G01X0029588Y0009706D02*
G01X0029596Y0009740D01*
G01X0029596Y0009740D02*
G01X0029599Y0009777D01*
G01X0029599Y0009777D02*
G01X0029596Y0009815D01*
G01X0029596Y0009815D02*
G01X0029588Y0009848D01*
G01X0029588Y0009848D02*
G01X0029577Y0009873D01*
G01X0029577Y0009873D02*
G01X0029561Y0009894D01*
G01X0029561Y0009894D02*
G01X0029540Y0009902D01*
G01X0029760Y0009644D02*
G01X0029755Y0009648D01*
G01X0029755Y0009648D02*
G01X0029755Y0009656D01*
G01X0029755Y0009656D02*
G01X0029760Y0009660D01*
G01X0029760Y0009660D02*
G01X0029765Y0009656D01*
G01X0029765Y0009656D02*
G01X0029765Y0009648D01*
G01X0029765Y0009648D02*
G01X0029760Y0009644D01*
G01X0029975Y0009652D02*
G01X0029980Y0009706D01*
G01X0029980Y0009706D02*
G01X0029988Y0009752D01*
G01X0029988Y0009752D02*
G01X0029999Y0009794D01*
G01X0029999Y0009794D02*
G01X0030012Y0009840D01*
G01X0030012Y0009840D02*
G01X0030033Y0009902D01*
G01X0030033Y0009902D02*
G01X0029927Y0009902D01*
G01X0030200Y0009902D02*
G01X0030179Y0009894D01*
G01X0030179Y0009894D02*
G01X0030163Y0009873D01*
G01X0030163Y0009873D02*
G01X0030152Y0009848D01*
G01X0030152Y0009848D02*
G01X0030144Y0009815D01*
G01X0030144Y0009815D02*
G01X0030141Y0009777D01*
G01X0030141Y0009777D02*
G01X0030144Y0009740D01*
G01X0030144Y0009740D02*
G01X0030152Y0009706D01*
G01X0030152Y0009706D02*
G01X0030163Y0009681D01*
G01X0030163Y0009681D02*
G01X0030179Y0009660D01*
G01X0030179Y0009660D02*
G01X0030200Y0009652D01*
G01X0030200Y0009652D02*
G01X0030221Y0009660D01*
G01X0030221Y0009660D02*
G01X0030237Y0009681D01*
G01X0030237Y0009681D02*
G01X0030248Y0009706D01*
G01X0030248Y0009706D02*
G01X0030256Y0009740D01*
G01X0030256Y0009740D02*
G01X0030259Y0009777D01*
G01X0030259Y0009777D02*
G01X0030256Y0009815D01*
G01X0030256Y0009815D02*
G01X0030248Y0009848D01*
G01X0030248Y0009848D02*
G01X0030237Y0009873D01*
G01X0030237Y0009873D02*
G01X0030221Y0009894D01*
G01X0030221Y0009894D02*
G01X0030200Y0009902D01*
G01X0030375Y0009681D02*
G01X0030393Y0009660D01*
G01X0030393Y0009660D02*
G01X0030415Y0009652D01*
G01X0030415Y0009652D02*
G01X0030436Y0009660D01*
G01X0030436Y0009660D02*
G01X0030455Y0009685D01*
G01X0030455Y0009685D02*
G01X0030468Y0009723D01*
G01X0030468Y0009723D02*
G01X0030473Y0009760D01*
G01X0030473Y0009760D02*
G01X0030473Y0009806D01*
G01X0030473Y0009806D02*
G01X0030468Y0009844D01*
G01X0030468Y0009844D02*
G01X0030455Y0009877D01*
G01X0030455Y0009877D02*
G01X0030439Y0009894D01*
G01X0030439Y0009894D02*
G01X0030420Y0009902D01*
G01X0030420Y0009902D02*
G01X0030399Y0009894D01*
G01X0030399Y0009894D02*
G01X0030383Y0009877D01*
G01X0030383Y0009877D02*
G01X0030372Y0009852D01*
G01X0030372Y0009852D02*
G01X0030367Y0009819D01*
G01X0030367Y0009819D02*
G01X0030372Y0009790D01*
G01X0030372Y0009790D02*
G01X0030385Y0009760D01*
G01X0030385Y0009760D02*
G01X0030401Y0009744D01*
G01X0030401Y0009744D02*
G01X0030420Y0009740D01*
G01X0030420Y0009740D02*
G01X0030441Y0009748D01*
G01X0030441Y0009748D02*
G01X0030457Y0009769D01*
G01X0030457Y0009769D02*
G01X0030473Y0009806D01*
G01X0030791Y0009652D02*
G01X0030791Y0009902D01*
G01X0030791Y0009902D02*
G01X0030860Y0009694D01*
G01X0030860Y0009694D02*
G01X0030929Y0009902D01*
G01X0030929Y0009902D02*
G01X0030929Y0009652D01*
G01X0031048Y0009902D02*
G01X0031112Y0009902D01*
G01X0031080Y0009902D02*
G01X0031080Y0009652D01*
G01X0031048Y0009652D02*
G01X0031112Y0009652D01*
G01X0031247Y0009902D02*
G01X0031247Y0009652D01*
G01X0031247Y0009652D02*
G01X0031353Y0009652D01*
G54D13*
G01X-004260Y0007775D02*
G01X-004260Y0009025D01*
G01X-004260Y0009025D02*
G01X-004446Y0008775D01*
G01X-004446Y0007775D02*
G01X-004074Y0007775D01*
G01X-003020Y0007733D02*
G01X-003051Y0007754D01*
G01X-003051Y0007754D02*
G01X-003051Y0007796D01*
G01X-003051Y0007796D02*
G01X-003020Y0007817D01*
G01X-003020Y0007817D02*
G01X-002989Y0007796D01*
G01X-002989Y0007796D02*
G01X-002989Y0007754D01*
G01X-002989Y0007754D02*
G01X-003020Y0007733D01*
G01X-002121Y0007963D02*
G01X-002028Y0007858D01*
G01X-002028Y0007858D02*
G01X-001919Y0007796D01*
G01X-001919Y0007796D02*
G01X-001780Y0007775D01*
G01X-001780Y0007775D02*
G01X-001640Y0007817D01*
G01X-001640Y0007817D02*
G01X-001532Y0007900D01*
G01X-001532Y0007900D02*
G01X-001454Y0008046D01*
G01X-001454Y0008046D02*
G01X-001439Y0008213D01*
G01X-001439Y0008213D02*
G01X-001470Y0008379D01*
G01X-001470Y0008379D02*
G01X-001547Y0008483D01*
G01X-001547Y0008483D02*
G01X-001656Y0008567D01*
G01X-001656Y0008567D02*
G01X-001764Y0008588D01*
G01X-001764Y0008588D02*
G01X-001873Y0008567D01*
G01X-001873Y0008567D02*
G01X-002013Y0008483D01*
G01X-002013Y0008483D02*
G01X-001966Y0009025D01*
G01X-001966Y0009025D02*
G01X-001547Y0009025D01*
G01X-000571Y0007775D02*
G01X-000540Y0008046D01*
G01X-000540Y0008046D02*
G01X-000493Y0008275D01*
G01X-000493Y0008275D02*
G01X-000431Y0008483D01*
G01X-000431Y0008483D02*
G01X-000354Y0008713D01*
G01X-000354Y0008713D02*
G01X-000230Y0009025D01*
G01X-000230Y0009025D02*
G01X-000850Y0009025D01*
G01X-001000Y0000000D02*
G01X-003400Y0000000D01*
G01X-002400Y0006838D02*
G01X-002400Y0000000D01*
G01X-002650Y0001500D02*
G01X-002400Y0000000D01*
G01X-002400Y0000000D02*
G01X-002150Y0001500D01*
G01X-002150Y0001500D02*
G01X-002650Y0001500D01*
G01X-002400Y0009963D02*
G01X-002400Y0015748D01*
G01X-001000Y0015748D02*
G01X-003400Y0015748D01*
G01X-002150Y0014248D02*
G01X-002400Y0015748D01*
G01X-002400Y0015748D02*
G01X-002650Y0014248D01*
G01X-002650Y0014248D02*
G01X-002150Y0014248D01*
G01X0000000Y0000000D02*
G01X0000000Y0015748D01*
G01X0000000Y0015748D02*
G01X0015748Y0015748D01*
G01X0015748Y0015748D02*
G01X0015748Y0000000D01*
G01X0015748Y0000000D02*
G01X0000000Y0000000D01*
G01X0017300Y-009737D02*
G01X0017300Y0009752D01*
G01X0017300Y0009752D02*
G01X0023300Y0009752D01*
G01X0023300Y0009752D02*
G01X0023300Y-009737D01*
G01X0023300Y-009737D02*
G01X0017300Y-009737D01*
G01X0017200Y0013300D02*
G01X0017200Y0023300D01*
G01X0017200Y0023300D02*
G01X0065560Y0023300D01*
G01X0065560Y0023300D02*
G01X0065560Y0013300D01*
G01X0065560Y0013300D02*
G01X0017200Y0013300D01*
G01X0018301Y0016425D02*
G01X0018301Y0017675D01*
G01X0018301Y0017675D02*
G01X0018890Y0017675D01*
G01X0018673Y0017071D02*
G01X0018301Y0017071D01*
G01X0019649Y0017675D02*
G01X0020021Y0017675D01*
G01X0019835Y0017675D02*
G01X0019835Y0016425D01*
G01X0019649Y0016425D02*
G01X0020021Y0016425D01*
G01X0021168Y0017050D02*
G01X0021478Y0017050D01*
G01X0021478Y0017050D02*
G01X0021478Y0016675D01*
G01X0021478Y0016675D02*
G01X0021385Y0016550D01*
G01X0021385Y0016550D02*
G01X0021277Y0016467D01*
G01X0021277Y0016467D02*
G01X0021122Y0016425D01*
G01X0021122Y0016425D02*
G01X0020967Y0016467D01*
G01X0020967Y0016467D02*
G01X0020858Y0016550D01*
G01X0020858Y0016550D02*
G01X0020765Y0016675D01*
G01X0020765Y0016675D02*
G01X0020703Y0016821D01*
G01X0020703Y0016821D02*
G01X0020672Y0016988D01*
G01X0020672Y0016988D02*
G01X0020672Y0017133D01*
G01X0020672Y0017133D02*
G01X0020703Y0017258D01*
G01X0020703Y0017258D02*
G01X0020765Y0017404D01*
G01X0020765Y0017404D02*
G01X0020858Y0017529D01*
G01X0020858Y0017529D02*
G01X0020951Y0017613D01*
G01X0020951Y0017613D02*
G01X0021075Y0017675D01*
G01X0021075Y0017675D02*
G01X0021184Y0017675D01*
G01X0021184Y0017675D02*
G01X0021308Y0017633D01*
G01X0021308Y0017633D02*
G01X0021401Y0017550D01*
G01X0021974Y0017675D02*
G01X0021974Y0016779D01*
G01X0021974Y0016779D02*
G01X0022036Y0016592D01*
G01X0022036Y0016592D02*
G01X0022160Y0016467D01*
G01X0022160Y0016467D02*
G01X0022315Y0016425D01*
G01X0022315Y0016425D02*
G01X0022470Y0016467D01*
G01X0022470Y0016467D02*
G01X0022594Y0016592D01*
G01X0022594Y0016592D02*
G01X0022656Y0016779D01*
G01X0022656Y0016779D02*
G01X0022656Y0017675D01*
G01X0023245Y0016425D02*
G01X0023245Y0017675D01*
G01X0023245Y0017675D02*
G01X0023633Y0017675D01*
G01X0023633Y0017675D02*
G01X0023756Y0017613D01*
G01X0023756Y0017613D02*
G01X0023834Y0017529D01*
G01X0023834Y0017529D02*
G01X0023865Y0017363D01*
G01X0023865Y0017363D02*
G01X0023834Y0017196D01*
G01X0023834Y0017196D02*
G01X0023741Y0017092D01*
G01X0023741Y0017092D02*
G01X0023633Y0017029D01*
G01X0023633Y0017029D02*
G01X0023245Y0017029D01*
G01X0023633Y0017029D02*
G01X0023865Y0016425D01*
G01X0025105Y0016425D02*
G01X0024485Y0016425D01*
G01X0024485Y0016425D02*
G01X0024485Y0017675D01*
G01X0024485Y0017675D02*
G01X0025105Y0017675D01*
G01X0024857Y0017071D02*
G01X0024485Y0017071D01*
G01X0017200Y0015800D02*
G01X0065560Y0015800D01*
G01X0017200Y0018300D02*
G01X0065560Y0018300D01*
G01X0017200Y0020800D02*
G01X0065560Y0020800D01*
G01X0026190Y0018300D02*
G01X0026190Y0013300D01*
G01X0025539Y0021425D02*
G01X0025539Y0022675D01*
G01X0025539Y0022675D02*
G01X0025849Y0022675D01*
G01X0025849Y0022675D02*
G01X0025973Y0022613D01*
G01X0025973Y0022613D02*
G01X0026066Y0022529D01*
G01X0026066Y0022529D02*
G01X0026144Y0022404D01*
G01X0026144Y0022404D02*
G01X0026206Y0022258D01*
G01X0026206Y0022258D02*
G01X0026221Y0022050D01*
G01X0026221Y0022050D02*
G01X0026206Y0021842D01*
G01X0026206Y0021842D02*
G01X0026144Y0021696D01*
G01X0026144Y0021696D02*
G01X0026066Y0021571D01*
G01X0026066Y0021571D02*
G01X0025973Y0021488D01*
G01X0025973Y0021488D02*
G01X0025849Y0021425D01*
G01X0025849Y0021425D02*
G01X0025539Y0021425D01*
G01X0026810Y0021425D02*
G01X0026810Y0022675D01*
G01X0026810Y0022675D02*
G01X0027198Y0022675D01*
G01X0027198Y0022675D02*
G01X0027322Y0022613D01*
G01X0027322Y0022613D02*
G01X0027399Y0022529D01*
G01X0027399Y0022529D02*
G01X0027430Y0022363D01*
G01X0027430Y0022363D02*
G01X0027399Y0022196D01*
G01X0027399Y0022196D02*
G01X0027306Y0022092D01*
G01X0027306Y0022092D02*
G01X0027198Y0022029D01*
G01X0027198Y0022029D02*
G01X0026810Y0022029D01*
G01X0027198Y0022029D02*
G01X0027430Y0021425D01*
G01X0028174Y0022675D02*
G01X0028546Y0022675D01*
G01X0028360Y0022675D02*
G01X0028360Y0021425D01*
G01X0028174Y0021425D02*
G01X0028546Y0021425D01*
G01X0029290Y0022675D02*
G01X0029290Y0021425D01*
G01X0029290Y0021425D02*
G01X0029910Y0021425D01*
G01X0030530Y0022675D02*
G01X0030530Y0021425D01*
G01X0030530Y0021425D02*
G01X0031150Y0021425D01*
G01X0033661Y0022571D02*
G01X0033568Y0022633D01*
G01X0033568Y0022633D02*
G01X0033460Y0022675D01*
G01X0033460Y0022675D02*
G01X0033336Y0022675D01*
G01X0033336Y0022675D02*
G01X0033196Y0022613D01*
G01X0033196Y0022613D02*
G01X0033088Y0022508D01*
G01X0033088Y0022508D02*
G01X0033010Y0022383D01*
G01X0033010Y0022383D02*
G01X0032948Y0022175D01*
G01X0032948Y0022175D02*
G01X0032933Y0021988D01*
G01X0032933Y0021988D02*
G01X0032964Y0021800D01*
G01X0032964Y0021800D02*
G01X0033010Y0021675D01*
G01X0033010Y0021675D02*
G01X0033103Y0021550D01*
G01X0033103Y0021550D02*
G01X0033212Y0021467D01*
G01X0033212Y0021467D02*
G01X0033320Y0021425D01*
G01X0033320Y0021425D02*
G01X0033429Y0021425D01*
G01X0033429Y0021425D02*
G01X0033537Y0021467D01*
G01X0033537Y0021467D02*
G01X0033630Y0021529D01*
G01X0033630Y0021529D02*
G01X0033708Y0021613D01*
G01X0034235Y0021425D02*
G01X0034235Y0022675D01*
G01X0034886Y0022675D02*
G01X0034886Y0021425D01*
G01X0034886Y0022050D02*
G01X0034235Y0022050D01*
G01X0035413Y0021425D02*
G01X0035800Y0022675D01*
G01X0035800Y0022675D02*
G01X0036188Y0021425D01*
G01X0036048Y0021862D02*
G01X0035552Y0021862D01*
G01X0036730Y0021425D02*
G01X0036730Y0022675D01*
G01X0036730Y0022675D02*
G01X0037118Y0022675D01*
G01X0037118Y0022675D02*
G01X0037242Y0022613D01*
G01X0037242Y0022613D02*
G01X0037319Y0022529D01*
G01X0037319Y0022529D02*
G01X0037350Y0022363D01*
G01X0037350Y0022363D02*
G01X0037319Y0022196D01*
G01X0037319Y0022196D02*
G01X0037226Y0022092D01*
G01X0037226Y0022092D02*
G01X0037118Y0022029D01*
G01X0037118Y0022029D02*
G01X0036730Y0022029D01*
G01X0037118Y0022029D02*
G01X0037350Y0021425D01*
G01X0038280Y0022675D02*
G01X0038280Y0021425D01*
G01X0037924Y0022675D02*
G01X0038637Y0022675D01*
G01X0039520Y0021383D02*
G01X0039489Y0021404D01*
G01X0039489Y0021404D02*
G01X0039489Y0021446D01*
G01X0039489Y0021446D02*
G01X0039520Y0021467D01*
G01X0039520Y0021467D02*
G01X0039551Y0021446D01*
G01X0039551Y0021446D02*
G01X0039551Y0021404D01*
G01X0039551Y0021404D02*
G01X0039520Y0021383D01*
G01X0039520Y0021946D02*
G01X0039489Y0021967D01*
G01X0039489Y0021967D02*
G01X0039489Y0022008D01*
G01X0039489Y0022008D02*
G01X0039520Y0022029D01*
G01X0039520Y0022029D02*
G01X0039551Y0022008D01*
G01X0039551Y0022008D02*
G01X0039551Y0021967D01*
G01X0039551Y0021967D02*
G01X0039520Y0021946D01*
G01X0042000Y0022675D02*
G01X0042000Y0021425D01*
G01X0041644Y0022675D02*
G01X0042357Y0022675D01*
G01X0043240Y0021425D02*
G01X0043116Y0021446D01*
G01X0043116Y0021446D02*
G01X0043008Y0021529D01*
G01X0043008Y0021529D02*
G01X0042915Y0021654D01*
G01X0042915Y0021654D02*
G01X0042852Y0021800D01*
G01X0042852Y0021800D02*
G01X0042822Y0021967D01*
G01X0042822Y0021967D02*
G01X0042822Y0022133D01*
G01X0042822Y0022133D02*
G01X0042852Y0022300D01*
G01X0042852Y0022300D02*
G01X0042915Y0022446D01*
G01X0042915Y0022446D02*
G01X0043008Y0022571D01*
G01X0043008Y0022571D02*
G01X0043116Y0022654D01*
G01X0043116Y0022654D02*
G01X0043240Y0022675D01*
G01X0043240Y0022675D02*
G01X0043364Y0022654D01*
G01X0043364Y0022654D02*
G01X0043473Y0022571D01*
G01X0043473Y0022571D02*
G01X0043566Y0022446D01*
G01X0043566Y0022446D02*
G01X0043628Y0022300D01*
G01X0043628Y0022300D02*
G01X0043659Y0022133D01*
G01X0043659Y0022133D02*
G01X0043659Y0021967D01*
G01X0043659Y0021967D02*
G01X0043628Y0021800D01*
G01X0043628Y0021800D02*
G01X0043566Y0021654D01*
G01X0043566Y0021654D02*
G01X0043473Y0021529D01*
G01X0043473Y0021529D02*
G01X0043364Y0021446D01*
G01X0043364Y0021446D02*
G01X0043240Y0021425D01*
G01X0044170Y0021425D02*
G01X0044170Y0022675D01*
G01X0044170Y0022675D02*
G01X0044542Y0022675D01*
G01X0044542Y0022675D02*
G01X0044666Y0022613D01*
G01X0044666Y0022613D02*
G01X0044759Y0022467D01*
G01X0044759Y0022467D02*
G01X0044790Y0022300D01*
G01X0044790Y0022300D02*
G01X0044759Y0022133D01*
G01X0044759Y0022133D02*
G01X0044681Y0022008D01*
G01X0044681Y0022008D02*
G01X0044542Y0021946D01*
G01X0044542Y0021946D02*
G01X0044170Y0021946D01*
G01X0046960Y0022675D02*
G01X0046960Y0021425D01*
G01X0046743Y0022258D02*
G01X0047177Y0022258D01*
G01X0048200Y0021425D02*
G01X0048107Y0021446D01*
G01X0048107Y0021446D02*
G01X0048014Y0021529D01*
G01X0048014Y0021529D02*
G01X0047952Y0021675D01*
G01X0047952Y0021675D02*
G01X0047921Y0021842D01*
G01X0047921Y0021842D02*
G01X0047952Y0022008D01*
G01X0047952Y0022008D02*
G01X0048014Y0022154D01*
G01X0048014Y0022154D02*
G01X0048107Y0022238D01*
G01X0048107Y0022238D02*
G01X0048200Y0022258D01*
G01X0048200Y0022258D02*
G01X0048293Y0022238D01*
G01X0048293Y0022238D02*
G01X0048386Y0022154D01*
G01X0048386Y0022154D02*
G01X0048448Y0022008D01*
G01X0048448Y0022008D02*
G01X0048464Y0021842D01*
G01X0048464Y0021842D02*
G01X0048448Y0021675D01*
G01X0048448Y0021675D02*
G01X0048386Y0021529D01*
G01X0048386Y0021529D02*
G01X0048293Y0021446D01*
G01X0048293Y0021446D02*
G01X0048200Y0021425D01*
G01X0050804Y0022092D02*
G01X0050866Y0022154D01*
G01X0050866Y0022154D02*
G01X0050912Y0022258D01*
G01X0050912Y0022258D02*
G01X0050944Y0022404D01*
G01X0050944Y0022404D02*
G01X0050912Y0022529D01*
G01X0050912Y0022529D02*
G01X0050851Y0022613D01*
G01X0050851Y0022613D02*
G01X0050742Y0022675D01*
G01X0050742Y0022675D02*
G01X0050324Y0022675D01*
G01X0050324Y0022675D02*
G01X0050324Y0021425D01*
G01X0050324Y0021425D02*
G01X0050835Y0021425D01*
G01X0050835Y0021425D02*
G01X0050944Y0021508D01*
G01X0050944Y0021508D02*
G01X0051006Y0021633D01*
G01X0051006Y0021633D02*
G01X0051037Y0021779D01*
G01X0051037Y0021779D02*
G01X0051006Y0021925D01*
G01X0051006Y0021925D02*
G01X0050912Y0022050D01*
G01X0050912Y0022050D02*
G01X0050804Y0022092D01*
G01X0050804Y0022092D02*
G01X0050324Y0022092D01*
G01X0051920Y0021425D02*
G01X0051796Y0021446D01*
G01X0051796Y0021446D02*
G01X0051688Y0021529D01*
G01X0051688Y0021529D02*
G01X0051595Y0021654D01*
G01X0051595Y0021654D02*
G01X0051533Y0021800D01*
G01X0051533Y0021800D02*
G01X0051502Y0021967D01*
G01X0051502Y0021967D02*
G01X0051502Y0022133D01*
G01X0051502Y0022133D02*
G01X0051533Y0022300D01*
G01X0051533Y0022300D02*
G01X0051595Y0022446D01*
G01X0051595Y0022446D02*
G01X0051688Y0022571D01*
G01X0051688Y0022571D02*
G01X0051796Y0022654D01*
G01X0051796Y0022654D02*
G01X0051920Y0022675D01*
G01X0051920Y0022675D02*
G01X0052044Y0022654D01*
G01X0052044Y0022654D02*
G01X0052153Y0022571D01*
G01X0052153Y0022571D02*
G01X0052246Y0022446D01*
G01X0052246Y0022446D02*
G01X0052307Y0022300D01*
G01X0052307Y0022300D02*
G01X0052339Y0022133D01*
G01X0052339Y0022133D02*
G01X0052339Y0021967D01*
G01X0052339Y0021967D02*
G01X0052307Y0021800D01*
G01X0052307Y0021800D02*
G01X0052246Y0021654D01*
G01X0052246Y0021654D02*
G01X0052153Y0021529D01*
G01X0052153Y0021529D02*
G01X0052044Y0021446D01*
G01X0052044Y0021446D02*
G01X0051920Y0021425D01*
G01X0053160Y0022675D02*
G01X0053160Y0021425D01*
G01X0052804Y0022675D02*
G01X0053517Y0022675D01*
G01X0054400Y0022675D02*
G01X0054400Y0021425D01*
G01X0054044Y0022675D02*
G01X0054757Y0022675D01*
G01X0055640Y0021425D02*
G01X0055516Y0021446D01*
G01X0055516Y0021446D02*
G01X0055408Y0021529D01*
G01X0055408Y0021529D02*
G01X0055315Y0021654D01*
G01X0055315Y0021654D02*
G01X0055253Y0021800D01*
G01X0055253Y0021800D02*
G01X0055222Y0021967D01*
G01X0055222Y0021967D02*
G01X0055222Y0022133D01*
G01X0055222Y0022133D02*
G01X0055253Y0022300D01*
G01X0055253Y0022300D02*
G01X0055315Y0022446D01*
G01X0055315Y0022446D02*
G01X0055408Y0022571D01*
G01X0055408Y0022571D02*
G01X0055516Y0022654D01*
G01X0055516Y0022654D02*
G01X0055640Y0022675D01*
G01X0055640Y0022675D02*
G01X0055764Y0022654D01*
G01X0055764Y0022654D02*
G01X0055873Y0022571D01*
G01X0055873Y0022571D02*
G01X0055966Y0022446D01*
G01X0055966Y0022446D02*
G01X0056028Y0022300D01*
G01X0056028Y0022300D02*
G01X0056059Y0022133D01*
G01X0056059Y0022133D02*
G01X0056059Y0021967D01*
G01X0056059Y0021967D02*
G01X0056028Y0021800D01*
G01X0056028Y0021800D02*
G01X0055966Y0021654D01*
G01X0055966Y0021654D02*
G01X0055873Y0021529D01*
G01X0055873Y0021529D02*
G01X0055764Y0021446D01*
G01X0055764Y0021446D02*
G01X0055640Y0021425D01*
G01X0056477Y0021425D02*
G01X0056477Y0022675D01*
G01X0056477Y0022675D02*
G01X0056880Y0021633D01*
G01X0056880Y0021633D02*
G01X0057283Y0022675D01*
G01X0057283Y0022675D02*
G01X0057283Y0021425D01*
G01X0028593Y0018925D02*
G01X0028980Y0020175D01*
G01X0028980Y0020175D02*
G01X0029368Y0018925D01*
G01X0029228Y0019363D02*
G01X0028732Y0019363D01*
G01X0029910Y0020175D02*
G01X0029910Y0018925D01*
G01X0029910Y0018925D02*
G01X0030530Y0018925D01*
G01X0031150Y0020175D02*
G01X0031150Y0018925D01*
G01X0031150Y0018925D02*
G01X0031770Y0018925D01*
G01X0033599Y0020175D02*
G01X0033599Y0019279D01*
G01X0033599Y0019279D02*
G01X0033661Y0019092D01*
G01X0033661Y0019092D02*
G01X0033785Y0018967D01*
G01X0033785Y0018967D02*
G01X0033940Y0018925D01*
G01X0033940Y0018925D02*
G01X0034095Y0018967D01*
G01X0034095Y0018967D02*
G01X0034219Y0019092D01*
G01X0034219Y0019092D02*
G01X0034281Y0019279D01*
G01X0034281Y0019279D02*
G01X0034281Y0020175D01*
G01X0034824Y0018925D02*
G01X0034824Y0020175D01*
G01X0034824Y0020175D02*
G01X0035537Y0018925D01*
G01X0035537Y0018925D02*
G01X0035537Y0020175D01*
G01X0036234Y0020175D02*
G01X0036606Y0020175D01*
G01X0036420Y0020175D02*
G01X0036420Y0018925D01*
G01X0036234Y0018925D02*
G01X0036606Y0018925D01*
G01X0037660Y0020175D02*
G01X0037660Y0018925D01*
G01X0037304Y0020175D02*
G01X0038017Y0020175D01*
G01X0038575Y0019092D02*
G01X0038699Y0018988D01*
G01X0038699Y0018988D02*
G01X0038838Y0018925D01*
G01X0038838Y0018925D02*
G01X0038962Y0018925D01*
G01X0038962Y0018925D02*
G01X0039086Y0018988D01*
G01X0039086Y0018988D02*
G01X0039179Y0019092D01*
G01X0039179Y0019092D02*
G01X0039226Y0019238D01*
G01X0039226Y0019238D02*
G01X0039195Y0019383D01*
G01X0039195Y0019383D02*
G01X0039117Y0019508D01*
G01X0039117Y0019508D02*
G01X0038978Y0019592D01*
G01X0038978Y0019592D02*
G01X0038792Y0019633D01*
G01X0038792Y0019633D02*
G01X0038683Y0019717D01*
G01X0038683Y0019717D02*
G01X0038637Y0019863D01*
G01X0038637Y0019863D02*
G01X0038668Y0020008D01*
G01X0038668Y0020008D02*
G01X0038745Y0020113D01*
G01X0038745Y0020113D02*
G01X0038854Y0020175D01*
G01X0038854Y0020175D02*
G01X0038962Y0020175D01*
G01X0038962Y0020175D02*
G01X0039071Y0020133D01*
G01X0039071Y0020133D02*
G01X0039164Y0020029D01*
G01X0040992Y0018925D02*
G01X0041380Y0020175D01*
G01X0041380Y0020175D02*
G01X0041768Y0018925D01*
G01X0041628Y0019363D02*
G01X0041132Y0019363D01*
G01X0042310Y0018925D02*
G01X0042310Y0020175D01*
G01X0042310Y0020175D02*
G01X0042698Y0020175D01*
G01X0042698Y0020175D02*
G01X0042822Y0020113D01*
G01X0042822Y0020113D02*
G01X0042899Y0020029D01*
G01X0042899Y0020029D02*
G01X0042930Y0019863D01*
G01X0042930Y0019863D02*
G01X0042899Y0019696D01*
G01X0042899Y0019696D02*
G01X0042806Y0019592D01*
G01X0042806Y0019592D02*
G01X0042698Y0019529D01*
G01X0042698Y0019529D02*
G01X0042310Y0019529D01*
G01X0042698Y0019529D02*
G01X0042930Y0018925D01*
G01X0044170Y0018925D02*
G01X0043550Y0018925D01*
G01X0043550Y0018925D02*
G01X0043550Y0020175D01*
G01X0043550Y0020175D02*
G01X0044170Y0020175D01*
G01X0043922Y0019571D02*
G01X0043550Y0019571D01*
G01X0046154Y0020175D02*
G01X0046526Y0020175D01*
G01X0046340Y0020175D02*
G01X0046340Y0018925D01*
G01X0046154Y0018925D02*
G01X0046526Y0018925D01*
G01X0047223Y0018925D02*
G01X0047223Y0020175D01*
G01X0047223Y0020175D02*
G01X0047937Y0018925D01*
G01X0047937Y0018925D02*
G01X0047937Y0020175D01*
G01X0049657Y0018925D02*
G01X0049657Y0020175D01*
G01X0049657Y0020175D02*
G01X0050060Y0019133D01*
G01X0050060Y0019133D02*
G01X0050463Y0020175D01*
G01X0050463Y0020175D02*
G01X0050463Y0018925D01*
G01X0051114Y0020175D02*
G01X0051486Y0020175D01*
G01X0051300Y0020175D02*
G01X0051300Y0018925D01*
G01X0051114Y0018925D02*
G01X0051486Y0018925D01*
G01X0052230Y0020175D02*
G01X0052230Y0018925D01*
G01X0052230Y0018925D02*
G01X0052850Y0018925D01*
G01X0053454Y0019092D02*
G01X0053579Y0018988D01*
G01X0053579Y0018988D02*
G01X0053718Y0018925D01*
G01X0053718Y0018925D02*
G01X0053842Y0018925D01*
G01X0053842Y0018925D02*
G01X0053966Y0018988D01*
G01X0053966Y0018988D02*
G01X0054059Y0019092D01*
G01X0054059Y0019092D02*
G01X0054106Y0019238D01*
G01X0054106Y0019238D02*
G01X0054075Y0019383D01*
G01X0054075Y0019383D02*
G01X0053997Y0019508D01*
G01X0053997Y0019508D02*
G01X0053858Y0019592D01*
G01X0053858Y0019592D02*
G01X0053672Y0019633D01*
G01X0053672Y0019633D02*
G01X0053563Y0019717D01*
G01X0053563Y0019717D02*
G01X0053517Y0019863D01*
G01X0053517Y0019863D02*
G01X0053548Y0020008D01*
G01X0053548Y0020008D02*
G01X0053625Y0020113D01*
G01X0053625Y0020113D02*
G01X0053734Y0020175D01*
G01X0053734Y0020175D02*
G01X0053842Y0020175D01*
G01X0053842Y0020175D02*
G01X0053951Y0020133D01*
G01X0053951Y0020133D02*
G01X0054044Y0020029D01*
G01X0032545Y0013925D02*
G01X0032545Y0015175D01*
G01X0032545Y0015175D02*
G01X0032359Y0014925D01*
G01X0032359Y0013925D02*
G01X0032731Y0013925D01*
G01X0033444Y0014112D02*
G01X0033537Y0014008D01*
G01X0033537Y0014008D02*
G01X0033646Y0013946D01*
G01X0033646Y0013946D02*
G01X0033785Y0013925D01*
G01X0033785Y0013925D02*
G01X0033925Y0013967D01*
G01X0033925Y0013967D02*
G01X0034033Y0014050D01*
G01X0034033Y0014050D02*
G01X0034111Y0014196D01*
G01X0034111Y0014196D02*
G01X0034126Y0014363D01*
G01X0034126Y0014363D02*
G01X0034095Y0014529D01*
G01X0034095Y0014529D02*
G01X0034018Y0014633D01*
G01X0034018Y0014633D02*
G01X0033909Y0014717D01*
G01X0033909Y0014717D02*
G01X0033801Y0014737D01*
G01X0033801Y0014737D02*
G01X0033692Y0014717D01*
G01X0033692Y0014717D02*
G01X0033553Y0014633D01*
G01X0033553Y0014633D02*
G01X0033599Y0015175D01*
G01X0033599Y0015175D02*
G01X0034018Y0015175D01*
G01X0035025Y0013883D02*
G01X0034994Y0013904D01*
G01X0034994Y0013904D02*
G01X0034994Y0013946D01*
G01X0034994Y0013946D02*
G01X0035025Y0013967D01*
G01X0035025Y0013967D02*
G01X0035056Y0013946D01*
G01X0035056Y0013946D02*
G01X0035056Y0013904D01*
G01X0035056Y0013904D02*
G01X0035025Y0013883D01*
G01X0036234Y0013925D02*
G01X0036265Y0014196D01*
G01X0036265Y0014196D02*
G01X0036312Y0014425D01*
G01X0036312Y0014425D02*
G01X0036374Y0014633D01*
G01X0036374Y0014633D02*
G01X0036451Y0014863D01*
G01X0036451Y0014863D02*
G01X0036575Y0015175D01*
G01X0036575Y0015175D02*
G01X0035955Y0015175D01*
G01X0037691Y0013925D02*
G01X0037691Y0015175D01*
G01X0037691Y0015175D02*
G01X0037118Y0014279D01*
G01X0037118Y0014279D02*
G01X0037893Y0014279D01*
G01X0038745Y0013925D02*
G01X0038854Y0013946D01*
G01X0038854Y0013946D02*
G01X0038978Y0014008D01*
G01X0038978Y0014008D02*
G01X0039055Y0014112D01*
G01X0039055Y0014112D02*
G01X0039086Y0014258D01*
G01X0039086Y0014258D02*
G01X0039055Y0014404D01*
G01X0039055Y0014404D02*
G01X0038962Y0014529D01*
G01X0038962Y0014529D02*
G01X0038823Y0014592D01*
G01X0038823Y0014592D02*
G01X0038668Y0014592D01*
G01X0038668Y0014592D02*
G01X0038575Y0014633D01*
G01X0038575Y0014633D02*
G01X0038497Y0014737D01*
G01X0038497Y0014737D02*
G01X0038466Y0014883D01*
G01X0038466Y0014883D02*
G01X0038513Y0015029D01*
G01X0038513Y0015029D02*
G01X0038621Y0015133D01*
G01X0038621Y0015133D02*
G01X0038745Y0015175D01*
G01X0038745Y0015175D02*
G01X0038869Y0015133D01*
G01X0038869Y0015133D02*
G01X0038978Y0015029D01*
G01X0038978Y0015029D02*
G01X0039024Y0014883D01*
G01X0039024Y0014883D02*
G01X0038993Y0014737D01*
G01X0038993Y0014737D02*
G01X0038916Y0014633D01*
G01X0038916Y0014633D02*
G01X0038823Y0014592D01*
G01X0038823Y0014592D02*
G01X0038668Y0014592D01*
G01X0038668Y0014592D02*
G01X0038528Y0014529D01*
G01X0038528Y0014529D02*
G01X0038435Y0014404D01*
G01X0038435Y0014404D02*
G01X0038404Y0014258D01*
G01X0038404Y0014258D02*
G01X0038435Y0014112D01*
G01X0038435Y0014112D02*
G01X0038513Y0014008D01*
G01X0038513Y0014008D02*
G01X0038637Y0013946D01*
G01X0038637Y0013946D02*
G01X0038745Y0013925D01*
G01X0033460Y0016592D02*
G01X0033584Y0016488D01*
G01X0033584Y0016488D02*
G01X0033723Y0016425D01*
G01X0033723Y0016425D02*
G01X0033847Y0016425D01*
G01X0033847Y0016425D02*
G01X0033971Y0016488D01*
G01X0033971Y0016488D02*
G01X0034064Y0016592D01*
G01X0034064Y0016592D02*
G01X0034111Y0016738D01*
G01X0034111Y0016738D02*
G01X0034080Y0016883D01*
G01X0034080Y0016883D02*
G01X0034002Y0017008D01*
G01X0034002Y0017008D02*
G01X0033863Y0017092D01*
G01X0033863Y0017092D02*
G01X0033677Y0017133D01*
G01X0033677Y0017133D02*
G01X0033568Y0017217D01*
G01X0033568Y0017217D02*
G01X0033522Y0017363D01*
G01X0033522Y0017363D02*
G01X0033553Y0017508D01*
G01X0033553Y0017508D02*
G01X0033630Y0017613D01*
G01X0033630Y0017613D02*
G01X0033739Y0017675D01*
G01X0033739Y0017675D02*
G01X0033847Y0017675D01*
G01X0033847Y0017675D02*
G01X0033956Y0017633D01*
G01X0033956Y0017633D02*
G01X0034049Y0017529D01*
G01X0034839Y0017675D02*
G01X0035211Y0017675D01*
G01X0035025Y0017675D02*
G01X0035025Y0016425D01*
G01X0034839Y0016425D02*
G01X0035211Y0016425D01*
G01X0035971Y0017675D02*
G01X0036560Y0017675D01*
G01X0036560Y0017675D02*
G01X0035971Y0016425D01*
G01X0035971Y0016425D02*
G01X0036560Y0016425D01*
G01X0037815Y0016425D02*
G01X0037195Y0016425D01*
G01X0037195Y0016425D02*
G01X0037195Y0017675D01*
G01X0037195Y0017675D02*
G01X0037815Y0017675D01*
G01X0037567Y0017071D02*
G01X0037195Y0017071D01*
G01X0045100Y0018300D02*
G01X0045100Y0013300D01*
G01X0048045Y0013925D02*
G01X0048045Y0015175D01*
G01X0048045Y0015175D02*
G01X0048417Y0015175D01*
G01X0048417Y0015175D02*
G01X0048541Y0015113D01*
G01X0048541Y0015113D02*
G01X0048634Y0014967D01*
G01X0048634Y0014967D02*
G01X0048665Y0014800D01*
G01X0048665Y0014800D02*
G01X0048634Y0014633D01*
G01X0048634Y0014633D02*
G01X0048557Y0014508D01*
G01X0048557Y0014508D02*
G01X0048417Y0014446D01*
G01X0048417Y0014446D02*
G01X0048045Y0014446D01*
G01X0049285Y0015175D02*
G01X0049285Y0013925D01*
G01X0049285Y0013925D02*
G01X0049905Y0013925D01*
G01X0050447Y0013925D02*
G01X0050835Y0015175D01*
G01X0050835Y0015175D02*
G01X0051223Y0013925D01*
G01X0051083Y0014363D02*
G01X0050587Y0014363D01*
G01X0052075Y0015175D02*
G01X0052075Y0013925D01*
G01X0051719Y0015175D02*
G01X0052432Y0015175D01*
G01X0053625Y0013925D02*
G01X0053005Y0013925D01*
G01X0053005Y0013925D02*
G01X0053005Y0015175D01*
G01X0053005Y0015175D02*
G01X0053625Y0015175D01*
G01X0053377Y0014571D02*
G01X0053005Y0014571D01*
G01X0054214Y0013925D02*
G01X0054214Y0015175D01*
G01X0054214Y0015175D02*
G01X0054524Y0015175D01*
G01X0054524Y0015175D02*
G01X0054648Y0015113D01*
G01X0054648Y0015113D02*
G01X0054741Y0015029D01*
G01X0054741Y0015029D02*
G01X0054819Y0014904D01*
G01X0054819Y0014904D02*
G01X0054881Y0014758D01*
G01X0054881Y0014758D02*
G01X0054896Y0014550D01*
G01X0054896Y0014550D02*
G01X0054881Y0014342D01*
G01X0054881Y0014342D02*
G01X0054819Y0014196D01*
G01X0054819Y0014196D02*
G01X0054741Y0014071D01*
G01X0054741Y0014071D02*
G01X0054648Y0013988D01*
G01X0054648Y0013988D02*
G01X0054524Y0013925D01*
G01X0054524Y0013925D02*
G01X0054214Y0013925D01*
G01X0048045Y0016425D02*
G01X0048045Y0017675D01*
G01X0048045Y0017675D02*
G01X0048417Y0017675D01*
G01X0048417Y0017675D02*
G01X0048541Y0017613D01*
G01X0048541Y0017613D02*
G01X0048634Y0017467D01*
G01X0048634Y0017467D02*
G01X0048665Y0017300D01*
G01X0048665Y0017300D02*
G01X0048634Y0017133D01*
G01X0048634Y0017133D02*
G01X0048557Y0017008D01*
G01X0048557Y0017008D02*
G01X0048417Y0016946D01*
G01X0048417Y0016946D02*
G01X0048045Y0016946D01*
G01X0049285Y0017675D02*
G01X0049285Y0016425D01*
G01X0049285Y0016425D02*
G01X0049905Y0016425D01*
G01X0050447Y0016425D02*
G01X0050835Y0017675D01*
G01X0050835Y0017675D02*
G01X0051223Y0016425D01*
G01X0051083Y0016863D02*
G01X0050587Y0016863D01*
G01X0052075Y0017675D02*
G01X0052075Y0016425D01*
G01X0051719Y0017675D02*
G01X0052432Y0017675D01*
G01X0053625Y0016425D02*
G01X0053005Y0016425D01*
G01X0053005Y0016425D02*
G01X0053005Y0017675D01*
G01X0053005Y0017675D02*
G01X0053625Y0017675D01*
G01X0053377Y0017071D02*
G01X0053005Y0017071D01*
G01X0054214Y0016425D02*
G01X0054214Y0017675D01*
G01X0054214Y0017675D02*
G01X0054524Y0017675D01*
G01X0054524Y0017675D02*
G01X0054648Y0017613D01*
G01X0054648Y0017613D02*
G01X0054741Y0017529D01*
G01X0054741Y0017529D02*
G01X0054819Y0017404D01*
G01X0054819Y0017404D02*
G01X0054881Y0017258D01*
G01X0054881Y0017258D02*
G01X0054896Y0017050D01*
G01X0054896Y0017050D02*
G01X0054881Y0016842D01*
G01X0054881Y0016842D02*
G01X0054819Y0016696D01*
G01X0054819Y0016696D02*
G01X0054741Y0016571D01*
G01X0054741Y0016571D02*
G01X0054648Y0016488D01*
G01X0054648Y0016488D02*
G01X0054524Y0016425D01*
G01X0054524Y0016425D02*
G01X0054214Y0016425D01*
G01X0057810Y0018300D02*
G01X0057810Y0013300D01*
G01X0061065Y0013925D02*
G01X0061065Y0015175D01*
G01X0061065Y0015175D02*
G01X0060879Y0014925D01*
G01X0060879Y0013925D02*
G01X0061251Y0013925D01*
G01X0061964Y0014112D02*
G01X0062057Y0014008D01*
G01X0062057Y0014008D02*
G01X0062166Y0013946D01*
G01X0062166Y0013946D02*
G01X0062305Y0013925D01*
G01X0062305Y0013925D02*
G01X0062444Y0013967D01*
G01X0062444Y0013967D02*
G01X0062553Y0014050D01*
G01X0062553Y0014050D02*
G01X0062631Y0014196D01*
G01X0062631Y0014196D02*
G01X0062646Y0014363D01*
G01X0062646Y0014363D02*
G01X0062615Y0014529D01*
G01X0062615Y0014529D02*
G01X0062538Y0014633D01*
G01X0062538Y0014633D02*
G01X0062429Y0014717D01*
G01X0062429Y0014717D02*
G01X0062321Y0014737D01*
G01X0062321Y0014737D02*
G01X0062212Y0014717D01*
G01X0062212Y0014717D02*
G01X0062073Y0014633D01*
G01X0062073Y0014633D02*
G01X0062119Y0015175D01*
G01X0062119Y0015175D02*
G01X0062538Y0015175D01*
G01X0060445Y0016425D02*
G01X0060321Y0016446D01*
G01X0060321Y0016446D02*
G01X0060213Y0016529D01*
G01X0060213Y0016529D02*
G01X0060120Y0016654D01*
G01X0060120Y0016654D02*
G01X0060058Y0016800D01*
G01X0060058Y0016800D02*
G01X0060027Y0016967D01*
G01X0060027Y0016967D02*
G01X0060027Y0017133D01*
G01X0060027Y0017133D02*
G01X0060058Y0017300D01*
G01X0060058Y0017300D02*
G01X0060120Y0017446D01*
G01X0060120Y0017446D02*
G01X0060213Y0017571D01*
G01X0060213Y0017571D02*
G01X0060321Y0017654D01*
G01X0060321Y0017654D02*
G01X0060445Y0017675D01*
G01X0060445Y0017675D02*
G01X0060569Y0017654D01*
G01X0060569Y0017654D02*
G01X0060678Y0017571D01*
G01X0060678Y0017571D02*
G01X0060771Y0017446D01*
G01X0060771Y0017446D02*
G01X0060832Y0017300D01*
G01X0060832Y0017300D02*
G01X0060864Y0017133D01*
G01X0060864Y0017133D02*
G01X0060864Y0016967D01*
G01X0060864Y0016967D02*
G01X0060832Y0016800D01*
G01X0060832Y0016800D02*
G01X0060771Y0016654D01*
G01X0060771Y0016654D02*
G01X0060678Y0016529D01*
G01X0060678Y0016529D02*
G01X0060569Y0016446D01*
G01X0060569Y0016446D02*
G01X0060445Y0016425D01*
G01X0060569Y0016758D02*
G01X0060755Y0016425D01*
G01X0061685Y0017675D02*
G01X0061685Y0016425D01*
G01X0061329Y0017675D02*
G01X0062042Y0017675D01*
G01X0062925Y0016425D02*
G01X0062925Y0016988D01*
G01X0062925Y0016988D02*
G01X0062615Y0017675D01*
G01X0063235Y0017675D02*
G01X0062925Y0016988D01*
G01X0000000Y0000000D02*
G54D14*
G01X0000000Y0000000D03*
M02*
