G04 ================== begin FILE IDENTIFICATION RECORD ==================*
G04 Layout Name:  STABILIZATOR.brd*
G04 Film Name:    SSTOP*
G04 File Format:  Gerber RS274X*
G04 File Origin:  Cadence Allegro 16.6-2015-S059*
G04 Origin Date:  Fri Nov 20 19:11:11 2020*
G04 *
G04 Layer:  USER PART NUMBER/SILKSCREEN_TOP*
G04 Layer:  TOLERANCE/SILKSCREEN_TOP*
G04 Layer:  REF DES/SILKSCREEN_TOP*
G04 Layer:  PACKAGE GEOMETRY/SILKSCREEN_TOP*
G04 Layer:  DEVICE TYPE/SILKSCREEN_TOP*
G04 Layer:  COMPONENT VALUE/SILKSCREEN_TOP*
G04 Layer:  BOARD GEOMETRY/SILKSCREEN_TOP*
G04 *
G04 Offset:    (0.000 0.000)*
G04 Mirror:    No*
G04 Mode:      Positive*
G04 Rotation:  0*
G04 FullContactRelief:  No*
G04 UndefLineWidth:     5.000*
G04 ================== end FILE IDENTIFICATION RECORD ====================*
%FSLAX25Y25*MOIN*%
%IR0*IPPOS*OFA0.00000B0.00000*MIA0B0*SFA1.00000B1.00000*%
%ADD10C,.003*%
%ADD11C,.006*%
%ADD12C,.001181*%
%ADD13C,.005906*%
%ADD14C,.009843*%
%ADD15C,.007874*%
%ADD16C,.005*%
%ADD17C,.000787*%
G75*
%LPD*%
G75*
G54D10*
G01X33267Y21700D02*
Y24200D01*
X33907D01*
X34120Y24075D01*
X34280Y23783D01*
X34333Y23450D01*
X34280Y23117D01*
X34147Y22867D01*
X33907Y22742D01*
X33267D01*
G01X35413Y21700D02*
Y24200D01*
X35947D01*
X36160Y24075D01*
X36320Y23908D01*
X36453Y23658D01*
X36560Y23367D01*
X36587Y22950D01*
X36560Y22533D01*
X36453Y22242D01*
X36320Y21992D01*
X36160Y21825D01*
X35947Y21700D01*
X35413D01*
G01X38787Y23992D02*
X38627Y24117D01*
X38440Y24200D01*
X38227D01*
X37987Y24075D01*
X37800Y23867D01*
X37667Y23617D01*
X37560Y23200D01*
X37533Y22825D01*
X37587Y22450D01*
X37667Y22200D01*
X37827Y21950D01*
X38013Y21783D01*
X38200Y21700D01*
X38387D01*
X38573Y21783D01*
X38733Y21908D01*
X38867Y22075D01*
G01X40933Y21700D02*
X39867D01*
Y24200D01*
X40933D01*
G01X40507Y22992D02*
X39867D01*
G01X44480Y24200D02*
X45120D01*
G01X44800D02*
Y21700D01*
G01X44480D02*
X45120D01*
G01X48693Y23783D02*
X48853Y24033D01*
X49040Y24158D01*
X49253Y24200D01*
X49520Y24117D01*
X49707Y23908D01*
X49760Y23658D01*
X49733Y23408D01*
X49627Y23200D01*
X49093Y22783D01*
X48853Y22492D01*
X48693Y22075D01*
X48640Y21700D01*
X49760D01*
G01X51400Y24200D02*
X51187Y24117D01*
X51027Y23908D01*
X50920Y23658D01*
X50840Y23325D01*
X50813Y22950D01*
X50840Y22575D01*
X50920Y22242D01*
X51027Y21992D01*
X51187Y21783D01*
X51400Y21700D01*
X51613Y21783D01*
X51773Y21992D01*
X51880Y22242D01*
X51960Y22575D01*
X51987Y22950D01*
X51960Y23325D01*
X51880Y23658D01*
X51773Y23908D01*
X51613Y24117D01*
X51400Y24200D01*
G01X53093Y23783D02*
X53253Y24033D01*
X53440Y24158D01*
X53653Y24200D01*
X53920Y24117D01*
X54107Y23908D01*
X54160Y23658D01*
X54133Y23408D01*
X54027Y23200D01*
X53493Y22783D01*
X53253Y22492D01*
X53093Y22075D01*
X53040Y21700D01*
X54160D01*
G01X55800Y24200D02*
X55587Y24117D01*
X55427Y23908D01*
X55320Y23658D01*
X55240Y23325D01*
X55213Y22950D01*
X55240Y22575D01*
X55320Y22242D01*
X55427Y21992D01*
X55587Y21783D01*
X55800Y21700D01*
X56013Y21783D01*
X56173Y21992D01*
X56280Y22242D01*
X56360Y22575D01*
X56387Y22950D01*
X56360Y23325D01*
X56280Y23658D01*
X56173Y23908D01*
X56013Y24117D01*
X55800Y24200D01*
G01X57653Y22533D02*
X58347D01*
G01X59693Y23783D02*
X59853Y24033D01*
X60040Y24158D01*
X60253Y24200D01*
X60520Y24117D01*
X60707Y23908D01*
X60760Y23658D01*
X60733Y23408D01*
X60627Y23200D01*
X60093Y22783D01*
X59853Y22492D01*
X59693Y22075D01*
X59640Y21700D01*
X60760D01*
G01X62400Y24200D02*
X62187Y24117D01*
X62027Y23908D01*
X61920Y23658D01*
X61840Y23325D01*
X61813Y22950D01*
X61840Y22575D01*
X61920Y22242D01*
X62027Y21992D01*
X62187Y21783D01*
X62400Y21700D01*
X62613Y21783D01*
X62773Y21992D01*
X62880Y22242D01*
X62960Y22575D01*
X62987Y22950D01*
X62960Y23325D01*
X62880Y23658D01*
X62773Y23908D01*
X62613Y24117D01*
X62400Y24200D01*
G01X64093Y23783D02*
X64253Y24033D01*
X64440Y24158D01*
X64653Y24200D01*
X64920Y24117D01*
X65107Y23908D01*
X65160Y23658D01*
X65133Y23408D01*
X65027Y23200D01*
X64493Y22783D01*
X64253Y22492D01*
X64093Y22075D01*
X64040Y21700D01*
X65160D01*
G01X66800D02*
Y24200D01*
X66480Y23700D01*
G01Y21700D02*
X67120D01*
G01X33213Y33500D02*
Y31708D01*
X33320Y31333D01*
X33533Y31083D01*
X33800Y31000D01*
X34067Y31083D01*
X34280Y31333D01*
X34387Y31708D01*
Y33500D01*
G01X35547Y31000D02*
Y32667D01*
G01Y32250D02*
X35653Y32458D01*
X35813Y32625D01*
X36027Y32667D01*
X36213Y32625D01*
X36373Y32458D01*
X36453Y32167D01*
Y31000D01*
G01X37827Y30375D02*
X38013Y30208D01*
X38227Y30167D01*
X38413Y30208D01*
X38573Y30417D01*
X38680Y30708D01*
Y32667D01*
G01Y32333D02*
X38573Y32500D01*
X38413Y32625D01*
X38227Y32667D01*
X38013Y32583D01*
X37880Y32417D01*
X37773Y32125D01*
X37720Y31833D01*
X37747Y31583D01*
X37853Y31292D01*
X38013Y31083D01*
X38227Y31000D01*
X38387Y31042D01*
X38573Y31208D01*
X38680Y31375D01*
G01X39947Y32667D02*
Y31500D01*
X40053Y31208D01*
X40213Y31042D01*
X40400Y31000D01*
X40587Y31042D01*
X40747Y31208D01*
X40853Y31500D01*
G01Y31000D02*
Y32667D01*
G01X42227Y31000D02*
Y32667D01*
G01Y32333D02*
X42360Y32500D01*
X42493Y32625D01*
X42680Y32667D01*
X42813Y32625D01*
X42973Y32500D01*
G01X45280Y31000D02*
Y32667D01*
G01Y32375D02*
X45173Y32542D01*
X45013Y32625D01*
X44827Y32667D01*
X44640Y32583D01*
X44480Y32417D01*
X44373Y32167D01*
X44320Y31833D01*
X44373Y31500D01*
X44480Y31250D01*
X44640Y31083D01*
X44827Y31000D01*
X45013Y31042D01*
X45173Y31167D01*
X45280Y31333D01*
G01X46600Y31292D02*
X46733Y31125D01*
X46920Y31000D01*
X47080D01*
X47240Y31083D01*
X47347Y31208D01*
X47400Y31375D01*
X47373Y31625D01*
X47267Y31750D01*
X46787Y32000D01*
X46680Y32292D01*
X46733Y32500D01*
X46840Y32625D01*
X47000Y32667D01*
X47160Y32625D01*
X47320Y32500D01*
G01X48747Y32667D02*
Y31500D01*
X48853Y31208D01*
X49013Y31042D01*
X49200Y31000D01*
X49387Y31042D01*
X49547Y31208D01*
X49653Y31500D01*
G01Y31000D02*
Y32667D01*
G01X33480Y30400D02*
X34120D01*
G01X33800D02*
Y27900D01*
G01X33480D02*
X34120D01*
G01X36000D02*
X35840Y27942D01*
X35680Y28108D01*
X35573Y28400D01*
X35520Y28733D01*
X35573Y29067D01*
X35680Y29358D01*
X35840Y29525D01*
X36000Y29567D01*
X36160Y29525D01*
X36320Y29358D01*
X36427Y29067D01*
X36453Y28733D01*
X36427Y28400D01*
X36320Y28108D01*
X36160Y27942D01*
X36000Y27900D01*
G01X38680D02*
Y29567D01*
G01Y29275D02*
X38573Y29442D01*
X38413Y29525D01*
X38227Y29567D01*
X38040Y29483D01*
X37880Y29317D01*
X37773Y29067D01*
X37720Y28733D01*
X37773Y28400D01*
X37880Y28150D01*
X38040Y27983D01*
X38227Y27900D01*
X38413Y27942D01*
X38573Y28067D01*
X38680Y28233D01*
G01X39947Y27900D02*
Y29567D01*
G01Y29150D02*
X40053Y29358D01*
X40213Y29525D01*
X40427Y29567D01*
X40613Y29525D01*
X40773Y29358D01*
X40853Y29067D01*
Y27900D01*
G01X42253Y28733D02*
X42947D01*
G01X44133Y27900D02*
X44800Y30400D01*
X45467Y27900D01*
G01X45227Y28775D02*
X44373D01*
G01X46547Y27900D02*
Y29567D01*
G01Y29150D02*
X46653Y29358D01*
X46813Y29525D01*
X47027Y29567D01*
X47213Y29525D01*
X47373Y29358D01*
X47453Y29067D01*
Y27900D01*
G01X49680Y30400D02*
Y27900D01*
G01Y28275D02*
X49573Y28067D01*
X49413Y27942D01*
X49227Y27900D01*
X49013Y27983D01*
X48853Y28192D01*
X48747Y28442D01*
X48720Y28733D01*
X48747Y29025D01*
X48853Y29275D01*
X49013Y29483D01*
X49227Y29567D01*
X49413Y29525D01*
X49547Y29442D01*
X49680Y29275D01*
G01X51027Y27900D02*
Y29567D01*
G01Y29233D02*
X51160Y29400D01*
X51293Y29525D01*
X51480Y29567D01*
X51613Y29525D01*
X51773Y29400D01*
G01X53200Y29025D02*
X54053D01*
X53973Y29317D01*
X53840Y29483D01*
X53653Y29567D01*
X53467Y29525D01*
X53307Y29400D01*
X53200Y29108D01*
X53147Y28858D01*
Y28608D01*
X53200Y28358D01*
X53333Y28108D01*
X53493Y27942D01*
X53680Y27900D01*
X53867Y27983D01*
X54053Y28233D01*
G01X55800Y29567D02*
Y27900D01*
G01Y30233D02*
X55747Y30275D01*
Y30358D01*
X55800Y30400D01*
X55853Y30358D01*
Y30275D01*
X55800Y30233D01*
G01X33960Y26050D02*
X34493D01*
Y25300D01*
X34333Y25050D01*
X34147Y24883D01*
X33880Y24800D01*
X33613Y24883D01*
X33427Y25050D01*
X33267Y25300D01*
X33160Y25592D01*
X33107Y25925D01*
Y26217D01*
X33160Y26467D01*
X33267Y26758D01*
X33427Y27008D01*
X33587Y27175D01*
X33800Y27300D01*
X33987D01*
X34200Y27217D01*
X34360Y27050D01*
G01X35467Y24800D02*
Y27300D01*
X36133D01*
X36347Y27175D01*
X36480Y27008D01*
X36533Y26675D01*
X36480Y26342D01*
X36320Y26133D01*
X36133Y26008D01*
X35467D01*
G01X36133D02*
X36533Y24800D01*
G01X37613Y27300D02*
Y25508D01*
X37720Y25133D01*
X37933Y24883D01*
X38200Y24800D01*
X38467Y24883D01*
X38680Y25133D01*
X38787Y25508D01*
Y27300D01*
G01X39867Y24800D02*
Y27300D01*
X40507D01*
X40720Y27175D01*
X40880Y26883D01*
X40933Y26550D01*
X40880Y26217D01*
X40747Y25967D01*
X40507Y25842D01*
X39867D01*
G01X41933Y24800D02*
X42600Y27300D01*
X43267Y24800D01*
G01X43027Y25675D02*
X42173D01*
G01X47320Y24800D02*
Y27300D01*
X46333Y25508D01*
X47667D01*
G01X48613Y25300D02*
X48773Y25008D01*
X48987Y24842D01*
X49227Y24800D01*
X49440Y24842D01*
X49653Y25050D01*
X49787Y25300D01*
X49813Y25550D01*
X49760Y25842D01*
X49573Y26050D01*
X49387Y26133D01*
X49147D01*
G01X49387D02*
X49547Y26258D01*
X49680Y26467D01*
X49733Y26717D01*
X49680Y26967D01*
X49547Y27175D01*
X49307Y27300D01*
X49067Y27258D01*
X48827Y27092D01*
G01X50813Y25175D02*
X50973Y24967D01*
X51160Y24842D01*
X51400Y24800D01*
X51640Y24883D01*
X51827Y25050D01*
X51960Y25342D01*
X51987Y25675D01*
X51933Y26008D01*
X51800Y26217D01*
X51613Y26383D01*
X51427Y26425D01*
X51240Y26383D01*
X51000Y26217D01*
X51080Y27300D01*
X51800D01*
G01X54133Y24800D02*
X53067D01*
Y27300D01*
X54133D01*
G01X53707Y26092D02*
X53067D01*
G01X112698Y41716D02*
Y39217D01*
X112031D01*
X111818Y39342D01*
X111685Y39508D01*
X111631Y39842D01*
X111685Y40175D01*
X111845Y40383D01*
X112031Y40508D01*
X112698D01*
G01X112031D02*
X111631Y41716D01*
G01X109965D02*
Y39217D01*
X110285Y39717D01*
G01Y41716D02*
X109645D01*
G01X108271Y39633D02*
X108111Y39383D01*
X107925Y39258D01*
X107711Y39217D01*
X107445Y39300D01*
X107258Y39508D01*
X107205Y39758D01*
X107231Y40008D01*
X107338Y40217D01*
X107871Y40633D01*
X108111Y40925D01*
X108271Y41342D01*
X108325Y41716D01*
X107205D01*
G01X112698D02*
Y39217D01*
X112031D01*
X111818Y39342D01*
X111685Y39508D01*
X111631Y39842D01*
X111685Y40175D01*
X111845Y40383D01*
X112031Y40508D01*
X112698D01*
G01X112031D02*
X111631Y41716D01*
G01X109965D02*
Y39217D01*
X110285Y39717D01*
G01Y41716D02*
X109645D01*
G01X108271Y39633D02*
X108111Y39383D01*
X107925Y39258D01*
X107711Y39217D01*
X107445Y39300D01*
X107258Y39508D01*
X107205Y39758D01*
X107231Y40008D01*
X107338Y40217D01*
X107871Y40633D01*
X108111Y40925D01*
X108271Y41342D01*
X108325Y41716D01*
X107205D01*
G01X87200Y129000D02*
X87413Y128958D01*
X87600Y128792D01*
X87760Y128542D01*
X87867Y128250D01*
X87920Y127917D01*
Y127583D01*
X87867Y127250D01*
X87760Y126958D01*
X87600Y126708D01*
X87413Y126542D01*
X87200Y126500D01*
X86987Y126542D01*
X86800Y126708D01*
X86640Y126958D01*
X86533Y127250D01*
X86480Y127583D01*
Y127917D01*
X86533Y128250D01*
X86640Y128542D01*
X86800Y128792D01*
X86987Y128958D01*
X87200Y129000D01*
G01X86987Y128333D02*
X86667Y129000D01*
G01X85000D02*
Y126500D01*
X85320Y127000D01*
G01Y129000D02*
X84680D01*
G01X119200D02*
X119413Y128958D01*
X119600Y128792D01*
X119760Y128542D01*
X119867Y128250D01*
X119920Y127917D01*
Y127583D01*
X119867Y127250D01*
X119760Y126958D01*
X119600Y126708D01*
X119413Y126542D01*
X119200Y126500D01*
X118987Y126542D01*
X118800Y126708D01*
X118640Y126958D01*
X118533Y127250D01*
X118480Y127583D01*
Y127917D01*
X118533Y128250D01*
X118640Y128542D01*
X118800Y128792D01*
X118987Y128958D01*
X119200Y129000D01*
G01X118987Y128333D02*
X118667Y129000D01*
G01X117000D02*
Y126500D01*
X117320Y127000D01*
G01Y129000D02*
X116680D01*
G54D11*
G01X18165Y40000D02*
X13835D01*
G01X18165Y58000D02*
X13835D01*
G01X44134Y14642D02*
X35866D01*
G01X44134Y7358D02*
X35866D01*
G54D12*
G01X43301Y16906D02*
Y15528D01*
X42841D01*
X42658Y15596D01*
X42520Y15688D01*
X42405Y15826D01*
X42313Y15987D01*
X42290Y16216D01*
X42313Y16446D01*
X42405Y16607D01*
X42520Y16745D01*
X42658Y16837D01*
X42841Y16906D01*
X43301D01*
G01X41673Y15528D02*
X41122D01*
G01X41398D02*
Y16906D01*
G01X41673D02*
X41122D01*
G01X40000D02*
X40184Y16882D01*
X40344Y16791D01*
X40482Y16653D01*
X40574Y16492D01*
X40620Y16308D01*
Y16125D01*
X40574Y15941D01*
X40482Y15780D01*
X40344Y15642D01*
X40184Y15550D01*
X40000Y15528D01*
X39816Y15550D01*
X39656Y15642D01*
X39518Y15780D01*
X39426Y15941D01*
X39380Y16125D01*
Y16308D01*
X39426Y16492D01*
X39518Y16653D01*
X39656Y16791D01*
X39816Y16882D01*
X40000Y16906D01*
G01X39108D02*
Y15528D01*
X38648D01*
X38464Y15596D01*
X38327Y15688D01*
X38212Y15826D01*
X38120Y15987D01*
X38097Y16216D01*
X38120Y16446D01*
X38212Y16607D01*
X38327Y16745D01*
X38464Y16837D01*
X38648Y16906D01*
X39108D01*
G01X36745D02*
X37664D01*
Y15528D01*
X36745D01*
G01X37113Y16194D02*
X37664D01*
G01X41204Y6669D02*
Y5291D01*
X40745D01*
X40561Y5360D01*
X40423Y5452D01*
X40308Y5590D01*
X40217Y5751D01*
X40194Y5980D01*
X40217Y6210D01*
X40308Y6371D01*
X40423Y6509D01*
X40561Y6600D01*
X40745Y6669D01*
X41204D01*
G01X39301D02*
Y5291D01*
X39577Y5567D01*
G01Y6669D02*
X39026D01*
G54D13*
G01X11000Y32913D02*
X7063D01*
Y33898D01*
X7260Y34213D01*
X7522Y34410D01*
X8047Y34488D01*
X8572Y34410D01*
X8900Y34173D01*
X9097Y33898D01*
Y32913D01*
G01Y33898D02*
X11000Y34488D01*
G01X7063Y36063D02*
X11000D01*
Y37638D01*
G01Y40787D02*
Y39213D01*
X7063D01*
Y40787D01*
G01X8966Y40158D02*
Y39213D01*
G01X11000Y42283D02*
X7063D01*
Y43071D01*
X7260Y43386D01*
X7522Y43622D01*
X7916Y43819D01*
X8375Y43976D01*
X9032Y44016D01*
X9688Y43976D01*
X10147Y43819D01*
X10541Y43622D01*
X10803Y43386D01*
X11000Y43071D01*
Y42283D01*
G01Y46299D02*
X7063D01*
X7850Y45827D01*
G01X11000D02*
Y46772D01*
G01X25000Y42913D02*
X21063D01*
Y43898D01*
X21260Y44213D01*
X21522Y44410D01*
X22047Y44488D01*
X22572Y44410D01*
X22900Y44173D01*
X23097Y43898D01*
Y42913D01*
G01Y43898D02*
X25000Y44488D01*
G01X21063Y46063D02*
X25000D01*
Y47638D01*
G01Y50787D02*
Y49213D01*
X21063D01*
Y50787D01*
G01X22966Y50158D02*
Y49213D01*
G01X25000Y52284D02*
X21063D01*
Y53071D01*
X21260Y53386D01*
X21522Y53622D01*
X21916Y53819D01*
X22375Y53976D01*
X23032Y54016D01*
X23688Y53976D01*
X24147Y53819D01*
X24541Y53622D01*
X24803Y53386D01*
X25000Y53071D01*
Y52284D01*
G01X21719Y55551D02*
X21326Y55787D01*
X21129Y56063D01*
X21063Y56378D01*
X21194Y56772D01*
X21522Y57047D01*
X21916Y57126D01*
X22310Y57087D01*
X22638Y56929D01*
X23294Y56142D01*
X23753Y55787D01*
X24410Y55551D01*
X25000Y55472D01*
Y57126D01*
G01X11000Y50913D02*
X7063D01*
Y51898D01*
X7260Y52213D01*
X7522Y52410D01*
X8047Y52488D01*
X8572Y52410D01*
X8900Y52173D01*
X9097Y51898D01*
Y50913D01*
G01Y51898D02*
X11000Y52488D01*
G01X7063Y54063D02*
X11000D01*
Y55638D01*
G01Y58787D02*
Y57213D01*
X7063D01*
Y58787D01*
G01X8966Y58158D02*
Y57213D01*
G01X11000Y60284D02*
X7063D01*
Y61071D01*
X7260Y61386D01*
X7522Y61622D01*
X7916Y61819D01*
X8375Y61976D01*
X9032Y62016D01*
X9688Y61976D01*
X10147Y61819D01*
X10541Y61622D01*
X10803Y61386D01*
X11000Y61071D01*
Y60284D01*
G01X10213Y63433D02*
X10672Y63669D01*
X10934Y63984D01*
X11000Y64339D01*
X10934Y64654D01*
X10606Y64968D01*
X10213Y65165D01*
X9819Y65205D01*
X9360Y65126D01*
X9032Y64850D01*
X8900Y64575D01*
Y64220D01*
G01Y64575D02*
X8703Y64811D01*
X8375Y65008D01*
X7982Y65087D01*
X7588Y65008D01*
X7260Y64811D01*
X7063Y64457D01*
X7129Y64102D01*
X7391Y63748D01*
G01X19000Y65913D02*
X15063D01*
Y66898D01*
X15260Y67213D01*
X15522Y67410D01*
X16047Y67488D01*
X16572Y67410D01*
X16900Y67173D01*
X17097Y66898D01*
Y65913D01*
G01Y66898D02*
X19000Y67488D01*
G01X15063Y69063D02*
X19000D01*
Y70638D01*
G01Y73787D02*
Y72213D01*
X15063D01*
Y73787D01*
G01X16966Y73158D02*
Y72213D01*
G01X19000Y75284D02*
X15063D01*
Y76071D01*
X15260Y76386D01*
X15522Y76622D01*
X15916Y76819D01*
X16375Y76976D01*
X17032Y77016D01*
X17688Y76976D01*
X18147Y76819D01*
X18541Y76622D01*
X18803Y76386D01*
X19000Y76071D01*
Y75284D01*
G01Y79772D02*
X15063D01*
X17884Y78315D01*
Y80284D01*
G01X11000Y80913D02*
X7063D01*
Y81898D01*
X7260Y82213D01*
X7522Y82410D01*
X8047Y82488D01*
X8572Y82410D01*
X8900Y82173D01*
X9097Y81898D01*
Y80913D01*
G01Y81898D02*
X11000Y82488D01*
G01X7063Y84063D02*
X11000D01*
Y85638D01*
G01Y88787D02*
Y87213D01*
X7063D01*
Y88787D01*
G01X8966Y88158D02*
Y87213D01*
G01X11000Y90284D02*
X7063D01*
Y91071D01*
X7260Y91386D01*
X7522Y91622D01*
X7916Y91819D01*
X8375Y91976D01*
X9032Y92016D01*
X9688Y91976D01*
X10147Y91819D01*
X10541Y91622D01*
X10803Y91386D01*
X11000Y91071D01*
Y90284D01*
G01X10410Y93433D02*
X10738Y93669D01*
X10934Y93945D01*
X11000Y94299D01*
X10869Y94654D01*
X10606Y94929D01*
X10147Y95126D01*
X9622Y95165D01*
X9097Y95087D01*
X8769Y94890D01*
X8507Y94614D01*
X8441Y94339D01*
X8507Y94063D01*
X8769Y93709D01*
X7063Y93827D01*
Y94890D01*
G01X19000Y95913D02*
X15063D01*
Y96898D01*
X15260Y97213D01*
X15522Y97410D01*
X16047Y97488D01*
X16572Y97410D01*
X16900Y97173D01*
X17097Y96898D01*
Y95913D01*
G01Y96898D02*
X19000Y97488D01*
G01X15063Y99063D02*
X19000D01*
Y100638D01*
G01Y103787D02*
Y102213D01*
X15063D01*
Y103787D01*
G01X16966Y103158D02*
Y102213D01*
G01X19000Y105284D02*
X15063D01*
Y106071D01*
X15260Y106386D01*
X15522Y106622D01*
X15916Y106819D01*
X16375Y106976D01*
X17032Y107016D01*
X17688Y106976D01*
X18147Y106819D01*
X18541Y106622D01*
X18803Y106386D01*
X19000Y106071D01*
Y105284D01*
G01X17360Y108551D02*
X16900Y108827D01*
X16638Y109063D01*
X16507Y109378D01*
X16638Y109654D01*
X16900Y109850D01*
X17294Y110008D01*
X17753Y110047D01*
X18147Y110008D01*
X18541Y109850D01*
X18869Y109614D01*
X19000Y109339D01*
X18869Y109024D01*
X18475Y108748D01*
X17884Y108590D01*
X17228Y108551D01*
X16375Y108630D01*
X15916Y108748D01*
X15457Y108945D01*
X15129Y109220D01*
X15063Y109496D01*
X15194Y109772D01*
X15522Y109968D01*
G01X11000Y110913D02*
X7063D01*
Y111898D01*
X7260Y112213D01*
X7522Y112410D01*
X8047Y112488D01*
X8572Y112410D01*
X8900Y112173D01*
X9097Y111898D01*
Y110913D01*
G01Y111898D02*
X11000Y112488D01*
G01X7063Y114063D02*
X11000D01*
Y115638D01*
G01Y118787D02*
Y117213D01*
X7063D01*
Y118787D01*
G01X8966Y118158D02*
Y117213D01*
G01X11000Y120284D02*
X7063D01*
Y121071D01*
X7260Y121386D01*
X7522Y121622D01*
X7916Y121819D01*
X8375Y121976D01*
X9032Y122016D01*
X9688Y121976D01*
X10147Y121819D01*
X10541Y121622D01*
X10803Y121386D01*
X11000Y121071D01*
Y120284D01*
G01Y124220D02*
X10147Y124299D01*
X9425Y124417D01*
X8769Y124575D01*
X8047Y124772D01*
X7063Y125087D01*
Y123512D01*
G01X18000Y126913D02*
X14063D01*
Y127898D01*
X14260Y128213D01*
X14522Y128410D01*
X15047Y128488D01*
X15572Y128410D01*
X15900Y128173D01*
X16097Y127898D01*
Y126913D01*
G01Y127898D02*
X18000Y128488D01*
G01X14063Y130063D02*
X18000D01*
Y131638D01*
G01Y134787D02*
Y133213D01*
X14063D01*
Y134787D01*
G01X15966Y134158D02*
Y133213D01*
G01X18000Y136284D02*
X14063D01*
Y137071D01*
X14260Y137386D01*
X14522Y137622D01*
X14916Y137819D01*
X15375Y137976D01*
X16032Y138016D01*
X16688Y137976D01*
X17147Y137819D01*
X17541Y137622D01*
X17803Y137386D01*
X18000Y137071D01*
Y136284D01*
G01Y140299D02*
X17934Y140575D01*
X17738Y140890D01*
X17410Y141087D01*
X16950Y141165D01*
X16491Y141087D01*
X16097Y140850D01*
X15900Y140496D01*
Y140102D01*
X15769Y139866D01*
X15441Y139669D01*
X14982Y139590D01*
X14522Y139709D01*
X14194Y139984D01*
X14063Y140299D01*
X14194Y140614D01*
X14522Y140890D01*
X14982Y141008D01*
X15441Y140929D01*
X15769Y140732D01*
X15900Y140496D01*
Y140102D01*
X16097Y139748D01*
X16491Y139512D01*
X16950Y139433D01*
X17410Y139512D01*
X17738Y139709D01*
X17934Y140024D01*
X18000Y140299D01*
G01X51000Y52638D02*
X47063D01*
Y53622D01*
X47260Y53937D01*
X47522Y54134D01*
X48047Y54213D01*
X48572Y54134D01*
X48900Y53898D01*
X49097Y53622D01*
Y52638D01*
G01Y53622D02*
X51000Y54213D01*
G01Y57047D02*
X47063D01*
X49885Y55590D01*
Y57559D01*
G01X34000Y130638D02*
X30063D01*
Y131622D01*
X30260Y131937D01*
X30522Y132134D01*
X31047Y132213D01*
X31572Y132134D01*
X31900Y131898D01*
X32097Y131622D01*
Y130638D01*
G01Y131622D02*
X34000Y132213D01*
G01X33213Y133709D02*
X33672Y133945D01*
X33934Y134260D01*
X34000Y134614D01*
X33934Y134929D01*
X33606Y135244D01*
X33213Y135441D01*
X32819Y135480D01*
X32360Y135402D01*
X32032Y135126D01*
X31900Y134850D01*
Y134496D01*
G01Y134850D02*
X31703Y135087D01*
X31375Y135284D01*
X30982Y135362D01*
X30588Y135284D01*
X30260Y135087D01*
X30063Y134732D01*
X30129Y134378D01*
X30391Y134024D01*
G01X50000Y130638D02*
X46063D01*
Y131622D01*
X46260Y131937D01*
X46522Y132134D01*
X47047Y132213D01*
X47572Y132134D01*
X47900Y131898D01*
X48097Y131622D01*
Y130638D01*
G01Y131622D02*
X50000Y132213D01*
G01X46719Y133827D02*
X46326Y134063D01*
X46129Y134339D01*
X46063Y134654D01*
X46194Y135047D01*
X46522Y135323D01*
X46916Y135402D01*
X47310Y135362D01*
X47638Y135205D01*
X48294Y134417D01*
X48753Y134063D01*
X49410Y133827D01*
X50000Y133748D01*
Y135402D01*
G01X74000Y20638D02*
X70063D01*
Y21622D01*
X70260Y21937D01*
X70522Y22134D01*
X71047Y22213D01*
X71572Y22134D01*
X71900Y21898D01*
X72097Y21622D01*
Y20638D01*
G01Y21622D02*
X74000Y22213D01*
G01X72360Y23827D02*
X71900Y24102D01*
X71638Y24339D01*
X71507Y24654D01*
X71638Y24929D01*
X71900Y25126D01*
X72294Y25284D01*
X72753Y25323D01*
X73147Y25284D01*
X73541Y25126D01*
X73869Y24890D01*
X74000Y24614D01*
X73869Y24299D01*
X73475Y24024D01*
X72885Y23866D01*
X72228Y23827D01*
X71375Y23906D01*
X70916Y24024D01*
X70457Y24220D01*
X70129Y24496D01*
X70063Y24772D01*
X70194Y25047D01*
X70522Y25244D01*
G01X73000Y32638D02*
X69063D01*
Y33622D01*
X69260Y33937D01*
X69522Y34134D01*
X70047Y34213D01*
X70572Y34134D01*
X70900Y33898D01*
X71097Y33622D01*
Y32638D01*
G01Y33622D02*
X73000Y34213D01*
G01Y36496D02*
X72147Y36575D01*
X71425Y36693D01*
X70769Y36850D01*
X70047Y37047D01*
X69063Y37362D01*
Y35787D01*
G01X74000Y52638D02*
X70063D01*
Y53622D01*
X70260Y53937D01*
X70522Y54134D01*
X71047Y54213D01*
X71572Y54134D01*
X71900Y53898D01*
X72097Y53622D01*
Y52638D01*
G01Y53622D02*
X74000Y54213D01*
G01Y56575D02*
X73934Y56850D01*
X73738Y57165D01*
X73410Y57362D01*
X72950Y57441D01*
X72491Y57362D01*
X72097Y57126D01*
X71900Y56772D01*
Y56378D01*
X71769Y56142D01*
X71441Y55945D01*
X70982Y55866D01*
X70522Y55984D01*
X70194Y56260D01*
X70063Y56575D01*
X70194Y56890D01*
X70522Y57165D01*
X70982Y57284D01*
X71441Y57205D01*
X71769Y57008D01*
X71900Y56772D01*
Y56378D01*
X72097Y56024D01*
X72491Y55787D01*
X72950Y55709D01*
X73410Y55787D01*
X73738Y55984D01*
X73934Y56299D01*
X74000Y56575D01*
G01X73000Y130638D02*
X69063D01*
Y131622D01*
X69260Y131937D01*
X69522Y132134D01*
X70047Y132213D01*
X70572Y132134D01*
X70900Y131898D01*
X71097Y131622D01*
Y130638D01*
G01Y131622D02*
X73000Y132213D01*
G01Y134575D02*
X69063D01*
X69850Y134102D01*
G01X73000D02*
Y135047D01*
G01X110339Y15000D02*
Y18937D01*
X111323D01*
X111638Y18740D01*
X111835Y18478D01*
X111913Y17953D01*
X111835Y17428D01*
X111598Y17100D01*
X111323Y16903D01*
X110339D01*
G01X111323D02*
X111913Y15000D01*
G01X113488Y18937D02*
Y15000D01*
X115063D01*
G01X117425D02*
X117110Y15066D01*
X116835Y15328D01*
X116598Y15722D01*
X116441Y16181D01*
X116362Y16706D01*
Y17231D01*
X116441Y17756D01*
X116598Y18215D01*
X116835Y18609D01*
X117110Y18871D01*
X117425Y18937D01*
X117740Y18871D01*
X118016Y18609D01*
X118252Y18215D01*
X118410Y17756D01*
X118488Y17231D01*
Y16706D01*
X118410Y16181D01*
X118252Y15722D01*
X118016Y15328D01*
X117740Y15066D01*
X117425Y15000D01*
G01X119590D02*
X120575Y18937D01*
X121559Y15000D01*
G01X121205Y16378D02*
X119945D01*
G01X122858Y15000D02*
Y18937D01*
X123646D01*
X123961Y18740D01*
X124197Y18478D01*
X124394Y18084D01*
X124551Y17625D01*
X124590Y16968D01*
X124551Y16312D01*
X124394Y15853D01*
X124197Y15459D01*
X123961Y15197D01*
X123646Y15000D01*
X122858D01*
G01X126874D02*
Y18937D01*
X126402Y18150D01*
G01Y15000D02*
X127346D01*
G01X92638Y37000D02*
Y40937D01*
X93622D01*
X93937Y40740D01*
X94134Y40478D01*
X94213Y39953D01*
X94134Y39428D01*
X93898Y39100D01*
X93622Y38903D01*
X92638D01*
G01X93622D02*
X94213Y37000D01*
G01X95709Y37590D02*
X95945Y37262D01*
X96220Y37066D01*
X96575Y37000D01*
X96929Y37131D01*
X97205Y37394D01*
X97402Y37853D01*
X97441Y38378D01*
X97362Y38903D01*
X97165Y39231D01*
X96890Y39493D01*
X96614Y39559D01*
X96339Y39493D01*
X95984Y39231D01*
X96102Y40937D01*
X97165D01*
G01X135000Y6339D02*
X131063D01*
Y7323D01*
X131260Y7638D01*
X131522Y7835D01*
X132047Y7913D01*
X132572Y7835D01*
X132900Y7598D01*
X133097Y7323D01*
Y6339D01*
G01Y7323D02*
X135000Y7913D01*
G01X131063Y9488D02*
X135000D01*
Y11063D01*
G01Y13425D02*
X134934Y13110D01*
X134672Y12835D01*
X134278Y12598D01*
X133819Y12441D01*
X133294Y12362D01*
X132769D01*
X132244Y12441D01*
X131785Y12598D01*
X131391Y12835D01*
X131129Y13110D01*
X131063Y13425D01*
X131129Y13740D01*
X131391Y14016D01*
X131785Y14252D01*
X132244Y14410D01*
X132769Y14488D01*
X133294D01*
X133819Y14410D01*
X134278Y14252D01*
X134672Y14016D01*
X134934Y13740D01*
X135000Y13425D01*
G01Y15591D02*
X131063Y16575D01*
X135000Y17559D01*
G01X133622Y17205D02*
Y15945D01*
G01X135000Y18858D02*
X131063D01*
Y19646D01*
X131260Y19961D01*
X131522Y20197D01*
X131916Y20394D01*
X132375Y20551D01*
X133032Y20590D01*
X133688Y20551D01*
X134147Y20394D01*
X134541Y20197D01*
X134803Y19961D01*
X135000Y19646D01*
Y18858D01*
G01X131719Y22126D02*
X131326Y22362D01*
X131129Y22638D01*
X131063Y22953D01*
X131194Y23346D01*
X131522Y23622D01*
X131916Y23701D01*
X132310Y23661D01*
X132638Y23504D01*
X133294Y22716D01*
X133753Y22362D01*
X134410Y22126D01*
X135000Y22047D01*
Y23701D01*
G01X136000Y39339D02*
X132063D01*
Y40323D01*
X132260Y40638D01*
X132522Y40835D01*
X133047Y40913D01*
X133572Y40835D01*
X133900Y40598D01*
X134097Y40323D01*
Y39339D01*
G01Y40323D02*
X136000Y40913D01*
G01X132063Y42488D02*
X136000D01*
Y44063D01*
G01Y46425D02*
X135934Y46110D01*
X135672Y45835D01*
X135278Y45598D01*
X134819Y45441D01*
X134294Y45362D01*
X133769D01*
X133244Y45441D01*
X132785Y45598D01*
X132391Y45835D01*
X132129Y46110D01*
X132063Y46425D01*
X132129Y46740D01*
X132391Y47016D01*
X132785Y47252D01*
X133244Y47410D01*
X133769Y47488D01*
X134294D01*
X134819Y47410D01*
X135278Y47252D01*
X135672Y47016D01*
X135934Y46740D01*
X136000Y46425D01*
G01Y48590D02*
X132063Y49575D01*
X136000Y50559D01*
G01X134622Y50205D02*
Y48945D01*
G01X136000Y51858D02*
X132063D01*
Y52646D01*
X132260Y52961D01*
X132522Y53197D01*
X132916Y53394D01*
X133375Y53551D01*
X134032Y53590D01*
X134688Y53551D01*
X135147Y53394D01*
X135541Y53197D01*
X135803Y52961D01*
X136000Y52646D01*
Y51858D01*
G01Y56346D02*
X132063D01*
X134884Y54890D01*
Y56858D01*
G01X142000Y23339D02*
X138063D01*
Y24323D01*
X138260Y24638D01*
X138522Y24835D01*
X139047Y24913D01*
X139572Y24835D01*
X139900Y24598D01*
X140097Y24323D01*
Y23339D01*
G01Y24323D02*
X142000Y24913D01*
G01X138063Y26488D02*
X142000D01*
Y28063D01*
G01Y30425D02*
X141934Y30110D01*
X141672Y29835D01*
X141278Y29598D01*
X140819Y29441D01*
X140294Y29362D01*
X139769D01*
X139244Y29441D01*
X138785Y29598D01*
X138391Y29835D01*
X138129Y30110D01*
X138063Y30425D01*
X138129Y30740D01*
X138391Y31016D01*
X138785Y31252D01*
X139244Y31410D01*
X139769Y31488D01*
X140294D01*
X140819Y31410D01*
X141278Y31252D01*
X141672Y31016D01*
X141934Y30740D01*
X142000Y30425D01*
G01Y32590D02*
X138063Y33575D01*
X142000Y34559D01*
G01X140622Y34205D02*
Y32945D01*
G01X142000Y35858D02*
X138063D01*
Y36646D01*
X138260Y36961D01*
X138522Y37197D01*
X138916Y37394D01*
X139375Y37551D01*
X140032Y37590D01*
X140688Y37551D01*
X141147Y37394D01*
X141541Y37197D01*
X141803Y36961D01*
X142000Y36646D01*
Y35858D01*
G01X141213Y39008D02*
X141672Y39244D01*
X141934Y39559D01*
X142000Y39913D01*
X141934Y40228D01*
X141606Y40543D01*
X141213Y40740D01*
X140819Y40780D01*
X140360Y40701D01*
X140032Y40425D01*
X139900Y40150D01*
Y39795D01*
G01Y40150D02*
X139703Y40386D01*
X139375Y40583D01*
X138982Y40661D01*
X138588Y40583D01*
X138260Y40386D01*
X138063Y40032D01*
X138129Y39677D01*
X138391Y39323D01*
G01X136000Y74339D02*
X132063D01*
Y75323D01*
X132260Y75638D01*
X132522Y75835D01*
X133047Y75913D01*
X133572Y75835D01*
X133900Y75598D01*
X134097Y75323D01*
Y74339D01*
G01Y75323D02*
X136000Y75913D01*
G01X132063Y77488D02*
X136000D01*
Y79063D01*
G01Y81425D02*
X135934Y81110D01*
X135672Y80835D01*
X135278Y80598D01*
X134819Y80441D01*
X134294Y80362D01*
X133769D01*
X133244Y80441D01*
X132785Y80598D01*
X132391Y80835D01*
X132129Y81110D01*
X132063Y81425D01*
X132129Y81740D01*
X132391Y82016D01*
X132785Y82252D01*
X133244Y82410D01*
X133769Y82488D01*
X134294D01*
X134819Y82410D01*
X135278Y82252D01*
X135672Y82016D01*
X135934Y81740D01*
X136000Y81425D01*
G01Y83590D02*
X132063Y84575D01*
X136000Y85559D01*
G01X134622Y85205D02*
Y83945D01*
G01X136000Y86858D02*
X132063D01*
Y87646D01*
X132260Y87961D01*
X132522Y88197D01*
X132916Y88394D01*
X133375Y88551D01*
X134032Y88590D01*
X134688Y88551D01*
X135147Y88394D01*
X135541Y88197D01*
X135803Y87961D01*
X136000Y87646D01*
Y86858D01*
G01X134360Y90126D02*
X133900Y90402D01*
X133638Y90638D01*
X133507Y90953D01*
X133638Y91228D01*
X133900Y91425D01*
X134294Y91583D01*
X134753Y91622D01*
X135147Y91583D01*
X135541Y91425D01*
X135869Y91189D01*
X136000Y90913D01*
X135869Y90598D01*
X135475Y90323D01*
X134884Y90165D01*
X134228Y90126D01*
X133375Y90205D01*
X132916Y90323D01*
X132457Y90520D01*
X132129Y90795D01*
X132063Y91071D01*
X132194Y91346D01*
X132522Y91543D01*
G01X142000Y57339D02*
X138063D01*
Y58323D01*
X138260Y58638D01*
X138522Y58835D01*
X139047Y58913D01*
X139572Y58835D01*
X139900Y58598D01*
X140097Y58323D01*
Y57339D01*
G01Y58323D02*
X142000Y58913D01*
G01X138063Y60488D02*
X142000D01*
Y62063D01*
G01Y64425D02*
X141934Y64110D01*
X141672Y63835D01*
X141278Y63598D01*
X140819Y63441D01*
X140294Y63362D01*
X139769D01*
X139244Y63441D01*
X138785Y63598D01*
X138391Y63835D01*
X138129Y64110D01*
X138063Y64425D01*
X138129Y64740D01*
X138391Y65016D01*
X138785Y65252D01*
X139244Y65410D01*
X139769Y65488D01*
X140294D01*
X140819Y65410D01*
X141278Y65252D01*
X141672Y65016D01*
X141934Y64740D01*
X142000Y64425D01*
G01Y66590D02*
X138063Y67575D01*
X142000Y68559D01*
G01X140622Y68205D02*
Y66945D01*
G01X142000Y69858D02*
X138063D01*
Y70646D01*
X138260Y70961D01*
X138522Y71197D01*
X138916Y71394D01*
X139375Y71551D01*
X140032Y71590D01*
X140688Y71551D01*
X141147Y71394D01*
X141541Y71197D01*
X141803Y70961D01*
X142000Y70646D01*
Y69858D01*
G01X141410Y73008D02*
X141738Y73244D01*
X141934Y73520D01*
X142000Y73874D01*
X141869Y74228D01*
X141606Y74504D01*
X141147Y74701D01*
X140622Y74740D01*
X140097Y74661D01*
X139769Y74464D01*
X139507Y74189D01*
X139441Y73913D01*
X139507Y73638D01*
X139769Y73284D01*
X138063Y73402D01*
Y74464D01*
G01X143000Y111063D02*
X139063D01*
Y112047D01*
X139260Y112362D01*
X139522Y112559D01*
X140047Y112638D01*
X140572Y112559D01*
X140900Y112323D01*
X141097Y112047D01*
Y111063D01*
G01Y112047D02*
X143000Y112638D01*
G01Y115000D02*
X139063D01*
X139850Y114528D01*
G01X143000D02*
Y115472D01*
G01X139063Y118150D02*
X139194Y117835D01*
X139522Y117598D01*
X139916Y117441D01*
X140441Y117323D01*
X141032Y117284D01*
X141622Y117323D01*
X142147Y117441D01*
X142541Y117598D01*
X142869Y117835D01*
X143000Y118150D01*
X142869Y118464D01*
X142541Y118701D01*
X142147Y118858D01*
X141622Y118976D01*
X141032Y119016D01*
X140441Y118976D01*
X139916Y118858D01*
X139522Y118701D01*
X139194Y118464D01*
X139063Y118150D01*
G01X143000Y96063D02*
X139063D01*
Y97047D01*
X139260Y97362D01*
X139522Y97559D01*
X140047Y97638D01*
X140572Y97559D01*
X140900Y97323D01*
X141097Y97047D01*
Y96063D01*
G01Y97047D02*
X143000Y97638D01*
G01Y100000D02*
X139063D01*
X139850Y99528D01*
G01X143000D02*
Y100472D01*
G01Y103150D02*
X139063D01*
X139850Y102677D01*
G01X143000D02*
Y103622D01*
G01Y128638D02*
X139063D01*
Y129622D01*
X139260Y129937D01*
X139522Y130134D01*
X140047Y130213D01*
X140572Y130134D01*
X140900Y129898D01*
X141097Y129622D01*
Y128638D01*
G01Y129622D02*
X143000Y130213D01*
G01X142541Y131906D02*
X142869Y132181D01*
X143000Y132496D01*
X142869Y132811D01*
X142475Y133087D01*
X141884Y133284D01*
X141294Y133362D01*
X140572D01*
X139982Y133284D01*
X139457Y133087D01*
X139194Y132850D01*
X139063Y132575D01*
X139194Y132260D01*
X139457Y132024D01*
X139850Y131866D01*
X140375Y131787D01*
X140835Y131866D01*
X141294Y132063D01*
X141557Y132299D01*
X141622Y132575D01*
X141491Y132890D01*
X141163Y133126D01*
X140572Y133362D01*
G54D14*
G01X47185Y6669D02*
G02I-492J0D01*
G54D15*
G01X26165Y73000D02*
X21835D01*
G01X18165Y88000D02*
X13835D01*
G01X26165Y103000D02*
X21835D01*
G01X18165Y118000D02*
X13835D01*
G01X26165Y133000D02*
X21835D01*
G01X32165Y50000D02*
X27835D01*
G01X41165Y133000D02*
X36835D01*
G01X81165Y23000D02*
X76835D01*
G01X81165Y39000D02*
X76835D01*
G01X58165Y55000D02*
X53835D01*
G01X81165D02*
X76835D01*
G01X57165Y133000D02*
X52835D01*
G01X80165D02*
X75835D01*
G01X95000Y29835D02*
Y34165D01*
G01X103122Y49000D02*
Y57858D01*
G01Y47622D02*
G03X109028Y53528I0J5906D01*
G03X102925Y59433I-5909J0D01*
G03X97216Y53528I193J-5899D01*
G03X103122Y47622I5906J0D01*
G01X112965Y48016D02*
Y43685D01*
X93280D01*
Y44866D01*
G01X107650Y53528D02*
X98594D01*
G01X93280Y52543D02*
Y54512D01*
G01X112965Y59039D02*
Y63370D01*
X93280D01*
Y62189D01*
G01X89953Y108252D02*
Y82661D01*
X115937D01*
Y108252D01*
G01X119000Y7835D02*
Y12165D01*
G01X142165Y15000D02*
X137835D01*
G01X143165Y49000D02*
X138835D01*
G01X143165Y83000D02*
X138835D01*
G01X113181Y132268D02*
G03I-394J0D01*
G01X149165Y32000D02*
X144835D01*
G01X149165Y66000D02*
X144835D01*
G01X150165Y100000D02*
X145835D01*
G01X150165Y130000D02*
X145835D01*
G01X150165Y115000D02*
X145835D01*
G54D16*
G01X29507Y74000D02*
Y79000D01*
X30773D01*
X31280Y78750D01*
X31660Y78417D01*
X31977Y77917D01*
X32230Y77333D01*
X32293Y76500D01*
X32230Y75667D01*
X31977Y75083D01*
X31660Y74583D01*
X31280Y74250D01*
X30773Y74000D01*
X29507D01*
G01X34797Y79000D02*
X37203D01*
X34797Y74000D01*
X37203D01*
G01X39897Y78167D02*
X40277Y78667D01*
X40720Y78917D01*
X41227Y79000D01*
X41860Y78833D01*
X42303Y78417D01*
X42430Y77917D01*
X42367Y77416D01*
X42113Y77000D01*
X40847Y76167D01*
X40277Y75583D01*
X39897Y74750D01*
X39770Y74000D01*
X42430D01*
G01X52900Y65000D02*
X52393Y65083D01*
X51950Y65417D01*
X51570Y65917D01*
X51317Y66500D01*
X51190Y67167D01*
Y67833D01*
X51317Y68500D01*
X51570Y69083D01*
X51950Y69583D01*
X52393Y69917D01*
X52900Y70000D01*
X53407Y69917D01*
X53850Y69583D01*
X54230Y69083D01*
X54483Y68500D01*
X54610Y67833D01*
Y67167D01*
X54483Y66500D01*
X54230Y65917D01*
X53850Y65417D01*
X53407Y65083D01*
X52900Y65000D01*
G01X53407Y66333D02*
X54167Y65000D01*
G01X56607Y66000D02*
X56987Y65417D01*
X57493Y65083D01*
X58063Y65000D01*
X58570Y65083D01*
X59077Y65500D01*
X59393Y66000D01*
X59457Y66500D01*
X59330Y67083D01*
X58887Y67500D01*
X58443Y67667D01*
X57873D01*
G01X58443D02*
X58823Y67917D01*
X59140Y68333D01*
X59267Y68833D01*
X59140Y69333D01*
X58823Y69750D01*
X58253Y70000D01*
X57683Y69917D01*
X57113Y69583D01*
G01X29507Y95000D02*
Y100000D01*
X30773D01*
X31280Y99750D01*
X31660Y99417D01*
X31977Y98917D01*
X32230Y98333D01*
X32293Y97500D01*
X32230Y96667D01*
X31977Y96083D01*
X31660Y95583D01*
X31280Y95250D01*
X30773Y95000D01*
X29507D01*
G01X34797Y100000D02*
X37203D01*
X34797Y95000D01*
X37203D01*
G01X41100D02*
Y100000D01*
X40340Y99000D01*
G01Y95000D02*
X41860D01*
G01X52900Y84000D02*
X52393Y84083D01*
X51950Y84417D01*
X51570Y84917D01*
X51317Y85500D01*
X51190Y86167D01*
Y86833D01*
X51317Y87500D01*
X51570Y88083D01*
X51950Y88583D01*
X52393Y88917D01*
X52900Y89000D01*
X53407Y88917D01*
X53850Y88583D01*
X54230Y88083D01*
X54483Y87500D01*
X54610Y86833D01*
Y86167D01*
X54483Y85500D01*
X54230Y84917D01*
X53850Y84417D01*
X53407Y84083D01*
X52900Y84000D01*
G01X53407Y85333D02*
X54167Y84000D01*
G01X56797Y88167D02*
X57177Y88667D01*
X57620Y88917D01*
X58127Y89000D01*
X58760Y88833D01*
X59203Y88417D01*
X59330Y87917D01*
X59267Y87416D01*
X59013Y87000D01*
X57747Y86167D01*
X57177Y85583D01*
X56797Y84750D01*
X56670Y84000D01*
X59330D01*
G01X52900Y103000D02*
X52393Y103083D01*
X51950Y103417D01*
X51570Y103917D01*
X51317Y104500D01*
X51190Y105167D01*
Y105833D01*
X51317Y106500D01*
X51570Y107083D01*
X51950Y107583D01*
X52393Y107917D01*
X52900Y108000D01*
X53407Y107917D01*
X53850Y107583D01*
X54230Y107083D01*
X54483Y106500D01*
X54610Y105833D01*
Y105167D01*
X54483Y104500D01*
X54230Y103917D01*
X53850Y103417D01*
X53407Y103083D01*
X52900Y103000D01*
G01X53407Y104333D02*
X54167Y103000D01*
G01X56607Y103750D02*
X56987Y103333D01*
X57430Y103083D01*
X58000Y103000D01*
X58570Y103167D01*
X59013Y103500D01*
X59330Y104083D01*
X59393Y104750D01*
X59267Y105417D01*
X58950Y105833D01*
X58507Y106167D01*
X58063Y106250D01*
X57620Y106167D01*
X57050Y105833D01*
X57240Y108000D01*
X58950D01*
G01X75900Y65000D02*
X75393Y65083D01*
X74950Y65417D01*
X74570Y65917D01*
X74317Y66500D01*
X74190Y67167D01*
Y67833D01*
X74317Y68500D01*
X74570Y69083D01*
X74950Y69583D01*
X75393Y69917D01*
X75900Y70000D01*
X76407Y69917D01*
X76850Y69583D01*
X77230Y69083D01*
X77483Y68500D01*
X77610Y67833D01*
Y67167D01*
X77483Y66500D01*
X77230Y65917D01*
X76850Y65417D01*
X76407Y65083D01*
X75900Y65000D01*
G01X76407Y66333D02*
X77167Y65000D01*
G01X81000D02*
X81443Y65083D01*
X81950Y65333D01*
X82267Y65750D01*
X82393Y66333D01*
X82267Y66917D01*
X81887Y67417D01*
X81317Y67667D01*
X80683D01*
X80303Y67833D01*
X79987Y68250D01*
X79860Y68833D01*
X80050Y69417D01*
X80493Y69833D01*
X81000Y70000D01*
X81507Y69833D01*
X81950Y69417D01*
X82140Y68833D01*
X82013Y68250D01*
X81697Y67833D01*
X81317Y67667D01*
X80683D01*
X80113Y67417D01*
X79733Y66917D01*
X79607Y66333D01*
X79733Y65750D01*
X80050Y65333D01*
X80557Y65083D01*
X81000Y65000D01*
G01X75900Y103000D02*
X75393Y103083D01*
X74950Y103417D01*
X74570Y103917D01*
X74317Y104500D01*
X74190Y105167D01*
Y105833D01*
X74317Y106500D01*
X74570Y107083D01*
X74950Y107583D01*
X75393Y107917D01*
X75900Y108000D01*
X76407Y107917D01*
X76850Y107583D01*
X77230Y107083D01*
X77483Y106500D01*
X77610Y105833D01*
Y105167D01*
X77483Y104500D01*
X77230Y103917D01*
X76850Y103417D01*
X76407Y103083D01*
X75900Y103000D01*
G01X76407Y104333D02*
X77167Y103000D01*
G01X79797Y105083D02*
X80240Y105667D01*
X80620Y106000D01*
X81127Y106167D01*
X81570Y106000D01*
X81887Y105667D01*
X82140Y105167D01*
X82203Y104583D01*
X82140Y104083D01*
X81887Y103583D01*
X81507Y103167D01*
X81063Y103000D01*
X80557Y103167D01*
X80113Y103666D01*
X79860Y104417D01*
X79797Y105250D01*
X79923Y106333D01*
X80113Y106917D01*
X80430Y107500D01*
X80873Y107917D01*
X81317Y108000D01*
X81760Y107833D01*
X82077Y107417D01*
G01X75900Y84000D02*
X75393Y84083D01*
X74950Y84417D01*
X74570Y84917D01*
X74317Y85500D01*
X74190Y86167D01*
Y86833D01*
X74317Y87500D01*
X74570Y88083D01*
X74950Y88583D01*
X75393Y88917D01*
X75900Y89000D01*
X76407Y88917D01*
X76850Y88583D01*
X77230Y88083D01*
X77483Y87500D01*
X77610Y86833D01*
Y86167D01*
X77483Y85500D01*
X77230Y84917D01*
X76850Y84417D01*
X76407Y84083D01*
X75900Y84000D01*
G01X76407Y85333D02*
X77167Y84000D01*
G01X81760D02*
Y89000D01*
X79417Y85417D01*
X82583D01*
G01X102900Y71000D02*
X102393Y71083D01*
X101950Y71417D01*
X101570Y71917D01*
X101317Y72500D01*
X101190Y73167D01*
Y73833D01*
X101317Y74500D01*
X101570Y75083D01*
X101950Y75583D01*
X102393Y75917D01*
X102900Y76000D01*
X103407Y75917D01*
X103850Y75583D01*
X104230Y75083D01*
X104483Y74500D01*
X104610Y73833D01*
Y73167D01*
X104483Y72500D01*
X104230Y71917D01*
X103850Y71417D01*
X103407Y71083D01*
X102900Y71000D01*
G01X103407Y72333D02*
X104167Y71000D01*
G01X107873D02*
X108000Y72083D01*
X108190Y73000D01*
X108443Y73833D01*
X108760Y74750D01*
X109267Y76000D01*
X106733D01*
G01X129900Y108000D02*
X129393Y108083D01*
X128950Y108417D01*
X128570Y108917D01*
X128317Y109500D01*
X128190Y110167D01*
Y110833D01*
X128317Y111500D01*
X128570Y112083D01*
X128950Y112583D01*
X129393Y112917D01*
X129900Y113000D01*
X130407Y112917D01*
X130850Y112583D01*
X131230Y112083D01*
X131483Y111500D01*
X131610Y110833D01*
Y110167D01*
X131483Y109500D01*
X131230Y108917D01*
X130850Y108417D01*
X130407Y108083D01*
X129900Y108000D01*
G01X130407Y109333D02*
X131167Y108000D01*
G01X133923Y108583D02*
X134367Y108167D01*
X134873Y108000D01*
X135380Y108167D01*
X135823Y108666D01*
X136140Y109417D01*
X136267Y110167D01*
Y111083D01*
X136140Y111833D01*
X135823Y112500D01*
X135443Y112833D01*
X135000Y113000D01*
X134493Y112833D01*
X134113Y112500D01*
X133860Y112000D01*
X133733Y111333D01*
X133860Y110750D01*
X134177Y110167D01*
X134557Y109833D01*
X135000Y109750D01*
X135507Y109917D01*
X135887Y110333D01*
X136267Y111083D01*
G54D17*
G01X11589Y142627D02*
X11491Y142676D01*
X11376Y142709D01*
X11245D01*
X11097Y142660D01*
X10982Y142578D01*
X10900Y142479D01*
X10834Y142315D01*
X10818Y142167D01*
X10851Y142020D01*
X10900Y141921D01*
X10998Y141823D01*
X11113Y141757D01*
X11228Y141724D01*
X11343D01*
X11458Y141757D01*
X11556Y141806D01*
X11638Y141872D01*
G01X12409Y141724D02*
X12278Y141741D01*
X12163Y141806D01*
X12065Y141905D01*
X11999Y142020D01*
X11966Y142151D01*
Y142282D01*
X11999Y142413D01*
X12065Y142528D01*
X12163Y142627D01*
X12278Y142692D01*
X12409Y142709D01*
X12541Y142692D01*
X12655Y142627D01*
X12754Y142528D01*
X12820Y142413D01*
X12852Y142282D01*
Y142151D01*
X12820Y142020D01*
X12754Y141905D01*
X12655Y141806D01*
X12541Y141741D01*
X12409Y141724D01*
G01X13213D02*
Y142709D01*
X13968Y141724D01*
Y142709D01*
G01X14772Y141724D02*
Y142709D01*
X14575Y142512D01*
G01Y141724D02*
X14969D01*
G01X11409Y152197D02*
X11819Y151213D01*
X12229Y152197D01*
G01X12803D02*
X13197D01*
G01X13000D02*
Y151213D01*
G01X12803D02*
X13197D01*
G01X13804D02*
Y152197D01*
X14559Y151213D01*
Y152197D01*
G01X37589Y111627D02*
X37491Y111676D01*
X37376Y111709D01*
X37245D01*
X37097Y111660D01*
X36982Y111578D01*
X36900Y111479D01*
X36834Y111315D01*
X36818Y111167D01*
X36851Y111020D01*
X36900Y110921D01*
X36998Y110823D01*
X37113Y110757D01*
X37228Y110724D01*
X37343D01*
X37458Y110757D01*
X37556Y110806D01*
X37638Y110872D01*
G01X38409Y110724D02*
X38278Y110741D01*
X38163Y110806D01*
X38065Y110905D01*
X37999Y111020D01*
X37966Y111151D01*
Y111282D01*
X37999Y111413D01*
X38065Y111528D01*
X38163Y111627D01*
X38278Y111692D01*
X38409Y111709D01*
X38541Y111692D01*
X38655Y111627D01*
X38754Y111528D01*
X38820Y111413D01*
X38852Y111282D01*
Y111151D01*
X38820Y111020D01*
X38754Y110905D01*
X38655Y110806D01*
X38541Y110741D01*
X38409Y110724D01*
G01X39213D02*
Y111709D01*
X39968Y110724D01*
Y111709D01*
G01X40772Y110724D02*
Y111709D01*
X40575Y111512D01*
G01Y110724D02*
X40969D01*
G01X36818Y121197D02*
X37228Y120213D01*
X37638Y121197D01*
G01X38081Y120213D02*
Y121197D01*
X38491D01*
X38623Y121148D01*
X38705Y121082D01*
X38738Y120951D01*
X38705Y120820D01*
X38606Y120738D01*
X38491Y120688D01*
X38081D01*
G01X38491D02*
X38738Y120213D01*
G01X39919D02*
X39262D01*
Y121197D01*
X39919D01*
G01X39656Y120721D02*
X39262D01*
G01X40460Y120213D02*
Y121197D01*
X41084D01*
G01X40854Y120721D02*
X40460D01*
G01X64589Y6627D02*
X64491Y6676D01*
X64376Y6709D01*
X64245D01*
X64097Y6660D01*
X63982Y6578D01*
X63900Y6479D01*
X63834Y6315D01*
X63818Y6167D01*
X63851Y6020D01*
X63900Y5921D01*
X63998Y5823D01*
X64113Y5757D01*
X64228Y5724D01*
X64343D01*
X64458Y5757D01*
X64556Y5806D01*
X64638Y5872D01*
G01X65409Y5724D02*
X65278Y5741D01*
X65163Y5806D01*
X65065Y5905D01*
X64999Y6020D01*
X64966Y6151D01*
Y6282D01*
X64999Y6413D01*
X65065Y6528D01*
X65163Y6627D01*
X65278Y6692D01*
X65409Y6709D01*
X65541Y6692D01*
X65655Y6627D01*
X65754Y6528D01*
X65820Y6413D01*
X65852Y6282D01*
Y6151D01*
X65820Y6020D01*
X65754Y5905D01*
X65655Y5806D01*
X65541Y5741D01*
X65409Y5724D01*
G01X66213D02*
Y6709D01*
X66968Y5724D01*
Y6709D01*
G01X67772Y5724D02*
Y6709D01*
X67575Y6512D01*
G01Y5724D02*
X67969D01*
G01X64999Y16197D02*
X65409Y15213D01*
X65820Y16197D01*
G01X66590D02*
X66459Y16164D01*
X66361Y16082D01*
X66295Y15984D01*
X66246Y15852D01*
X66230Y15705D01*
X66246Y15557D01*
X66295Y15426D01*
X66361Y15327D01*
X66459Y15245D01*
X66590Y15213D01*
X66722Y15245D01*
X66820Y15327D01*
X66886Y15426D01*
X66935Y15557D01*
X66952Y15705D01*
X66935Y15852D01*
X66886Y15984D01*
X66820Y16082D01*
X66722Y16164D01*
X66590Y16197D01*
G01X90589Y6627D02*
X90491Y6676D01*
X90376Y6709D01*
X90245D01*
X90097Y6660D01*
X89982Y6578D01*
X89900Y6479D01*
X89834Y6315D01*
X89818Y6167D01*
X89851Y6020D01*
X89900Y5921D01*
X89998Y5823D01*
X90113Y5757D01*
X90228Y5724D01*
X90343D01*
X90458Y5757D01*
X90556Y5806D01*
X90638Y5872D01*
G01X91409Y5724D02*
X91278Y5741D01*
X91163Y5806D01*
X91065Y5905D01*
X90999Y6020D01*
X90966Y6151D01*
Y6282D01*
X90999Y6413D01*
X91065Y6528D01*
X91163Y6627D01*
X91278Y6692D01*
X91409Y6709D01*
X91541Y6692D01*
X91655Y6627D01*
X91754Y6528D01*
X91820Y6413D01*
X91852Y6282D01*
Y6151D01*
X91820Y6020D01*
X91754Y5905D01*
X91655Y5806D01*
X91541Y5741D01*
X91409Y5724D01*
G01X92213D02*
Y6709D01*
X92968Y5724D01*
Y6709D01*
G01X93772Y5724D02*
Y6709D01*
X93575Y6512D01*
G01Y5724D02*
X93969D01*
G01X89802Y15213D02*
Y16197D01*
X90228Y15377D01*
X90655Y16197D01*
Y15213D01*
G01X90999D02*
X91409Y16197D01*
X91820Y15213D01*
G01X91672Y15557D02*
X91147D01*
G01X92246Y15344D02*
X92377Y15262D01*
X92525Y15213D01*
X92656D01*
X92787Y15262D01*
X92886Y15344D01*
X92935Y15459D01*
X92902Y15574D01*
X92820Y15672D01*
X92673Y15738D01*
X92476Y15770D01*
X92361Y15836D01*
X92312Y15951D01*
X92344Y16066D01*
X92426Y16148D01*
X92541Y16197D01*
X92656D01*
X92771Y16164D01*
X92870Y16082D01*
G01X93362Y15213D02*
X93772Y16197D01*
X94182Y15213D01*
G01X94034Y15557D02*
X93509D01*
G01X118627Y90411D02*
X118676Y90509D01*
X118709Y90624D01*
Y90755D01*
X118660Y90903D01*
X118578Y91018D01*
X118479Y91100D01*
X118315Y91166D01*
X118167Y91182D01*
X118020Y91149D01*
X117921Y91100D01*
X117823Y91002D01*
X117757Y90887D01*
X117724Y90772D01*
Y90657D01*
X117757Y90542D01*
X117806Y90444D01*
X117872Y90362D01*
G01X117724Y89591D02*
X117741Y89722D01*
X117806Y89837D01*
X117905Y89935D01*
X118020Y90001D01*
X118151Y90034D01*
X118282D01*
X118413Y90001D01*
X118528Y89935D01*
X118627Y89837D01*
X118692Y89722D01*
X118709Y89591D01*
X118692Y89459D01*
X118627Y89345D01*
X118528Y89246D01*
X118413Y89180D01*
X118282Y89148D01*
X118151D01*
X118020Y89180D01*
X117905Y89246D01*
X117806Y89345D01*
X117741Y89459D01*
X117724Y89591D01*
G01Y88787D02*
X118709D01*
X117724Y88032D01*
X118709D01*
G01X117724Y87228D02*
X118709D01*
X118512Y87425D01*
G01X117724D02*
Y87031D01*
G01X128197Y91182D02*
X127213Y90772D01*
X128197Y90362D01*
G01X127213Y89591D02*
X127229Y89722D01*
X127295Y89837D01*
X127393Y89935D01*
X127508Y90001D01*
X127639Y90034D01*
X127770D01*
X127902Y90001D01*
X128016Y89935D01*
X128115Y89837D01*
X128181Y89722D01*
X128197Y89591D01*
X128181Y89459D01*
X128115Y89345D01*
X128016Y89246D01*
X127902Y89180D01*
X127770Y89148D01*
X127639D01*
X127508Y89180D01*
X127393Y89246D01*
X127295Y89345D01*
X127229Y89459D01*
X127213Y89591D01*
G01X128197Y88770D02*
X127492D01*
X127344Y88705D01*
X127245Y88574D01*
X127213Y88410D01*
X127245Y88245D01*
X127344Y88114D01*
X127492Y88049D01*
X128197D01*
G01Y87228D02*
X127213D01*
G01X128197Y87606D02*
Y86851D01*
M02*
