G04 ================== begin FILE IDENTIFICATION RECORD ==================*
G04 Layout Name:  STABILIZATOR.brd*
G04 Film Name:    TOP*
G04 File Format:  Gerber RS274X*
G04 File Origin:  Cadence Allegro 16.6-2015-S059*
G04 Origin Date:  Fri Nov 20 19:11:11 2020*
G04 *
G04 Layer:  ETCH/TOP*
G04 Layer:  PIN/TOP*
G04 Layer:  VIA CLASS/TOP*
G04 *
G04 Offset:    (0.000 0.000)*
G04 Mirror:    No*
G04 Mode:      Positive*
G04 Rotation:  0*
G04 FullContactRelief:  No*
G04 UndefLineWidth:     5.000*
G04 ================== end FILE IDENTIFICATION RECORD ====================*
%FSLAX25Y25*MOIN*%
%IR0*IPPOS*OFA0.00000B0.00000*MIA0B0*SFA1.00000B1.00000*%
%ADD21R,.07087X.120079*%
%ADD12R,.120079X.07087*%
%ADD20R,.062988X.11811*%
%ADD14R,.05X.036*%
%ADD10C,.04*%
%ADD15C,.024*%
%ADD19R,.22835X.244091*%
%ADD13R,.05315X.041339*%
%ADD18R,.051181X.051181*%
%ADD16R,.037402X.057091*%
%ADD11R,.057091X.037402*%
%ADD17R,.051181X.07874*%
%ADD22C,.02*%
G75*
%LPD*%
G75*
G54D10*
X20000Y20000D03*
X137400Y137400D03*
G54D11*
X16000Y43937D03*
Y36063D03*
Y61937D03*
Y54063D03*
X24000Y76937D03*
Y69063D03*
X16000Y91937D03*
Y84063D03*
X24000Y106937D03*
Y99063D03*
X16000Y121937D03*
Y114063D03*
X24000Y136937D03*
Y129063D03*
X30000Y46063D03*
Y53937D03*
X39000Y136937D03*
Y129063D03*
X55000Y136937D03*
Y129063D03*
X79000Y19063D03*
X56000Y51063D03*
X79000Y26937D03*
Y42937D03*
Y35063D03*
Y51063D03*
X56000Y58937D03*
X79000D03*
X78000Y136937D03*
Y129063D03*
X140000Y18937D03*
Y11063D03*
X141000Y52937D03*
Y45063D03*
Y79063D03*
Y86937D03*
X147000Y35937D03*
Y28063D03*
Y69937D03*
Y62063D03*
X148000Y111063D03*
Y103937D03*
Y96063D03*
Y133937D03*
Y126063D03*
Y118937D03*
G54D20*
X94008Y124000D03*
X112000D03*
G54D12*
X13000Y147000D03*
X39000Y116000D03*
X66000Y11000D03*
X92000D03*
G54D21*
X123000Y89000D03*
G54D22*
G01X30000Y46063D02*
X22481D01*
X20355Y43937D01*
X16000D01*
G01Y36063D02*
X24937D01*
X32738Y28261D01*
Y14128D01*
X35866Y11000D01*
X36457D01*
G01X16000Y61937D02*
X20355D01*
X24000Y65582D01*
Y69063D01*
G01X16000Y54063D02*
X25519D01*
X25645Y53937D01*
X30000D01*
G01X24000Y99063D02*
Y95000D01*
X20937Y91937D01*
X16000D01*
G01Y84063D02*
X20355D01*
X24000Y80418D01*
Y76937D01*
G01X13000Y147000D02*
Y140000D01*
X16063Y136937D01*
X24000D01*
G01Y129063D02*
Y125000D01*
X20937Y121937D01*
X16000D01*
G01Y114063D02*
X20355D01*
X24000Y110418D01*
Y106937D01*
G01X43543Y11000D02*
X63540D01*
G01X56000Y45000D02*
X48000D01*
X44000Y49000D01*
Y63000D01*
G01X51500Y73200D02*
Y69500D01*
X56000Y65000D01*
Y58937D01*
G01X35900Y67100D02*
Y79900D01*
X40000Y84000D01*
X44000D01*
G01D02*
X48200D01*
X51500Y80700D01*
G01Y92200D02*
Y88111D01*
X58500Y81111D01*
Y77000D01*
G01X35900Y88100D02*
Y96900D01*
X39000Y100000D01*
Y116000D01*
G01D02*
X41460D01*
X51500Y105961D01*
Y99700D01*
G01D02*
X44000D01*
G01X39000Y136937D02*
X55000D01*
G01X24000D02*
X39000D01*
G01X51500Y115000D02*
Y122500D01*
G01X39000Y129063D02*
Y116000D01*
G01X63540Y11000D02*
X66000D01*
G01D02*
X74307D01*
G01D02*
X79000Y15693D01*
Y19063D01*
G01X92000Y11000D02*
X74307D01*
G01X56000Y45000D02*
Y18540D01*
X63540Y11000D01*
G01X56000Y51063D02*
Y45000D01*
G01X79000Y42937D02*
Y51063D01*
G01X71000Y43000D02*
Y48000D01*
X74063Y51063D01*
X79000D01*
G01Y26937D02*
Y35063D01*
G01X81500Y77000D02*
Y86200D01*
X83300Y88000D01*
X86000D01*
G01X58500Y77000D02*
X62500D01*
X64600Y79100D01*
Y87408D01*
X69392Y92200D01*
X74500D01*
G01Y73200D02*
Y69500D01*
X79000Y65000D01*
Y58937D01*
G01X74500Y80700D02*
Y84000D01*
X72500Y86000D01*
X68000D01*
G01X74500Y99700D02*
X67000D01*
G01X81500Y115000D02*
Y96000D01*
G01X103024Y95693D02*
X90106D01*
X90013Y95600D01*
X84592D01*
X84192Y96000D01*
X81500D01*
G01X58500Y111300D02*
Y96000D01*
G01X58350Y111300D02*
X58500D01*
G01D02*
X62500D01*
X64500Y113300D01*
Y113500D01*
G01X74500Y111200D02*
X70500D01*
X68600Y109300D01*
Y106000D01*
G01X55000Y136937D02*
X78000D01*
G01D02*
X89077D01*
X94008Y132006D01*
Y124000D01*
G01X58500Y118800D02*
Y122193D01*
X55000Y125693D01*
Y129063D01*
G01X64500Y122500D02*
Y113500D01*
G01D02*
X69700Y118700D01*
X74500D01*
G01X68600Y127000D02*
X71300D01*
X73363Y129063D01*
X78000D01*
G01X92000Y11000D02*
X110693D01*
X111693Y10000D01*
X115063D01*
G01X91063Y32000D02*
Y16980D01*
X92000Y16044D01*
Y11000D01*
G01X91063Y32000D02*
Y36937D01*
X87241Y40759D01*
Y61525D01*
X89500Y63784D01*
Y70200D01*
G01X92000Y49000D02*
X96059D01*
X100587Y53528D01*
X114244D01*
G01X101000Y41000D02*
X98937Y38937D01*
Y32000D01*
G01X92000Y58055D02*
X96059D01*
X101000Y62996D01*
Y67055D01*
G01X96500Y74000D02*
Y89169D01*
X103024Y95693D01*
G01X103000Y79000D02*
Y81965D01*
X103024Y81988D01*
Y95693D01*
G01X89500Y77700D02*
Y80500D01*
X87000Y83000D01*
X86000D01*
G01Y102000D02*
Y108587D01*
X94008Y116594D01*
Y124000D01*
G01X112000D02*
X118000D01*
G01X147000Y28063D02*
X142000D01*
X140000Y26063D01*
Y18937D01*
G01X122937Y10000D02*
X129937D01*
X131000Y11063D01*
X140000D01*
G01X147000Y35937D02*
X142645D01*
X141000Y37582D01*
Y45063D01*
G01X114244Y53528D02*
Y80180D01*
X115999Y81935D01*
X118396D01*
X123000Y86540D01*
Y89000D01*
G01X147000Y69937D02*
X142645D01*
X141000Y71582D01*
Y79063D01*
G01Y52937D02*
Y60418D01*
X142645Y62063D01*
X147000D01*
G01X118000Y124000D02*
X120500Y121500D01*
Y107700D01*
G01X141000Y86937D02*
X130107D01*
X128044Y89000D01*
X123000D01*
G01X120500Y100200D02*
Y91500D01*
X123000Y89000D01*
G01X141000Y86937D02*
X145355D01*
X148000Y89582D01*
Y96063D01*
G01X127500Y104000D02*
X135000D01*
G01X118000Y124000D02*
X133708D01*
X143645Y133937D01*
X148000D01*
G01Y103937D02*
Y111063D01*
G01Y118937D02*
Y126063D01*
G54D13*
X36457Y11000D03*
X43543D03*
G54D14*
X35900Y67100D03*
X44000Y63000D03*
Y71200D03*
X51500Y73200D03*
Y80700D03*
X35900Y88100D03*
X44000Y84000D03*
Y92200D03*
X51500D03*
Y99700D03*
Y115000D03*
X58500Y77000D03*
X74500Y73200D03*
Y80700D03*
X81500Y77000D03*
X58500Y96000D03*
X74500Y111200D03*
X58500Y111300D03*
X74500Y92200D03*
Y99700D03*
X81500Y96000D03*
X74500Y118700D03*
X81500Y115000D03*
X58500Y118800D03*
X89500Y70200D03*
Y77700D03*
X96500Y74000D03*
X120500Y100200D03*
Y107700D03*
X127500Y104000D03*
G54D15*
X44000Y99700D03*
X51500Y122500D03*
X71000Y43000D03*
X67000Y99700D03*
X68600Y106000D03*
X68000Y86000D03*
X64500Y122500D03*
X68600Y127000D03*
X101000Y41000D03*
Y67055D03*
X103000Y79000D03*
X86000Y83000D03*
Y102000D03*
Y88000D03*
X135000Y104000D03*
G54D16*
X98937Y32000D03*
X91063D03*
X122937Y10000D03*
X115063D03*
G54D17*
X114244Y53528D03*
G54D18*
X92000Y49000D03*
Y58055D03*
G54D19*
X103024Y95693D03*
M02*
